  0
SECTION
  2
HEADER
  9
$ACADVER
  1
AC1024
  9
$ACADMAINTVER
 70
6
  9
$DWGCODEPAGE
  3
ANSI_1252
  9
$LASTSAVEDBY
  1
ezdxf
  9
$INSBASE
 10
0.0
 20
0.0
 30
0.0
  9
$EXTMIN
 10
1e+20
 20
1e+20
 30
1e+20
  9
$EXTMAX
 10
-1e+20
 20
-1e+20
 30
-1e+20
  9
$LIMMIN
 10
0.0
 20
0.0
  9
$LIMMAX
 10
420.0
 20
297.0
  9
$ORTHOMODE
 70
0
  9
$REGENMODE
 70
1
  9
$FILLMODE
 70
1
  9
$QTEXTMODE
 70
0
  9
$MIRRTEXT
 70
1
  9
$LTSCALE
 40
1.0
  9
$ATTMODE
 70
1
  9
$TEXTSIZE
 40
2.5
  9
$TRACEWID
 40
1.0
  9
$TEXTSTYLE
  7
Standard
  9
$CLAYER
  8
0
  9
$CELTYPE
  6
ByLayer
  9
$CECOLOR
 62
256
  9
$CELTSCALE
 40
1.0
  9
$DISPSILH
 70
0
  9
$DIMSCALE
 40
1.0
  9
$DIMASZ
 40
2.5
  9
$DIMEXO
 40
0.625
  9
$DIMDLI
 40
3.75
  9
$DIMRND
 40
0.0
  9
$DIMDLE
 40
0.0
  9
$DIMEXE
 40
1.25
  9
$DIMTP
 40
0.0
  9
$DIMTM
 40
0.0
  9
$DIMTXT
 40
2.5
  9
$DIMCEN
 40
2.5
  9
$DIMTSZ
 40
0.0
  9
$DIMTOL
 70
0
  9
$DIMLIM
 70
0
  9
$DIMTIH
 70
0
  9
$DIMTOH
 70
0
  9
$DIMSE1
 70
0
  9
$DIMSE2
 70
0
  9
$DIMTAD
 70
1
  9
$DIMZIN
 70
8
  9
$DIMBLK
  1

  9
$DIMASO
 70
1
  9
$DIMSHO
 70
1
  9
$DIMPOST
  1

  9
$DIMAPOST
  1

  9
$DIMALT
 70
0
  9
$DIMALTD
 70
3
  9
$DIMALTF
 40
0.03937007874
  9
$DIMLFAC
 40
1.0
  9
$DIMTOFL
 70
1
  9
$DIMTVP
 40
0.0
  9
$DIMTIX
 70
0
  9
$DIMSOXD
 70
0
  9
$DIMSAH
 70
0
  9
$DIMBLK1
  1

  9
$DIMBLK2
  1

  9
$DIMSTYLE
  2
ISO-25
  9
$DIMCLRD
 70
0
  9
$DIMCLRE
 70
0
  9
$DIMCLRT
 70
0
  9
$DIMTFAC
 40
1.0
  9
$DIMGAP
 40
0.625
  9
$DIMJUST
 70
0
  9
$DIMSD1
 70
0
  9
$DIMSD2
 70
0
  9
$DIMTOLJ
 70
0
  9
$DIMTZIN
 70
8
  9
$DIMALTZ
 70
0
  9
$DIMALTTZ
 70
0
  9
$DIMUPT
 70
0
  9
$DIMDEC
 70
2
  9
$DIMTDEC
 70
2
  9
$DIMALTU
 70
2
  9
$DIMALTTD
 70
3
  9
$DIMTXSTY
  7
Standard
  9
$DIMAUNIT
 70
0
  9
$DIMADEC
 70
0
  9
$DIMALTRND
 40
0.0
  9
$DIMAZIN
 70
0
  9
$DIMDSEP
 70
44
  9
$DIMATFIT
 70
3
  9
$DIMFRAC
 70
0
  9
$DIMLDRBLK
  1

  9
$DIMLUNIT
 70
2
  9
$DIMLWD
 70
-2
  9
$DIMLWE
 70
-2
  9
$DIMTMOVE
 70
0
  9
$DIMFXL
 40
1.0
  9
$DIMFXLON
 70
0
  9
$DIMJOGANG
 40
0.785398163397
  9
$DIMTFILL
 70
0
  9
$DIMTFILLCLR
 70
0
  9
$DIMARCSYM
 70
0
  9
$DIMLTYPE
  6

  9
$DIMLTEX1
  6

  9
$DIMLTEX2
  6

  9
$DIMTXTDIRECTION
 70
0
  9
$LUNITS
 70
2
  9
$LUPREC
 70
4
  9
$SKETCHINC
 40
1.0
  9
$FILLETRAD
 40
10.0
  9
$AUNITS
 70
0
  9
$AUPREC
 70
2
  9
$MENU
  1
.
  9
$ELEVATION
 40
0.0
  9
$PELEVATION
 40
0.0
  9
$THICKNESS
 40
0.0
  9
$LIMCHECK
 70
0
  9
$CHAMFERA
 40
0.0
  9
$CHAMFERB
 40
0.0
  9
$CHAMFERC
 40
0.0
  9
$CHAMFERD
 40
0.0
  9
$SKPOLY
 70
0
  9
$TDCREATE
 40
2461169.5219675926
  9
$TDUCREATE
 40
2458532.153996898
  9
$TDUPDATE
 40
2461169.5219675926
  9
$TDUUPDATE
 40
2458532.1544311
  9
$TDINDWG
 40
0.0
  9
$TDUSRTIMER
 40
0.0
  9
$USRTIMER
 70
1
  9
$ANGBASE
 50
0.0
  9
$ANGDIR
 70
0
  9
$PDMODE
 70
0
  9
$PDSIZE
 40
0.0
  9
$PLINEWID
 40
0.0
  9
$SPLFRAME
 70
0
  9
$SPLINETYPE
 70
6
  9
$SPLINESEGS
 70
8
  9
$HANDSEED
  5
24B
  9
$SURFTAB1
 70
6
  9
$SURFTAB2
 70
6
  9
$SURFTYPE
 70
6
  9
$SURFU
 70
6
  9
$SURFV
 70
6
  9
$UCSBASE
  2

  9
$UCSNAME
  2

  9
$UCSORG
 10
0.0
 20
0.0
 30
0.0
  9
$UCSXDIR
 10
1.0
 20
0.0
 30
0.0
  9
$UCSYDIR
 10
0.0
 20
1.0
 30
0.0
  9
$UCSORTHOREF
  2

  9
$UCSORTHOVIEW
 70
0
  9
$UCSORGTOP
 10
0.0
 20
0.0
 30
0.0
  9
$UCSORGBOTTOM
 10
0.0
 20
0.0
 30
0.0
  9
$UCSORGLEFT
 10
0.0
 20
0.0
 30
0.0
  9
$UCSORGRIGHT
 10
0.0
 20
0.0
 30
0.0
  9
$UCSORGFRONT
 10
0.0
 20
0.0
 30
0.0
  9
$UCSORGBACK
 10
0.0
 20
0.0
 30
0.0
  9
$PUCSBASE
  2

  9
$PUCSNAME
  2

  9
$PUCSORG
 10
0.0
 20
0.0
 30
0.0
  9
$PUCSXDIR
 10
1.0
 20
0.0
 30
0.0
  9
$PUCSYDIR
 10
0.0
 20
1.0
 30
0.0
  9
$PUCSORTHOREF
  2

  9
$PUCSORTHOVIEW
 70
0
  9
$PUCSORGTOP
 10
0.0
 20
0.0
 30
0.0
  9
$PUCSORGBOTTOM
 10
0.0
 20
0.0
 30
0.0
  9
$PUCSORGLEFT
 10
0.0
 20
0.0
 30
0.0
  9
$PUCSORGRIGHT
 10
0.0
 20
0.0
 30
0.0
  9
$PUCSORGFRONT
 10
0.0
 20
0.0
 30
0.0
  9
$PUCSORGBACK
 10
0.0
 20
0.0
 30
0.0
  9
$USERI1
 70
0
  9
$USERI2
 70
0
  9
$USERI3
 70
0
  9
$USERI4
 70
0
  9
$USERI5
 70
0
  9
$USERR1
 40
0.0
  9
$USERR2
 40
0.0
  9
$USERR3
 40
0.0
  9
$USERR4
 40
0.0
  9
$USERR5
 40
0.0
  9
$WORLDVIEW
 70
1
  9
$SHADEDGE
 70
3
  9
$SHADEDIF
 70
70
  9
$TILEMODE
 70
1
  9
$MAXACTVP
 70
64
  9
$PINSBASE
 10
0.0
 20
0.0
 30
0.0
  9
$PLIMCHECK
 70
0
  9
$PEXTMIN
 10
1e+20
 20
1e+20
 30
1e+20
  9
$PEXTMAX
 10
-1e+20
 20
-1e+20
 30
-1e+20
  9
$PLIMMIN
 10
0.0
 20
0.0
  9
$PLIMMAX
 10
420.0
 20
297.0
  9
$UNITMODE
 70
0
  9
$VISRETAIN
 70
1
  9
$PLINEGEN
 70
0
  9
$PSLTSCALE
 70
1
  9
$TREEDEPTH
 70
3020
  9
$CMLSTYLE
  2
Standard
  9
$CMLJUST
 70
0
  9
$CMLSCALE
 40
20.0
  9
$PROXYGRAPHICS
 70
1
  9
$MEASUREMENT
 70
1
  9
$CELWEIGHT
370
-1
  9
$ENDCAPS
280
0
  9
$JOINSTYLE
280
0
  9
$LWDISPLAY
290
0
  9
$INSUNITS
 70
4
  9
$HYPERLINKBASE
  1

  9
$STYLESHEET
  1

  9
$XEDIT
290
1
  9
$CEPSNTYPE
380
0
  9
$PSTYLEMODE
290
1
  9
$FINGERPRINTGUID
  2
{5FEF7B98-9F73-43FC-BFF1-3347BF0C8C8F}
  9
$VERSIONGUID
  2
{FB639B20-8DC4-4F50-9576-A66A850F74C0}
  9
$EXTNAMES
290
1
  9
$PSVPSCALE
 40
0.0
  9
$OLESTARTUP
290
0
  9
$SORTENTS
280
127
  9
$INDEXCTL
280
0
  9
$HIDETEXT
280
1
  9
$XCLIPFRAME
280
1
  9
$HALOGAP
280
0
  9
$OBSCOLOR
 70
257
  9
$OBSLTYPE
280
0
  9
$INTERSECTIONDISPLAY
280
0
  9
$INTERSECTIONCOLOR
 70
257
  9
$DIMASSOC
280
2
  9
$PROJECTNAME
  1

  9
$CAMERADISPLAY
290
0
  9
$LENSLENGTH
 40
50.0
  9
$CAMERAHEIGHT
 40
0.0
  9
$STEPSPERSEC
 40
24.0
  9
$STEPSIZE
 40
100.0
  9
$3DDWFPREC
 40
2.0
  9
$PSOLWIDTH
 40
0.005
  9
$PSOLHEIGHT
 40
0.08
  9
$LOFTANG1
 40
1.570796326795
  9
$LOFTANG2
 40
1.570796326795
  9
$LOFTMAG1
 40
0.0
  9
$LOFTMAG2
 40
0.0
  9
$LOFTPARAM
 70
7
  9
$LOFTNORMALS
280
1
  9
$LATITUDE
 40
37.795
  9
$LONGITUDE
 40
-122.394
  9
$NORTHDIRECTION
 40
0.0
  9
$TIMEZONE
 70
-8000
  9
$LIGHTGLYPHDISPLAY
280
1
  9
$TILEMODELIGHTSYNCH
280
1
  9
$CMATERIAL
347
20
  9
$SOLIDHIST
280
0
  9
$SHOWHIST
280
1
  9
$DWFFRAME
280
2
  9
$DGNFRAME
280
2
  9
$REALWORLDSCALE
290
1
  9
$INTERFERECOLOR
 62
256
  9
$CSHADOW
280
0
  9
$SHADOWPLANELOCATION
 40
0.0
  0
ENDSEC
  0
SECTION
  2
CLASSES
  0
CLASS
  1
ACDBDICTIONARYWDFLT
  2
AcDbDictionaryWithDefault
  3
ObjectDBX Classes
 90
0
 91
0
280
0
281
0
  0
CLASS
  1
SUN
  2
AcDbSun
  3
SCENEOE
 90
1153
 91
0
280
0
281
0
  0
CLASS
  1
VISUALSTYLE
  2
AcDbVisualStyle
  3
ObjectDBX Classes
 90
4095
 91
0
280
0
281
0
  0
CLASS
  1
MATERIAL
  2
AcDbMaterial
  3
ObjectDBX Classes
 90
1153
 91
0
280
0
281
0
  0
CLASS
  1
SCALE
  2
AcDbScale
  3
ObjectDBX Classes
 90
1153
 91
0
280
0
281
0
  0
CLASS
  1
TABLESTYLE
  2
AcDbTableStyle
  3
ObjectDBX Classes
 90
4095
 91
0
280
0
281
0
  0
CLASS
  1
MLEADERSTYLE
  2
AcDbMLeaderStyle
  3
ACDB_MLEADERSTYLE_CLASS
 90
4095
 91
0
280
0
281
0
  0
CLASS
  1
DICTIONARYVAR
  2
AcDbDictionaryVar
  3
ObjectDBX Classes
 90
0
 91
0
280
0
281
0
  0
CLASS
  1
CELLSTYLEMAP
  2
AcDbCellStyleMap
  3
ObjectDBX Classes
 90
1152
 91
0
280
0
281
0
  0
CLASS
  1
MENTALRAYRENDERSETTINGS
  2
AcDbMentalRayRenderSettings
  3
SCENEOE
 90
1024
 91
0
280
0
281
0
  0
CLASS
  1
ACDBDETAILVIEWSTYLE
  2
AcDbDetailViewStyle
  3
ObjectDBX Classes
 90
1025
 91
0
280
0
281
0
  0
CLASS
  1
ACDBSECTIONVIEWSTYLE
  2
AcDbSectionViewStyle
  3
ObjectDBX Classes
 90
1025
 91
0
280
0
281
0
  0
CLASS
  1
RASTERVARIABLES
  2
AcDbRasterVariables
  3
ISM
 90
0
 91
0
280
0
281
0
  0
CLASS
  1
ACDBPLACEHOLDER
  2
AcDbPlaceHolder
  3
ObjectDBX Classes
 90
0
 91
0
280
0
281
0
  0
CLASS
  1
LAYOUT
  2
AcDbLayout
  3
ObjectDBX Classes
 90
0
 91
0
280
0
281
0
  0
ENDSEC
  0
SECTION
  2
TABLES
  0
TABLE
  2
VPORT
  5
8
330
0
100
AcDbSymbolTable
 70
1
  0
VPORT
  5
23
330
8
100
AcDbSymbolTableRecord
100
AcDbViewportTableRecord
  2
*Active
 70
0
 10
0.0
 20
0.0
 11
1.0
 21
1.0
 12
0.0
 22
0.0
 13
0.0
 23
0.0
 14
0.5
 24
0.5
 15
0.5
 25
0.5
 16
0.0
 26
0.0
 36
1.0
 17
0.0
 27
0.0
 37
0.0
 40
1000.0
 41
1.34
 42
50.0
 43
0.0
 44
0.0
 50
0.0
 51
0.0
 71
0
 72
1000
 73
1
 74
3
 75
0
 76
0
 77
0
 78
0
281
0
 65
0
146
0.0
  0
ENDTAB
  0
TABLE
  2
LTYPE
  5
2
330
0
100
AcDbSymbolTable
 70
3
  0
LTYPE
  5
24
330
2
100
AcDbSymbolTableRecord
100
AcDbLinetypeTableRecord
  2
ByBlock
 70
0
  3

 72
65
 73
0
 40
0.0
  0
LTYPE
  5
25
330
2
100
AcDbSymbolTableRecord
100
AcDbLinetypeTableRecord
  2
ByLayer
 70
0
  3

 72
65
 73
0
 40
0.0
  0
LTYPE
  5
26
330
2
100
AcDbSymbolTableRecord
100
AcDbLinetypeTableRecord
  2
Continuous
 70
0
  3

 72
65
 73
0
 40
0.0
  0
ENDTAB
  0
TABLE
  2
LAYER
  5
1
330
0
100
AcDbSymbolTable
 70
11
  0
LAYER
  5
27
330
1
100
AcDbSymbolTableRecord
100
AcDbLayerTableRecord
  2
0
 70
0
 62
7
  6
Continuous
370
-3
390
13
347
21
  0
LAYER
  5
28
330
1
100
AcDbSymbolTableRecord
100
AcDbLayerTableRecord
  2
Defpoints
 70
0
 62
7
  6
Continuous
290
0
370
-3
390
13
347
21
  0
LAYER
  5
2F
330
1
100
AcDbSymbolTableRecord
100
AcDbLayerTableRecord
  2
BOUNDARY
 70
0
 62
8
  6
Continuous
370
-3
390
13
347
21
  0
LAYER
  5
30
330
1
100
AcDbSymbolTableRecord
100
AcDbLayerTableRecord
  2
BYPASS
 70
0
 62
140
  6
Continuous
370
-3
390
13
347
21
  0
LAYER
  5
31
330
1
100
AcDbSymbolTableRecord
100
AcDbLayerTableRecord
  2
HATCH_COVER
 70
0
 62
140
  6
Continuous
370
-3
390
13
347
21
  0
LAYER
  5
62
330
1
100
AcDbSymbolTableRecord
100
AcDbLayerTableRecord
  2
COMP_1
 70
0
 62
1
  6
Continuous
370
-3
390
13
347
21
  0
LAYER
  5
B1
330
1
100
AcDbSymbolTableRecord
100
AcDbLayerTableRecord
  2
COMP_2
 70
0
 62
3
  6
Continuous
370
-3
390
13
347
21
  0
LAYER
  5
103
330
1
100
AcDbSymbolTableRecord
100
AcDbLayerTableRecord
  2
COMP_3
 70
0
 62
5
  6
Continuous
370
-3
390
13
347
21
  0
LAYER
  5
15B
330
1
100
AcDbSymbolTableRecord
100
AcDbLayerTableRecord
  2
COMP_4
 70
0
 62
5
  6
Continuous
370
-3
390
13
347
21
  0
LAYER
  5
1A1
330
1
100
AcDbSymbolTableRecord
100
AcDbLayerTableRecord
  2
COMP_5
 70
0
 62
30
  6
Continuous
370
-3
390
13
347
21
  0
LAYER
  5
1F9
330
1
100
AcDbSymbolTableRecord
100
AcDbLayerTableRecord
  2
COMP_6
 70
0
 62
210
  6
Continuous
370
-3
390
13
347
21
  0
ENDTAB
  0
TABLE
  2
STYLE
  5
5
330
0
100
AcDbSymbolTable
 70
1
  0
STYLE
  5
29
330
5
100
AcDbSymbolTableRecord
100
AcDbTextStyleTableRecord
  2
Standard
 70
0
 40
0.0
 41
1.0
 50
0.0
 71
0
 42
2.5
  3
txt
  4

  0
ENDTAB
  0
TABLE
  2
VIEW
  5
7
330
0
100
AcDbSymbolTable
 70
0
  0
ENDTAB
  0
TABLE
  2
UCS
  5
6
330
0
100
AcDbSymbolTable
 70
0
  0
ENDTAB
  0
TABLE
  2
APPID
  5
3
330
0
100
AcDbSymbolTable
 70
3
  0
APPID
  5
2A
330
3
100
AcDbSymbolTableRecord
100
AcDbRegAppTableRecord
  2
ACAD
 70
0
  0
APPID
  5
248
330
3
100
AcDbSymbolTableRecord
100
AcDbRegAppTableRecord
  2
HATCHBACKGROUNDCOLOR
 70
0
  0
APPID
  5
249
330
3
100
AcDbSymbolTableRecord
100
AcDbRegAppTableRecord
  2
EZDXF
 70
0
  0
ENDTAB
  0
TABLE
  2
DIMSTYLE
  5
4
330
0
100
AcDbSymbolTable
 70
1
100
AcDbDimStyleTable
  0
DIMSTYLE
105
2B
330
4
100
AcDbSymbolTableRecord
100
AcDbDimStyleTableRecord
  2
Standard
 70
0
 40
1.0
 41
2.5
 42
0.625
 43
3.75
 44
1.25
 45
0.0
 46
0.0
 47
0.0
 48
0.0
 49
2.5
140
2.5
141
2.5
142
0.0
143
0.03937007874
144
1.0
145
0.0
146
1.0
147
0.625
148
0.0
 69
0
 70
0
 71
0
 72
0
 73
0
 74
0
 75
0
 76
0
 77
1
 78
8
 79
3
170
0
171
3
172
1
173
0
174
0
175
0
176
0
177
0
178
0
179
2
271
2
272
2
273
2
274
3
275
0
276
0
277
2
278
44
279
0
280
0
281
0
282
0
283
0
284
8
285
0
286
0
288
0
289
3
290
0
371
-2
372
-2
  0
ENDTAB
  0
TABLE
  2
BLOCK_RECORD
  5
9
330
0
100
AcDbSymbolTable
 70
2
  0
BLOCK_RECORD
  5
17
330
9
100
AcDbSymbolTableRecord
100
AcDbBlockTableRecord
  2
*Model_Space
340
1A
 70
0
280
1
281
0
  0
BLOCK_RECORD
  5
1B
330
9
100
AcDbSymbolTableRecord
100
AcDbBlockTableRecord
  2
*Paper_Space
340
1E
 70
0
280
1
281
0
  0
ENDTAB
  0
ENDSEC
  0
SECTION
  2
BLOCKS
  0
BLOCK
  5
18
330
17
100
AcDbEntity
  8
0
100
AcDbBlockBegin
  2
*Model_Space
 70
0
 10
0.0
 20
0.0
 30
0.0
  3
*Model_Space
  1

  0
ENDBLK
  5
19
330
17
100
AcDbEntity
  8
0
100
AcDbBlockEnd
  0
BLOCK
  5
1C
330
1B
100
AcDbEntity
  8
0
100
AcDbBlockBegin
  2
*Paper_Space
 70
0
 10
0.0
 20
0.0
 30
0.0
  3
*Paper_Space
  1

  0
ENDBLK
  5
1D
330
1B
100
AcDbEntity
  8
0
100
AcDbBlockEnd
  0
ENDSEC
  0
SECTION
  2
ENTITIES
  0
LWPOLYLINE
  5
32
330
17
100
AcDbEntity
  8
BOUNDARY
370
15
100
AcDbPolyline
 90
5
 70
0
 10
0.0
 20
0.0
 10
0.0
 20
27462.0
 10
29500.0
 20
27462.0
 10
29500.0
 20
0.0
 10
0.0
 20
0.0
  0
LWPOLYLINE
  5
33
330
17
100
AcDbEntity
  8
BOUNDARY
370
15
100
AcDbPolyline
 90
5
 70
0
 10
31977.0
 20
0.0
 10
31977.0
 20
27462.0
 10
71336.0
 20
27462.0
 10
71336.0
 20
0.0
 10
31977.0
 20
0.0
  0
LWPOLYLINE
  5
34
330
17
100
AcDbEntity
  8
BOUNDARY
370
15
100
AcDbPolyline
 90
5
 70
0
 10
73797.0
 20
0.0
 10
73797.0
 20
27462.0
 10
103319.0
 20
27462.0
 10
103319.0
 20
0.0
 10
73797.0
 20
0.0
  0
LWPOLYLINE
  5
35
330
17
100
AcDbEntity
  8
BOUNDARY
370
15
100
AcDbPolyline
 90
13
 70
0
 10
105780.0
 20
1469.0
 10
105780.0
 20
25991.0
 10
116437.0
 20
25991.0
 10
116437.0
 20
23789.0
 10
124639.0
 20
23789.0
 10
124639.0
 20
20853.0
 10
129555.0
 20
20853.0
 10
129555.0
 20
7338.0
 10
124639.0
 20
7338.0
 10
124639.0
 20
4406.0
 10
116437.0
 20
4406.0
 10
116437.0
 20
1469.0
 10
105780.0
 20
1469.0
  0
LWPOLYLINE
  5
36
330
17
100
AcDbEntity
  8
BOUNDARY
370
15
100
AcDbPolyline
 90
5
 70
0
 10
0.0
 20
33151.0
 10
0.0
 20
60609.0
 10
29517.0
 20
60609.0
 10
29517.0
 20
33151.0
 10
0.0
 20
33151.0
  0
LWPOLYLINE
  5
37
330
17
100
AcDbEntity
  8
BOUNDARY
370
15
100
AcDbPolyline
 90
5
 70
0
 10
31977.0
 20
33151.0
 10
31977.0
 20
60609.0
 10
71336.0
 20
60609.0
 10
71336.0
 20
33151.0
 10
31977.0
 20
33151.0
  0
LWPOLYLINE
  5
38
330
17
100
AcDbEntity
  8
BOUNDARY
370
15
100
AcDbPolyline
 90
5
 70
0
 10
73797.0
 20
33151.0
 10
73797.0
 20
60609.0
 10
103319.0
 20
60609.0
 10
103319.0
 20
33151.0
 10
73797.0
 20
33151.0
  0
LWPOLYLINE
  5
39
330
17
100
AcDbEntity
  8
BOUNDARY
370
15
100
AcDbPolyline
 90
5
 70
0
 10
0.0
 20
66302.0
 10
0.0
 20
93760.0
 10
29517.0
 20
93760.0
 10
29517.0
 20
66302.0
 10
0.0
 20
66302.0
  0
LWPOLYLINE
  5
3A
330
17
100
AcDbEntity
  8
BOUNDARY
370
15
100
AcDbPolyline
 90
5
 70
0
 10
31977.0
 20
66302.0
 10
31977.0
 20
93760.0
 10
71336.0
 20
93760.0
 10
71336.0
 20
66302.0
 10
31977.0
 20
66302.0
  0
LWPOLYLINE
  5
3B
330
17
100
AcDbEntity
  8
BOUNDARY
370
15
100
AcDbPolyline
 90
5
 70
0
 10
73797.0
 20
66302.0
 10
73797.0
 20
93760.0
 10
103319.0
 20
93760.0
 10
103319.0
 20
66302.0
 10
73797.0
 20
66302.0
  0
LWPOLYLINE
  5
3C
330
17
100
AcDbEntity
  8
BOUNDARY
370
15
100
AcDbPolyline
 90
17
 70
0
 10
-40149.0
 20
98611.0
 10
-40149.0
 20
130562.0
 10
-29439.0
 20
130562.0
 10
-29439.0
 20
128188.0
 10
101283.0
 20
128188.0
 10
101283.0
 20
126720.0
 10
116469.0
 20
126720.0
 10
116469.0
 20
124520.0
 10
124009.0
 20
124520.0
 10
124009.0
 20
104631.0
 10
116469.0
 20
104631.0
 10
116469.0
 20
101695.0
 10
101283.0
 20
101695.0
 10
101283.0
 20
99453.0
 10
-29439.0
 20
99453.0
 10
-29439.0
 20
98611.0
 10
-40149.0
 20
98611.0
  0
LWPOLYLINE
  5
3D
330
17
100
AcDbEntity
  8
BYPASS
370
20
100
AcDbPolyline
 90
5
 70
0
 10
14783.0
 20
33230.11
 10
14783.0
 20
60530.0
 10
19633.0
 20
60530.0
 10
19633.0
 20
33230.11
 10
14783.0
 20
33230.11
  0
LWPOLYLINE
  5
3E
330
17
100
AcDbEntity
  8
BYPASS
370
20
100
AcDbPolyline
 90
5
 70
0
 10
19680.0
 20
33230.11
 10
19680.0
 20
60530.0
 10
24530.0
 20
60530.0
 10
24530.0
 20
33230.11
 10
19680.0
 20
33230.11
  0
LWPOLYLINE
  5
3F
330
17
100
AcDbEntity
  8
BYPASS
370
20
100
AcDbPolyline
 90
5
 70
0
 10
24581.0
 20
33230.11
 10
24581.0
 20
60530.0
 10
29431.0
 20
60530.0
 10
29431.0
 20
33230.11
 10
24581.0
 20
33230.11
  0
LWPOLYLINE
  5
40
330
17
100
AcDbEntity
  8
BYPASS
370
20
100
AcDbPolyline
 90
5
 70
0
 10
66381.0
 20
33230.11
 10
66381.0
 20
60530.0
 10
71231.0
 20
60530.0
 10
71231.0
 20
33230.11
 10
66381.0
 20
33230.11
  0
LWPOLYLINE
  5
41
330
17
100
AcDbEntity
  8
BYPASS
370
20
100
AcDbPolyline
 90
5
 70
0
 10
73880.0
 20
33230.11
 10
73880.0
 20
60530.0
 10
78730.0
 20
60530.0
 10
78730.0
 20
33230.11
 10
73880.0
 20
33230.11
  0
LWPOLYLINE
  5
42
330
17
100
AcDbEntity
  8
BYPASS
370
20
100
AcDbPolyline
 90
5
 70
0
 10
78777.0
 20
33230.11
 10
78777.0
 20
60530.0
 10
83627.0
 20
60530.0
 10
83627.0
 20
33230.11
 10
78777.0
 20
33230.11
  0
LWPOLYLINE
  5
43
330
17
100
AcDbEntity
  8
BYPASS
370
20
100
AcDbPolyline
 90
5
 70
0
 10
83674.0
 20
33230.11
 10
83674.0
 20
60530.0
 10
88524.0
 20
60530.0
 10
88524.0
 20
33230.11
 10
83674.0
 20
33230.11
  0
LWPOLYLINE
  5
44
330
17
100
AcDbEntity
  8
BYPASS
370
20
100
AcDbPolyline
 90
5
 70
0
 10
98383.0
 20
33230.11
 10
98383.0
 20
60530.0
 10
103233.0
 20
60530.0
 10
103233.0
 20
33230.11
 10
98383.0
 20
33230.11
  0
LWPOLYLINE
  5
45
330
17
100
AcDbEntity
  8
BYPASS
370
20
100
AcDbPolyline
 90
5
 70
0
 10
77.91
 20
66381.11
 10
77.91
 20
93681.0
 10
4928.0
 20
93681.0
 10
4928.0
 20
66381.11
 10
77.91
 20
66381.11
  0
LWPOLYLINE
  5
46
330
17
100
AcDbEntity
  8
BYPASS
370
20
100
AcDbPolyline
 90
5
 70
0
 10
24581.0
 20
66381.11
 10
24581.0
 20
93681.0
 10
29431.0
 20
93681.0
 10
29431.0
 20
66381.11
 10
24581.0
 20
66381.11
  0
LWPOLYLINE
  5
47
330
17
100
AcDbEntity
  8
BYPASS
370
20
100
AcDbPolyline
 90
5
 70
0
 10
32078.0
 20
66381.11
 10
32078.0
 20
93681.0
 10
36928.0
 20
93681.0
 10
36928.0
 20
66381.11
 10
32078.0
 20
66381.11
  0
LWPOLYLINE
  5
48
330
17
100
AcDbEntity
  8
BYPASS
370
20
100
AcDbPolyline
 90
5
 70
0
 10
46778.0
 20
66381.11
 10
46778.0
 20
93681.0
 10
51628.0
 20
93681.0
 10
51628.0
 20
66381.11
 10
46778.0
 20
66381.11
  0
LWPOLYLINE
  5
49
330
17
100
AcDbEntity
  8
BYPASS
370
20
100
AcDbPolyline
 90
5
 70
0
 10
51680.0
 20
66381.11
 10
51680.0
 20
93681.0
 10
56530.0
 20
93681.0
 10
56530.0
 20
66381.11
 10
51680.0
 20
66381.11
  0
LWPOLYLINE
  5
4A
330
17
100
AcDbEntity
  8
BYPASS
370
20
100
AcDbPolyline
 90
5
 70
0
 10
56532.0
 20
66381.11
 10
56532.0
 20
93681.0
 10
61432.0
 20
93681.0
 10
61432.0
 20
66381.11
 10
56532.0
 20
66381.11
  0
LWPOLYLINE
  5
4B
330
17
100
AcDbEntity
  8
BYPASS
370
20
100
AcDbPolyline
 90
5
 70
0
 10
66381.0
 20
66381.11
 10
66381.0
 20
93681.0
 10
71231.0
 20
93681.0
 10
71231.0
 20
66381.11
 10
66381.0
 20
66381.11
  0
LWPOLYLINE
  5
4C
330
17
100
AcDbEntity
  8
BYPASS
370
20
100
AcDbPolyline
 90
5
 70
0
 10
73880.0
 20
66381.11
 10
73880.0
 20
93681.0
 10
78730.0
 20
93681.0
 10
78730.0
 20
66381.11
 10
73880.0
 20
66381.11
  0
LWPOLYLINE
  5
4D
330
17
100
AcDbEntity
  8
BYPASS
370
20
100
AcDbPolyline
 90
5
 70
0
 10
98383.0
 20
66381.11
 10
98383.0
 20
93681.0
 10
103233.0
 20
93681.0
 10
103233.0
 20
66381.11
 10
98383.0
 20
66381.11
  0
LWPOLYLINE
  5
4E
330
17
100
AcDbEntity
  8
HATCH_COVER
370
20
100
AcDbPolyline
 90
5
 70
0
 10
-40149.0
 20
98611.0
 10
-40149.0
 20
130562.0
 10
-29439.0
 20
130562.0
 10
-29439.0
 20
98611.0
 10
-40149.0
 20
98611.0
  0
LWPOLYLINE
  5
4F
330
17
100
AcDbEntity
  8
HATCH_COVER
370
20
100
AcDbPolyline
 90
5
 70
0
 10
-26778.0
 20
99453.0
 10
-26778.0
 20
128188.0
 10
-21719.0
 20
128188.0
 10
-21719.0
 20
99453.0
 10
-26778.0
 20
99453.0
  0
LWPOLYLINE
  5
50
330
17
100
AcDbEntity
  8
HATCH_COVER
370
20
100
AcDbPolyline
 90
5
 70
0
 10
-21719.0
 20
99453.0
 10
-21719.0
 20
128188.0
 10
-15673.0
 20
128188.0
 10
-15673.0
 20
99453.0
 10
-21719.0
 20
99453.0
  0
LWPOLYLINE
  5
51
330
17
100
AcDbEntity
  8
HATCH_COVER
370
20
100
AcDbPolyline
 90
5
 70
0
 10
-15673.0
 20
99453.0
 10
-15673.0
 20
128188.0
 10
-9393.0
 20
128188.0
 10
-9393.0
 20
99453.0
 10
-15673.0
 20
99453.0
  0
LWPOLYLINE
  5
52
330
17
100
AcDbEntity
  8
HATCH_COVER
370
20
100
AcDbPolyline
 90
5
 70
0
 10
-9393.0
 20
99453.0
 10
-9393.0
 20
128188.0
 10
-4442.0
 20
128188.0
 10
-4442.0
 20
99453.0
 10
-9393.0
 20
99453.0
  0
LWPOLYLINE
  5
53
330
17
100
AcDbEntity
  8
HATCH_COVER
370
20
100
AcDbPolyline
 90
5
 70
0
 10
0.0
 20
99453.0
 10
0.0
 20
128188.0
 10
6577.0
 20
128188.0
 10
6577.0
 20
99453.0
 10
0.0
 20
99453.0
  0
LWPOLYLINE
  5
54
330
17
100
AcDbEntity
  8
HATCH_COVER
370
20
100
AcDbPolyline
 90
5
 70
0
 10
6577.0
 20
99453.0
 10
6577.0
 20
128188.0
 10
13847.0
 20
128188.0
 10
13847.0
 20
99453.0
 10
6577.0
 20
99453.0
  0
LWPOLYLINE
  5
55
330
17
100
AcDbEntity
  8
HATCH_COVER
370
20
100
AcDbPolyline
 90
5
 70
0
 10
13847.0
 20
99453.0
 10
13847.0
 20
128188.0
 10
21382.0
 20
128188.0
 10
21382.0
 20
99453.0
 10
13847.0
 20
99453.0
  0
LWPOLYLINE
  5
56
330
17
100
AcDbEntity
  8
HATCH_COVER
370
20
100
AcDbPolyline
 90
5
 70
0
 10
21382.0
 20
99453.0
 10
21382.0
 20
128188.0
 10
27538.0
 20
128188.0
 10
27538.0
 20
99453.0
 10
21382.0
 20
99453.0
  0
LWPOLYLINE
  5
57
330
17
100
AcDbEntity
  8
HATCH_COVER
370
20
100
AcDbPolyline
 90
5
 70
0
 10
32330.0
 20
99453.0
 10
32330.0
 20
128188.0
 10
39327.0
 20
128188.0
 10
39327.0
 20
99453.0
 10
32330.0
 20
99453.0
  0
LWPOLYLINE
  5
58
330
17
100
AcDbEntity
  8
HATCH_COVER
370
20
100
AcDbPolyline
 90
5
 70
0
 10
39327.0
 20
99453.0
 10
39327.0
 20
128188.0
 10
47451.0
 20
128188.0
 10
47451.0
 20
99453.0
 10
39327.0
 20
99453.0
  0
LWPOLYLINE
  5
59
330
17
100
AcDbEntity
  8
HATCH_COVER
370
20
100
AcDbPolyline
 90
5
 70
0
 10
47451.0
 20
99453.0
 10
47451.0
 20
128188.0
 10
59091.0
 20
128188.0
 10
59091.0
 20
99453.0
 10
47451.0
 20
99453.0
  0
LWPOLYLINE
  5
5A
330
17
100
AcDbEntity
  8
HATCH_COVER
370
20
100
AcDbPolyline
 90
5
 70
0
 10
59091.0
 20
99453.0
 10
59091.0
 20
128188.0
 10
69071.0
 20
128188.0
 10
69071.0
 20
99453.0
 10
59091.0
 20
99453.0
  0
LWPOLYLINE
  5
5B
330
17
100
AcDbEntity
  8
HATCH_COVER
370
20
100
AcDbPolyline
 90
5
 70
0
 10
74151.0
 20
99453.0
 10
74151.0
 20
128188.0
 10
80307.0
 20
128188.0
 10
80307.0
 20
99453.0
 10
74151.0
 20
99453.0
  0
LWPOLYLINE
  5
5C
330
17
100
AcDbEntity
  8
HATCH_COVER
370
20
100
AcDbPolyline
 90
5
 70
0
 10
80307.0
 20
99453.0
 10
80307.0
 20
128188.0
 10
87676.0
 20
128188.0
 10
87676.0
 20
99453.0
 10
80307.0
 20
99453.0
  0
LWPOLYLINE
  5
5D
330
17
100
AcDbEntity
  8
HATCH_COVER
370
20
100
AcDbPolyline
 90
5
 70
0
 10
87676.0
 20
99453.0
 10
87676.0
 20
128188.0
 10
95127.0
 20
128188.0
 10
95127.0
 20
99453.0
 10
87676.0
 20
99453.0
  0
LWPOLYLINE
  5
5E
330
17
100
AcDbEntity
  8
HATCH_COVER
370
20
100
AcDbPolyline
 90
5
 70
0
 10
95127.0
 20
99453.0
 10
95127.0
 20
128188.0
 10
101283.0
 20
128188.0
 10
101283.0
 20
99453.0
 10
95127.0
 20
99453.0
  0
LWPOLYLINE
  5
5F
330
17
100
AcDbEntity
  8
HATCH_COVER
370
20
100
AcDbPolyline
 90
5
 70
0
 10
106029.0
 20
101696.0
 10
106029.0
 20
126720.0
 10
110751.0
 20
126720.0
 10
110751.0
 20
101696.0
 10
106029.0
 20
101696.0
  0
LWPOLYLINE
  5
60
330
17
100
AcDbEntity
  8
HATCH_COVER
370
20
100
AcDbPolyline
 90
5
 70
0
 10
110751.0
 20
101696.0
 10
110751.0
 20
126720.0
 10
116469.0
 20
126720.0
 10
116469.0
 20
101696.0
 10
110751.0
 20
101696.0
  0
LWPOLYLINE
  5
61
330
17
100
AcDbEntity
  8
HATCH_COVER
370
20
100
AcDbPolyline
 90
5
 70
0
 10
116469.0
 20
104631.0
 10
116469.0
 20
124520.0
 10
124009.0
 20
124520.0
 10
124009.0
 20
104631.0
 10
116469.0
 20
104631.0
  0
LWPOLYLINE
  5
63
330
17
100
AcDbEntity
  8
COMP_1
370
25
100
AcDbPolyline
 90
5
 70
0
 10
13466.0
 20
18020.0
 10
13466.0
 20
26930.0
 10
18016.0
 20
26930.0
 10
18016.0
 20
18020.0
 10
13466.0
 20
18020.0
  0
TEXT
  5
64
330
17
100
AcDbEntity
  8
COMP_1
100
AcDbText
 10
15591.0
 20
22475.0
 30
0.0
 40
200.0
  1
T110.5-70A    Tower Section 1
 50
90.0
 72
1
 11
15591.0
 21
22475.0
 31
0.0
100
AcDbText
 73
2
  0
TEXT
  5
65
330
17
100
AcDbEntity
  8
COMP_1
100
AcDbText
 10
15741.0
 20
22475.0
 30
0.0
 40
200.0
  1
LxBxH=8.91x4.55x4.64m
 50
90.0
 72
1
 11
15741.0
 21
22475.0
 31
0.0
100
AcDbText
 73
2
  0
TEXT
  5
66
330
17
100
AcDbEntity
  8
COMP_1
100
AcDbText
 10
15891.0
 20
22475.0
 30
0.0
 40
200.0
  1
Weight=72.6t
 50
90.0
 72
1
 11
15891.0
 21
22475.0
 31
0.0
100
AcDbText
 73
2
  0
LWPOLYLINE
  5
67
330
17
100
AcDbEntity
  8
COMP_1
370
25
100
AcDbPolyline
 90
5
 70
0
 10
105780.0
 20
1469.0
 10
105780.0
 20
6019.0
 10
114690.0
 20
6019.0
 10
114690.0
 20
1469.0
 10
105780.0
 20
1469.0
  0
TEXT
  5
68
330
17
100
AcDbEntity
  8
COMP_1
100
AcDbText
 10
110235.0
 20
3894.0
 30
0.0
 40
200.0
  1
T110.5-70A    Tower Section 1
 72
1
 11
110235.0
 21
3894.0
 31
0.0
100
AcDbText
 73
2
  0
TEXT
  5
69
330
17
100
AcDbEntity
  8
COMP_1
100
AcDbText
 10
110235.0
 20
3744.0
 30
0.0
 40
200.0
  1
LxBxH=8.91x4.55x4.64m
 72
1
 11
110235.0
 21
3744.0
 31
0.0
100
AcDbText
 73
2
  0
TEXT
  5
6A
330
17
100
AcDbEntity
  8
COMP_1
100
AcDbText
 10
110235.0
 20
3594.0
 30
0.0
 40
200.0
  1
Weight=72.6t
 72
1
 11
110235.0
 21
3594.0
 31
0.0
100
AcDbText
 73
2
  0
TEXT
  5
6B
330
17
100
AcDbEntity
  8
COMP_1
 62
1
100
AcDbText
 10
114440.0
 20
5769.0
 30
0.0
 40
220.0
  1
TIER=2
 72
1
 11
114440.0
 21
5769.0
 31
0.0
100
AcDbText
 73
2
  0
LWPOLYLINE
  5
6C
330
17
100
AcDbEntity
  8
COMP_1
370
25
100
AcDbPolyline
 90
5
 70
0
 10
105780.0
 20
6119.0
 10
105780.0
 20
10669.0
 10
114690.0
 20
10669.0
 10
114690.0
 20
6119.0
 10
105780.0
 20
6119.0
  0
TEXT
  5
6D
330
17
100
AcDbEntity
  8
COMP_1
100
AcDbText
 10
110235.0
 20
8544.0
 30
0.0
 40
200.0
  1
T110.5-70A    Tower Section 1
 72
1
 11
110235.0
 21
8544.0
 31
0.0
100
AcDbText
 73
2
  0
TEXT
  5
6E
330
17
100
AcDbEntity
  8
COMP_1
100
AcDbText
 10
110235.0
 20
8394.0
 30
0.0
 40
200.0
  1
LxBxH=8.91x4.55x4.64m
 72
1
 11
110235.0
 21
8394.0
 31
0.0
100
AcDbText
 73
2
  0
TEXT
  5
6F
330
17
100
AcDbEntity
  8
COMP_1
100
AcDbText
 10
110235.0
 20
8244.0
 30
0.0
 40
200.0
  1
Weight=72.6t
 72
1
 11
110235.0
 21
8244.0
 31
0.0
100
AcDbText
 73
2
  0
TEXT
  5
70
330
17
100
AcDbEntity
  8
COMP_1
 62
1
100
AcDbText
 10
114440.0
 20
10419.0
 30
0.0
 40
220.0
  1
TIER=2
 72
1
 11
114440.0
 21
10419.0
 31
0.0
100
AcDbText
 73
2
  0
LWPOLYLINE
  5
71
330
17
100
AcDbEntity
  8
COMP_1
370
25
100
AcDbPolyline
 90
5
 70
0
 10
105780.0
 20
20069.0
 10
105780.0
 20
24619.0
 10
114690.0
 20
24619.0
 10
114690.0
 20
20069.0
 10
105780.0
 20
20069.0
  0
TEXT
  5
72
330
17
100
AcDbEntity
  8
COMP_1
100
AcDbText
 10
110235.0
 20
22494.0
 30
0.0
 40
200.0
  1
T110.5-70A    Tower Section 1
 72
1
 11
110235.0
 21
22494.0
 31
0.0
100
AcDbText
 73
2
  0
TEXT
  5
73
330
17
100
AcDbEntity
  8
COMP_1
100
AcDbText
 10
110235.0
 20
22344.0
 30
0.0
 40
200.0
  1
LxBxH=8.91x4.55x4.64m
 72
1
 11
110235.0
 21
22344.0
 31
0.0
100
AcDbText
 73
2
  0
TEXT
  5
74
330
17
100
AcDbEntity
  8
COMP_1
100
AcDbText
 10
110235.0
 20
22194.0
 30
0.0
 40
200.0
  1
Weight=72.6t
 72
1
 11
110235.0
 21
22194.0
 31
0.0
100
AcDbText
 73
2
  0
TEXT
  5
75
330
17
100
AcDbEntity
  8
COMP_1
 62
1
100
AcDbText
 10
114440.0
 20
24369.0
 30
0.0
 40
220.0
  1
TIER=2
 72
1
 11
114440.0
 21
24369.0
 31
0.0
100
AcDbText
 73
2
  0
LWPOLYLINE
  5
76
330
17
100
AcDbEntity
  8
COMP_1
370
25
100
AcDbPolyline
 90
5
 70
0
 10
115190.0
 20
6119.0
 10
115190.0
 20
10669.0
 10
124100.0
 20
10669.0
 10
124100.0
 20
6119.0
 10
115190.0
 20
6119.0
  0
TEXT
  5
77
330
17
100
AcDbEntity
  8
COMP_1
100
AcDbText
 10
119645.0
 20
8544.0
 30
0.0
 40
200.0
  1
T110.5-70A    Tower Section 1
 72
1
 11
119645.0
 21
8544.0
 31
0.0
100
AcDbText
 73
2
  0
TEXT
  5
78
330
17
100
AcDbEntity
  8
COMP_1
100
AcDbText
 10
119645.0
 20
8394.0
 30
0.0
 40
200.0
  1
LxBxH=8.91x4.55x4.64m
 72
1
 11
119645.0
 21
8394.0
 31
0.0
100
AcDbText
 73
2
  0
TEXT
  5
79
330
17
100
AcDbEntity
  8
COMP_1
100
AcDbText
 10
119645.0
 20
8244.0
 30
0.0
 40
200.0
  1
Weight=72.6t
 72
1
 11
119645.0
 21
8244.0
 31
0.0
100
AcDbText
 73
2
  0
TEXT
  5
7A
330
17
100
AcDbEntity
  8
COMP_1
 62
1
100
AcDbText
 10
123850.0
 20
10419.0
 30
0.0
 40
220.0
  1
TIER=2
 72
1
 11
123850.0
 21
10419.0
 31
0.0
100
AcDbText
 73
2
  0
LWPOLYLINE
  5
7B
330
17
100
AcDbEntity
  8
COMP_1
370
25
100
AcDbPolyline
 90
5
 70
0
 10
73880.0
 20
33231.0
 10
73880.0
 20
42141.0
 10
78430.0
 20
42141.0
 10
78430.0
 20
33231.0
 10
73880.0
 20
33231.0
  0
TEXT
  5
7C
330
17
100
AcDbEntity
  8
COMP_1
100
AcDbText
 10
76005.0
 20
37686.0
 30
0.0
 40
200.0
  1
T110.5-70A    Tower Section 1
 50
90.0
 72
1
 11
76005.0
 21
37686.0
 31
0.0
100
AcDbText
 73
2
  0
TEXT
  5
7D
330
17
100
AcDbEntity
  8
COMP_1
100
AcDbText
 10
76155.0
 20
37686.0
 30
0.0
 40
200.0
  1
LxBxH=8.91x4.55x4.64m
 50
90.0
 72
1
 11
76155.0
 21
37686.0
 31
0.0
100
AcDbText
 73
2
  0
TEXT
  5
7E
330
17
100
AcDbEntity
  8
COMP_1
100
AcDbText
 10
76305.0
 20
37686.0
 30
0.0
 40
200.0
  1
Weight=72.6t
 50
90.0
 72
1
 11
76305.0
 21
37686.0
 31
0.0
100
AcDbText
 73
2
  0
LWPOLYLINE
  5
7F
330
17
100
AcDbEntity
  8
COMP_1
370
25
100
AcDbPolyline
 90
5
 70
0
 10
73880.0
 20
42241.0
 10
73880.0
 20
51151.0
 10
78430.0
 20
51151.0
 10
78430.0
 20
42241.0
 10
73880.0
 20
42241.0
  0
TEXT
  5
80
330
17
100
AcDbEntity
  8
COMP_1
100
AcDbText
 10
76005.0
 20
46696.0
 30
0.0
 40
200.0
  1
T110.5-70A    Tower Section 1
 50
90.0
 72
1
 11
76005.0
 21
46696.0
 31
0.0
100
AcDbText
 73
2
  0
TEXT
  5
81
330
17
100
AcDbEntity
  8
COMP_1
100
AcDbText
 10
76155.0
 20
46696.0
 30
0.0
 40
200.0
  1
LxBxH=8.91x4.55x4.64m
 50
90.0
 72
1
 11
76155.0
 21
46696.0
 31
0.0
100
AcDbText
 73
2
  0
TEXT
  5
82
330
17
100
AcDbEntity
  8
COMP_1
100
AcDbText
 10
76305.0
 20
46696.0
 30
0.0
 40
200.0
  1
Weight=72.6t
 50
90.0
 72
1
 11
76305.0
 21
46696.0
 31
0.0
100
AcDbText
 73
2
  0
LWPOLYLINE
  5
83
330
17
100
AcDbEntity
  8
COMP_1
370
25
100
AcDbPolyline
 90
5
 70
0
 10
73880.0
 20
51251.0
 10
73880.0
 20
60161.0
 10
78430.0
 20
60161.0
 10
78430.0
 20
51251.0
 10
73880.0
 20
51251.0
  0
TEXT
  5
84
330
17
100
AcDbEntity
  8
COMP_1
100
AcDbText
 10
76005.0
 20
55706.0
 30
0.0
 40
200.0
  1
T110.5-70A    Tower Section 1
 50
90.0
 72
1
 11
76005.0
 21
55706.0
 31
0.0
100
AcDbText
 73
2
  0
TEXT
  5
85
330
17
100
AcDbEntity
  8
COMP_1
100
AcDbText
 10
76155.0
 20
55706.0
 30
0.0
 40
200.0
  1
LxBxH=8.91x4.55x4.64m
 50
90.0
 72
1
 11
76155.0
 21
55706.0
 31
0.0
100
AcDbText
 73
2
  0
TEXT
  5
86
330
17
100
AcDbEntity
  8
COMP_1
100
AcDbText
 10
76305.0
 20
55706.0
 30
0.0
 40
200.0
  1
Weight=72.6t
 50
90.0
 72
1
 11
76305.0
 21
55706.0
 31
0.0
100
AcDbText
 73
2
  0
LWPOLYLINE
  5
87
330
17
100
AcDbEntity
  8
COMP_1
370
25
100
AcDbPolyline
 90
5
 70
0
 10
59452.0
 20
80332.0
 10
59452.0
 20
84882.0
 10
68362.0
 20
84882.0
 10
68362.0
 20
80332.0
 10
59452.0
 20
80332.0
  0
TEXT
  5
88
330
17
100
AcDbEntity
  8
COMP_1
100
AcDbText
 10
63907.0
 20
82757.0
 30
0.0
 40
200.0
  1
T110.5-70A    Tower Section 1
 72
1
 11
63907.0
 21
82757.0
 31
0.0
100
AcDbText
 73
2
  0
TEXT
  5
89
330
17
100
AcDbEntity
  8
COMP_1
100
AcDbText
 10
63907.0
 20
82607.0
 30
0.0
 40
200.0
  1
LxBxH=8.91x4.55x4.64m
 72
1
 11
63907.0
 21
82607.0
 31
0.0
100
AcDbText
 73
2
  0
TEXT
  5
8A
330
17
100
AcDbEntity
  8
COMP_1
100
AcDbText
 10
63907.0
 20
82457.0
 30
0.0
 40
200.0
  1
Weight=72.6t
 72
1
 11
63907.0
 21
82457.0
 31
0.0
100
AcDbText
 73
2
  0
LWPOLYLINE
  5
8B
330
17
100
AcDbEntity
  8
COMP_1
370
25
100
AcDbPolyline
 90
5
 70
0
 10
59452.0
 20
84982.0
 10
59452.0
 20
89532.0
 10
68362.0
 20
89532.0
 10
68362.0
 20
84982.0
 10
59452.0
 20
84982.0
  0
TEXT
  5
8C
330
17
100
AcDbEntity
  8
COMP_1
100
AcDbText
 10
63907.0
 20
87407.0
 30
0.0
 40
200.0
  1
T110.5-70A    Tower Section 1
 72
1
 11
63907.0
 21
87407.0
 31
0.0
100
AcDbText
 73
2
  0
TEXT
  5
8D
330
17
100
AcDbEntity
  8
COMP_1
100
AcDbText
 10
63907.0
 20
87257.0
 30
0.0
 40
200.0
  1
LxBxH=8.91x4.55x4.64m
 72
1
 11
63907.0
 21
87257.0
 31
0.0
100
AcDbText
 73
2
  0
TEXT
  5
8E
330
17
100
AcDbEntity
  8
COMP_1
100
AcDbText
 10
63907.0
 20
87107.0
 30
0.0
 40
200.0
  1
Weight=72.6t
 72
1
 11
63907.0
 21
87107.0
 31
0.0
100
AcDbText
 73
2
  0
LWPOLYLINE
  5
8F
330
17
100
AcDbEntity
  8
COMP_1
370
25
100
AcDbPolyline
 90
5
 70
0
 10
51980.0
 20
84402.0
 10
51980.0
 20
93312.0
 10
56530.0
 20
93312.0
 10
56530.0
 20
84402.0
 10
51980.0
 20
84402.0
  0
TEXT
  5
90
330
17
100
AcDbEntity
  8
COMP_1
100
AcDbText
 10
54105.0
 20
88857.0
 30
0.0
 40
200.0
  1
T110.5-70A    Tower Section 1
 50
90.0
 72
1
 11
54105.0
 21
88857.0
 31
0.0
100
AcDbText
 73
2
  0
TEXT
  5
91
330
17
100
AcDbEntity
  8
COMP_1
100
AcDbText
 10
54255.0
 20
88857.0
 30
0.0
 40
200.0
  1
LxBxH=8.91x4.55x4.64m
 50
90.0
 72
1
 11
54255.0
 21
88857.0
 31
0.0
100
AcDbText
 73
2
  0
TEXT
  5
92
330
17
100
AcDbEntity
  8
COMP_1
100
AcDbText
 10
54405.0
 20
88857.0
 30
0.0
 40
200.0
  1
Weight=72.6t
 50
90.0
 72
1
 11
54405.0
 21
88857.0
 31
0.0
100
AcDbText
 73
2
  0
LWPOLYLINE
  5
93
330
17
100
AcDbEntity
  8
COMP_1
370
25
100
AcDbPolyline
 90
5
 70
0
 10
77476.0
 20
100161.0
 10
77476.0
 20
104711.0
 10
86386.0
 20
104711.0
 10
86386.0
 20
100161.0
 10
77476.0
 20
100161.0
  0
TEXT
  5
94
330
17
100
AcDbEntity
  8
COMP_1
100
AcDbText
 10
81931.0
 20
102586.0
 30
0.0
 40
200.0
  1
T110.5-70A    Tower Section 1
 72
1
 11
81931.0
 21
102586.0
 31
0.0
100
AcDbText
 73
2
  0
TEXT
  5
95
330
17
100
AcDbEntity
  8
COMP_1
100
AcDbText
 10
81931.0
 20
102436.0
 30
0.0
 40
200.0
  1
LxBxH=8.91x4.55x4.64m
 72
1
 11
81931.0
 21
102436.0
 31
0.0
100
AcDbText
 73
2
  0
TEXT
  5
96
330
17
100
AcDbEntity
  8
COMP_1
100
AcDbText
 10
81931.0
 20
102286.0
 30
0.0
 40
200.0
  1
Weight=72.6t
 72
1
 11
81931.0
 21
102286.0
 31
0.0
100
AcDbText
 73
2
  0
TEXT
  5
97
330
17
100
AcDbEntity
  8
COMP_1
 62
1
100
AcDbText
 10
86136.0
 20
104461.0
 30
0.0
 40
220.0
  1
TIER=2
 72
1
 11
86136.0
 21
104461.0
 31
0.0
100
AcDbText
 73
2
  0
LWPOLYLINE
  5
98
330
17
100
AcDbEntity
  8
COMP_1
370
25
100
AcDbPolyline
 90
5
 70
0
 10
77476.0
 20
104811.0
 10
77476.0
 20
109361.0
 10
86386.0
 20
109361.0
 10
86386.0
 20
104811.0
 10
77476.0
 20
104811.0
  0
TEXT
  5
99
330
17
100
AcDbEntity
  8
COMP_1
100
AcDbText
 10
81931.0
 20
107236.0
 30
0.0
 40
200.0
  1
T110.5-70A    Tower Section 1
 72
1
 11
81931.0
 21
107236.0
 31
0.0
100
AcDbText
 73
2
  0
TEXT
  5
9A
330
17
100
AcDbEntity
  8
COMP_1
100
AcDbText
 10
81931.0
 20
107086.0
 30
0.0
 40
200.0
  1
LxBxH=8.91x4.55x4.64m
 72
1
 11
81931.0
 21
107086.0
 31
0.0
100
AcDbText
 73
2
  0
TEXT
  5
9B
330
17
100
AcDbEntity
  8
COMP_1
100
AcDbText
 10
81931.0
 20
106936.0
 30
0.0
 40
200.0
  1
Weight=72.6t
 72
1
 11
81931.0
 21
106936.0
 31
0.0
100
AcDbText
 73
2
  0
TEXT
  5
9C
330
17
100
AcDbEntity
  8
COMP_1
 62
1
100
AcDbText
 10
86136.0
 20
109111.0
 30
0.0
 40
220.0
  1
TIER=2
 72
1
 11
86136.0
 21
109111.0
 31
0.0
100
AcDbText
 73
2
  0
LWPOLYLINE
  5
9D
330
17
100
AcDbEntity
  8
COMP_1
370
25
100
AcDbPolyline
 90
5
 70
0
 10
77476.0
 20
109461.0
 10
77476.0
 20
114011.0
 10
86386.0
 20
114011.0
 10
86386.0
 20
109461.0
 10
77476.0
 20
109461.0
  0
TEXT
  5
9E
330
17
100
AcDbEntity
  8
COMP_1
100
AcDbText
 10
81931.0
 20
111886.0
 30
0.0
 40
200.0
  1
T110.5-70A    Tower Section 1
 72
1
 11
81931.0
 21
111886.0
 31
0.0
100
AcDbText
 73
2
  0
TEXT
  5
9F
330
17
100
AcDbEntity
  8
COMP_1
100
AcDbText
 10
81931.0
 20
111736.0
 30
0.0
 40
200.0
  1
LxBxH=8.91x4.55x4.64m
 72
1
 11
81931.0
 21
111736.0
 31
0.0
100
AcDbText
 73
2
  0
TEXT
  5
A0
330
17
100
AcDbEntity
  8
COMP_1
100
AcDbText
 10
81931.0
 20
111586.0
 30
0.0
 40
200.0
  1
Weight=72.6t
 72
1
 11
81931.0
 21
111586.0
 31
0.0
100
AcDbText
 73
2
  0
TEXT
  5
A1
330
17
100
AcDbEntity
  8
COMP_1
 62
1
100
AcDbText
 10
86136.0
 20
113761.0
 30
0.0
 40
220.0
  1
TIER=2
 72
1
 11
86136.0
 21
113761.0
 31
0.0
100
AcDbText
 73
2
  0
LWPOLYLINE
  5
A2
330
17
100
AcDbEntity
  8
COMP_1
370
25
100
AcDbPolyline
 90
5
 70
0
 10
77476.0
 20
114111.0
 10
77476.0
 20
118661.0
 10
86386.0
 20
118661.0
 10
86386.0
 20
114111.0
 10
77476.0
 20
114111.0
  0
TEXT
  5
A3
330
17
100
AcDbEntity
  8
COMP_1
100
AcDbText
 10
81931.0
 20
116536.0
 30
0.0
 40
200.0
  1
T110.5-70A    Tower Section 1
 72
1
 11
81931.0
 21
116536.0
 31
0.0
100
AcDbText
 73
2
  0
TEXT
  5
A4
330
17
100
AcDbEntity
  8
COMP_1
100
AcDbText
 10
81931.0
 20
116386.0
 30
0.0
 40
200.0
  1
LxBxH=8.91x4.55x4.64m
 72
1
 11
81931.0
 21
116386.0
 31
0.0
100
AcDbText
 73
2
  0
TEXT
  5
A5
330
17
100
AcDbEntity
  8
COMP_1
100
AcDbText
 10
81931.0
 20
116236.0
 30
0.0
 40
200.0
  1
Weight=72.6t
 72
1
 11
81931.0
 21
116236.0
 31
0.0
100
AcDbText
 73
2
  0
TEXT
  5
A6
330
17
100
AcDbEntity
  8
COMP_1
 62
1
100
AcDbText
 10
86136.0
 20
118411.0
 30
0.0
 40
220.0
  1
TIER=2
 72
1
 11
86136.0
 21
118411.0
 31
0.0
100
AcDbText
 73
2
  0
LWPOLYLINE
  5
A7
330
17
100
AcDbEntity
  8
COMP_1
370
25
100
AcDbPolyline
 90
5
 70
0
 10
77476.0
 20
118761.0
 10
77476.0
 20
123311.0
 10
86386.0
 20
123311.0
 10
86386.0
 20
118761.0
 10
77476.0
 20
118761.0
  0
TEXT
  5
A8
330
17
100
AcDbEntity
  8
COMP_1
100
AcDbText
 10
81931.0
 20
121186.0
 30
0.0
 40
200.0
  1
T110.5-70A    Tower Section 1
 72
1
 11
81931.0
 21
121186.0
 31
0.0
100
AcDbText
 73
2
  0
TEXT
  5
A9
330
17
100
AcDbEntity
  8
COMP_1
100
AcDbText
 10
81931.0
 20
121036.0
 30
0.0
 40
200.0
  1
LxBxH=8.91x4.55x4.64m
 72
1
 11
81931.0
 21
121036.0
 31
0.0
100
AcDbText
 73
2
  0
TEXT
  5
AA
330
17
100
AcDbEntity
  8
COMP_1
100
AcDbText
 10
81931.0
 20
120886.0
 30
0.0
 40
200.0
  1
Weight=72.6t
 72
1
 11
81931.0
 21
120886.0
 31
0.0
100
AcDbText
 73
2
  0
TEXT
  5
AB
330
17
100
AcDbEntity
  8
COMP_1
 62
1
100
AcDbText
 10
86136.0
 20
123061.0
 30
0.0
 40
220.0
  1
TIER=2
 72
1
 11
86136.0
 21
123061.0
 31
0.0
100
AcDbText
 73
2
  0
LWPOLYLINE
  5
AC
330
17
100
AcDbEntity
  8
COMP_1
370
25
100
AcDbPolyline
 90
5
 70
0
 10
77476.0
 20
123411.0
 10
77476.0
 20
127961.0
 10
86386.0
 20
127961.0
 10
86386.0
 20
123411.0
 10
77476.0
 20
123411.0
  0
TEXT
  5
AD
330
17
100
AcDbEntity
  8
COMP_1
100
AcDbText
 10
81931.0
 20
125836.0
 30
0.0
 40
200.0
  1
T110.5-70A    Tower Section 1
 72
1
 11
81931.0
 21
125836.0
 31
0.0
100
AcDbText
 73
2
  0
TEXT
  5
AE
330
17
100
AcDbEntity
  8
COMP_1
100
AcDbText
 10
81931.0
 20
125686.0
 30
0.0
 40
200.0
  1
LxBxH=8.91x4.55x4.64m
 72
1
 11
81931.0
 21
125686.0
 31
0.0
100
AcDbText
 73
2
  0
TEXT
  5
AF
330
17
100
AcDbEntity
  8
COMP_1
100
AcDbText
 10
81931.0
 20
125536.0
 30
0.0
 40
200.0
  1
Weight=72.6t
 72
1
 11
81931.0
 21
125536.0
 31
0.0
100
AcDbText
 73
2
  0
TEXT
  5
B0
330
17
100
AcDbEntity
  8
COMP_1
 62
1
100
AcDbText
 10
86136.0
 20
127711.0
 30
0.0
 40
220.0
  1
TIER=2
 72
1
 11
86136.0
 21
127711.0
 31
0.0
100
AcDbText
 73
2
  0
LWPOLYLINE
  5
B2
330
17
100
AcDbEntity
  8
COMP_2
370
25
100
AcDbPolyline
 90
5
 70
0
 10
0.0
 20
0.0
 10
0.0
 20
4550.0
 10
12770.0
 20
4550.0
 10
12770.0
 20
0.0
 10
0.0
 20
0.0
  0
TEXT
  5
B3
330
17
100
AcDbEntity
  8
COMP_2
100
AcDbText
 10
6385.0
 20
2425.0
 30
0.0
 40
200.0
  1
T110.5-70A    Tower Section 2
 72
1
 11
6385.0
 21
2425.0
 31
0.0
100
AcDbText
 73
2
  0
TEXT
  5
B4
330
17
100
AcDbEntity
  8
COMP_2
100
AcDbText
 10
6385.0
 20
2275.0
 30
0.0
 40
200.0
  1
LxBxH=12.77x4.55x4.64m
 72
1
 11
6385.0
 21
2275.0
 31
0.0
100
AcDbText
 73
2
  0
TEXT
  5
B5
330
17
100
AcDbEntity
  8
COMP_2
100
AcDbText
 10
6385.0
 20
2125.0
 30
0.0
 40
200.0
  1
Weight=67.8t
 72
1
 11
6385.0
 21
2125.0
 31
0.0
100
AcDbText
 73
2
  0
TEXT
  5
B6
330
17
100
AcDbEntity
  8
COMP_2
 62
1
100
AcDbText
 10
12520.0
 20
4300.0
 30
0.0
 40
220.0
  1
TIER=2
 72
1
 11
12520.0
 21
4300.0
 31
0.0
100
AcDbText
 73
2
  0
LWPOLYLINE
  5
B7
330
17
100
AcDbEntity
  8
COMP_2
370
25
100
AcDbPolyline
 90
5
 70
0
 10
0.0
 20
4650.0
 10
0.0
 20
9200.0
 10
12770.0
 20
9200.0
 10
12770.0
 20
4650.0
 10
0.0
 20
4650.0
  0
TEXT
  5
B8
330
17
100
AcDbEntity
  8
COMP_2
100
AcDbText
 10
6385.0
 20
7075.0
 30
0.0
 40
200.0
  1
T110.5-70A    Tower Section 2
 72
1
 11
6385.0
 21
7075.0
 31
0.0
100
AcDbText
 73
2
  0
TEXT
  5
B9
330
17
100
AcDbEntity
  8
COMP_2
100
AcDbText
 10
6385.0
 20
6925.0
 30
0.0
 40
200.0
  1
LxBxH=12.77x4.55x4.64m
 72
1
 11
6385.0
 21
6925.0
 31
0.0
100
AcDbText
 73
2
  0
TEXT
  5
BA
330
17
100
AcDbEntity
  8
COMP_2
100
AcDbText
 10
6385.0
 20
6775.0
 30
0.0
 40
200.0
  1
Weight=67.8t
 72
1
 11
6385.0
 21
6775.0
 31
0.0
100
AcDbText
 73
2
  0
TEXT
  5
BB
330
17
100
AcDbEntity
  8
COMP_2
 62
1
100
AcDbText
 10
12520.0
 20
8950.0
 30
0.0
 40
220.0
  1
TIER=2
 72
1
 11
12520.0
 21
8950.0
 31
0.0
100
AcDbText
 73
2
  0
LWPOLYLINE
  5
BC
330
17
100
AcDbEntity
  8
COMP_2
370
25
100
AcDbPolyline
 90
5
 70
0
 10
0.0
 20
9300.0
 10
0.0
 20
13850.0
 10
12770.0
 20
13850.0
 10
12770.0
 20
9300.0
 10
0.0
 20
9300.0
  0
TEXT
  5
BD
330
17
100
AcDbEntity
  8
COMP_2
100
AcDbText
 10
6385.0
 20
11725.0
 30
0.0
 40
200.0
  1
T110.5-70A    Tower Section 2
 72
1
 11
6385.0
 21
11725.0
 31
0.0
100
AcDbText
 73
2
  0
TEXT
  5
BE
330
17
100
AcDbEntity
  8
COMP_2
100
AcDbText
 10
6385.0
 20
11575.0
 30
0.0
 40
200.0
  1
LxBxH=12.77x4.55x4.64m
 72
1
 11
6385.0
 21
11575.0
 31
0.0
100
AcDbText
 73
2
  0
TEXT
  5
BF
330
17
100
AcDbEntity
  8
COMP_2
100
AcDbText
 10
6385.0
 20
11425.0
 30
0.0
 40
200.0
  1
Weight=67.8t
 72
1
 11
6385.0
 21
11425.0
 31
0.0
100
AcDbText
 73
2
  0
TEXT
  5
C0
330
17
100
AcDbEntity
  8
COMP_2
 62
1
100
AcDbText
 10
12520.0
 20
13600.0
 30
0.0
 40
220.0
  1
TIER=2
 72
1
 11
12520.0
 21
13600.0
 31
0.0
100
AcDbText
 73
2
  0
LWPOLYLINE
  5
C1
330
17
100
AcDbEntity
  8
COMP_2
370
25
100
AcDbPolyline
 90
5
 70
0
 10
0.0
 20
13950.0
 10
0.0
 20
18500.0
 10
12770.0
 20
18500.0
 10
12770.0
 20
13950.0
 10
0.0
 20
13950.0
  0
TEXT
  5
C2
330
17
100
AcDbEntity
  8
COMP_2
100
AcDbText
 10
6385.0
 20
16375.0
 30
0.0
 40
200.0
  1
T110.5-70A    Tower Section 2
 72
1
 11
6385.0
 21
16375.0
 31
0.0
100
AcDbText
 73
2
  0
TEXT
  5
C3
330
17
100
AcDbEntity
  8
COMP_2
100
AcDbText
 10
6385.0
 20
16225.0
 30
0.0
 40
200.0
  1
LxBxH=12.77x4.55x4.64m
 72
1
 11
6385.0
 21
16225.0
 31
0.0
100
AcDbText
 73
2
  0
TEXT
  5
C4
330
17
100
AcDbEntity
  8
COMP_2
100
AcDbText
 10
6385.0
 20
16075.0
 30
0.0
 40
200.0
  1
Weight=67.8t
 72
1
 11
6385.0
 21
16075.0
 31
0.0
100
AcDbText
 73
2
  0
TEXT
  5
C5
330
17
100
AcDbEntity
  8
COMP_2
 62
1
100
AcDbText
 10
12520.0
 20
18250.0
 30
0.0
 40
220.0
  1
TIER=2
 72
1
 11
12520.0
 21
18250.0
 31
0.0
100
AcDbText
 73
2
  0
LWPOLYLINE
  5
C6
330
17
100
AcDbEntity
  8
COMP_2
370
25
100
AcDbPolyline
 90
5
 70
0
 10
0.0
 20
20925.0
 10
0.0
 20
25475.0
 10
12770.0
 20
25475.0
 10
12770.0
 20
20925.0
 10
0.0
 20
20925.0
  0
TEXT
  5
C7
330
17
100
AcDbEntity
  8
COMP_2
100
AcDbText
 10
6385.0
 20
23350.0
 30
0.0
 40
200.0
  1
T110.5-70A    Tower Section 2
 72
1
 11
6385.0
 21
23350.0
 31
0.0
100
AcDbText
 73
2
  0
TEXT
  5
C8
330
17
100
AcDbEntity
  8
COMP_2
100
AcDbText
 10
6385.0
 20
23200.0
 30
0.0
 40
200.0
  1
LxBxH=12.77x4.55x4.64m
 72
1
 11
6385.0
 21
23200.0
 31
0.0
100
AcDbText
 73
2
  0
TEXT
  5
C9
330
17
100
AcDbEntity
  8
COMP_2
100
AcDbText
 10
6385.0
 20
23050.0
 30
0.0
 40
200.0
  1
Weight=67.8t
 72
1
 11
6385.0
 21
23050.0
 31
0.0
100
AcDbText
 73
2
  0
TEXT
  5
CA
330
17
100
AcDbEntity
  8
COMP_2
 62
1
100
AcDbText
 10
12520.0
 20
25225.0
 30
0.0
 40
220.0
  1
TIER=2
 72
1
 11
12520.0
 21
25225.0
 31
0.0
100
AcDbText
 73
2
  0
LWPOLYLINE
  5
CB
330
17
100
AcDbEntity
  8
COMP_2
370
25
100
AcDbPolyline
 90
5
 70
0
 10
31977.0
 20
16275.0
 10
31977.0
 20
20825.0
 10
44747.0
 20
20825.0
 10
44747.0
 20
16275.0
 10
31977.0
 20
16275.0
  0
TEXT
  5
CC
330
17
100
AcDbEntity
  8
COMP_2
100
AcDbText
 10
38362.0
 20
18700.0
 30
0.0
 40
200.0
  1
T110.5-70A    Tower Section 2
 72
1
 11
38362.0
 21
18700.0
 31
0.0
100
AcDbText
 73
2
  0
TEXT
  5
CD
330
17
100
AcDbEntity
  8
COMP_2
100
AcDbText
 10
38362.0
 20
18550.0
 30
0.0
 40
200.0
  1
LxBxH=12.77x4.55x4.64m
 72
1
 11
38362.0
 21
18550.0
 31
0.0
100
AcDbText
 73
2
  0
TEXT
  5
CE
330
17
100
AcDbEntity
  8
COMP_2
100
AcDbText
 10
38362.0
 20
18400.0
 30
0.0
 40
200.0
  1
Weight=67.8t
 72
1
 11
38362.0
 21
18400.0
 31
0.0
100
AcDbText
 73
2
  0
TEXT
  5
CF
330
17
100
AcDbEntity
  8
COMP_2
 62
1
100
AcDbText
 10
44497.0
 20
20575.0
 30
0.0
 40
220.0
  1
TIER=2
 72
1
 11
44497.0
 21
20575.0
 31
0.0
100
AcDbText
 73
2
  0
LWPOLYLINE
  5
D0
330
17
100
AcDbEntity
  8
COMP_2
370
25
100
AcDbPolyline
 90
5
 70
0
 10
31977.0
 20
20925.0
 10
31977.0
 20
25475.0
 10
44747.0
 20
25475.0
 10
44747.0
 20
20925.0
 10
31977.0
 20
20925.0
  0
TEXT
  5
D1
330
17
100
AcDbEntity
  8
COMP_2
100
AcDbText
 10
38362.0
 20
23350.0
 30
0.0
 40
200.0
  1
T110.5-70A    Tower Section 2
 72
1
 11
38362.0
 21
23350.0
 31
0.0
100
AcDbText
 73
2
  0
TEXT
  5
D2
330
17
100
AcDbEntity
  8
COMP_2
100
AcDbText
 10
38362.0
 20
23200.0
 30
0.0
 40
200.0
  1
LxBxH=12.77x4.55x4.64m
 72
1
 11
38362.0
 21
23200.0
 31
0.0
100
AcDbText
 73
2
  0
TEXT
  5
D3
330
17
100
AcDbEntity
  8
COMP_2
100
AcDbText
 10
38362.0
 20
23050.0
 30
0.0
 40
200.0
  1
Weight=67.8t
 72
1
 11
38362.0
 21
23050.0
 31
0.0
100
AcDbText
 73
2
  0
TEXT
  5
D4
330
17
100
AcDbEntity
  8
COMP_2
 62
1
100
AcDbText
 10
44497.0
 20
25225.0
 30
0.0
 40
220.0
  1
TIER=2
 72
1
 11
44497.0
 21
25225.0
 31
0.0
100
AcDbText
 73
2
  0
LWPOLYLINE
  5
D5
330
17
100
AcDbEntity
  8
COMP_2
370
25
100
AcDbPolyline
 90
5
 70
0
 10
45247.0
 20
16275.0
 10
45247.0
 20
20825.0
 10
58017.0
 20
20825.0
 10
58017.0
 20
16275.0
 10
45247.0
 20
16275.0
  0
TEXT
  5
D6
330
17
100
AcDbEntity
  8
COMP_2
100
AcDbText
 10
51632.0
 20
18700.0
 30
0.0
 40
200.0
  1
T110.5-70A    Tower Section 2
 72
1
 11
51632.0
 21
18700.0
 31
0.0
100
AcDbText
 73
2
  0
TEXT
  5
D7
330
17
100
AcDbEntity
  8
COMP_2
100
AcDbText
 10
51632.0
 20
18550.0
 30
0.0
 40
200.0
  1
LxBxH=12.77x4.55x4.64m
 72
1
 11
51632.0
 21
18550.0
 31
0.0
100
AcDbText
 73
2
  0
TEXT
  5
D8
330
17
100
AcDbEntity
  8
COMP_2
100
AcDbText
 10
51632.0
 20
18400.0
 30
0.0
 40
200.0
  1
Weight=67.8t
 72
1
 11
51632.0
 21
18400.0
 31
0.0
100
AcDbText
 73
2
  0
TEXT
  5
D9
330
17
100
AcDbEntity
  8
COMP_2
 62
1
100
AcDbText
 10
57767.0
 20
20575.0
 30
0.0
 40
220.0
  1
TIER=2
 72
1
 11
57767.0
 21
20575.0
 31
0.0
100
AcDbText
 73
2
  0
LWPOLYLINE
  5
DA
330
17
100
AcDbEntity
  8
COMP_2
370
25
100
AcDbPolyline
 90
5
 70
0
 10
45247.0
 20
20925.0
 10
45247.0
 20
25475.0
 10
58017.0
 20
25475.0
 10
58017.0
 20
20925.0
 10
45247.0
 20
20925.0
  0
TEXT
  5
DB
330
17
100
AcDbEntity
  8
COMP_2
100
AcDbText
 10
51632.0
 20
23350.0
 30
0.0
 40
200.0
  1
T110.5-70A    Tower Section 2
 72
1
 11
51632.0
 21
23350.0
 31
0.0
100
AcDbText
 73
2
  0
TEXT
  5
DC
330
17
100
AcDbEntity
  8
COMP_2
100
AcDbText
 10
51632.0
 20
23200.0
 30
0.0
 40
200.0
  1
LxBxH=12.77x4.55x4.64m
 72
1
 11
51632.0
 21
23200.0
 31
0.0
100
AcDbText
 73
2
  0
TEXT
  5
DD
330
17
100
AcDbEntity
  8
COMP_2
100
AcDbText
 10
51632.0
 20
23050.0
 30
0.0
 40
200.0
  1
Weight=67.8t
 72
1
 11
51632.0
 21
23050.0
 31
0.0
100
AcDbText
 73
2
  0
TEXT
  5
DE
330
17
100
AcDbEntity
  8
COMP_2
 62
1
100
AcDbText
 10
57767.0
 20
25225.0
 30
0.0
 40
220.0
  1
TIER=2
 72
1
 11
57767.0
 21
25225.0
 31
0.0
100
AcDbText
 73
2
  0
LWPOLYLINE
  5
DF
330
17
100
AcDbEntity
  8
COMP_2
370
25
100
AcDbPolyline
 90
5
 70
0
 10
58517.0
 20
16275.0
 10
58517.0
 20
20825.0
 10
71287.0
 20
20825.0
 10
71287.0
 20
16275.0
 10
58517.0
 20
16275.0
  0
TEXT
  5
E0
330
17
100
AcDbEntity
  8
COMP_2
100
AcDbText
 10
64902.0
 20
18700.0
 30
0.0
 40
200.0
  1
T110.5-70A    Tower Section 2
 72
1
 11
64902.0
 21
18700.0
 31
0.0
100
AcDbText
 73
2
  0
TEXT
  5
E1
330
17
100
AcDbEntity
  8
COMP_2
100
AcDbText
 10
64902.0
 20
18550.0
 30
0.0
 40
200.0
  1
LxBxH=12.77x4.55x4.64m
 72
1
 11
64902.0
 21
18550.0
 31
0.0
100
AcDbText
 73
2
  0
TEXT
  5
E2
330
17
100
AcDbEntity
  8
COMP_2
100
AcDbText
 10
64902.0
 20
18400.0
 30
0.0
 40
200.0
  1
Weight=67.8t
 72
1
 11
64902.0
 21
18400.0
 31
0.0
100
AcDbText
 73
2
  0
LWPOLYLINE
  5
E3
330
17
100
AcDbEntity
  8
COMP_2
370
25
100
AcDbPolyline
 90
5
 70
0
 10
58517.0
 20
20925.0
 10
58517.0
 20
25475.0
 10
71287.0
 20
25475.0
 10
71287.0
 20
20925.0
 10
58517.0
 20
20925.0
  0
TEXT
  5
E4
330
17
100
AcDbEntity
  8
COMP_2
100
AcDbText
 10
64902.0
 20
23350.0
 30
0.0
 40
200.0
  1
T110.5-70A    Tower Section 2
 72
1
 11
64902.0
 21
23350.0
 31
0.0
100
AcDbText
 73
2
  0
TEXT
  5
E5
330
17
100
AcDbEntity
  8
COMP_2
100
AcDbText
 10
64902.0
 20
23200.0
 30
0.0
 40
200.0
  1
LxBxH=12.77x4.55x4.64m
 72
1
 11
64902.0
 21
23200.0
 31
0.0
100
AcDbText
 73
2
  0
TEXT
  5
E6
330
17
100
AcDbEntity
  8
COMP_2
100
AcDbText
 10
64902.0
 20
23050.0
 30
0.0
 40
200.0
  1
Weight=67.8t
 72
1
 11
64902.0
 21
23050.0
 31
0.0
100
AcDbText
 73
2
  0
LWPOLYLINE
  5
E7
330
17
100
AcDbEntity
  8
COMP_2
370
25
100
AcDbPolyline
 90
5
 70
0
 10
73797.0
 20
0.0
 10
73797.0
 20
4550.0
 10
86567.0
 20
4550.0
 10
86567.0
 20
0.0
 10
73797.0
 20
0.0
  0
TEXT
  5
E8
330
17
100
AcDbEntity
  8
COMP_2
100
AcDbText
 10
80182.0
 20
2425.0
 30
0.0
 40
200.0
  1
T110.5-70A    Tower Section 2
 72
1
 11
80182.0
 21
2425.0
 31
0.0
100
AcDbText
 73
2
  0
TEXT
  5
E9
330
17
100
AcDbEntity
  8
COMP_2
100
AcDbText
 10
80182.0
 20
2275.0
 30
0.0
 40
200.0
  1
LxBxH=12.77x4.55x4.64m
 72
1
 11
80182.0
 21
2275.0
 31
0.0
100
AcDbText
 73
2
  0
TEXT
  5
EA
330
17
100
AcDbEntity
  8
COMP_2
100
AcDbText
 10
80182.0
 20
2125.0
 30
0.0
 40
200.0
  1
Weight=67.8t
 72
1
 11
80182.0
 21
2125.0
 31
0.0
100
AcDbText
 73
2
  0
LWPOLYLINE
  5
EB
330
17
100
AcDbEntity
  8
COMP_2
370
25
100
AcDbPolyline
 90
5
 70
0
 10
73797.0
 20
4650.0
 10
73797.0
 20
9200.0
 10
86567.0
 20
9200.0
 10
86567.0
 20
4650.0
 10
73797.0
 20
4650.0
  0
TEXT
  5
EC
330
17
100
AcDbEntity
  8
COMP_2
100
AcDbText
 10
80182.0
 20
7075.0
 30
0.0
 40
200.0
  1
T110.5-70A    Tower Section 2
 72
1
 11
80182.0
 21
7075.0
 31
0.0
100
AcDbText
 73
2
  0
TEXT
  5
ED
330
17
100
AcDbEntity
  8
COMP_2
100
AcDbText
 10
80182.0
 20
6925.0
 30
0.0
 40
200.0
  1
LxBxH=12.77x4.55x4.64m
 72
1
 11
80182.0
 21
6925.0
 31
0.0
100
AcDbText
 73
2
  0
TEXT
  5
EE
330
17
100
AcDbEntity
  8
COMP_2
100
AcDbText
 10
80182.0
 20
6775.0
 30
0.0
 40
200.0
  1
Weight=67.8t
 72
1
 11
80182.0
 21
6775.0
 31
0.0
100
AcDbText
 73
2
  0
LWPOLYLINE
  5
EF
330
17
100
AcDbEntity
  8
COMP_2
370
25
100
AcDbPolyline
 90
5
 70
0
 10
73797.0
 20
9300.0
 10
73797.0
 20
13850.0
 10
86567.0
 20
13850.0
 10
86567.0
 20
9300.0
 10
73797.0
 20
9300.0
  0
TEXT
  5
F0
330
17
100
AcDbEntity
  8
COMP_2
100
AcDbText
 10
80182.0
 20
11725.0
 30
0.0
 40
200.0
  1
T110.5-70A    Tower Section 2
 72
1
 11
80182.0
 21
11725.0
 31
0.0
100
AcDbText
 73
2
  0
TEXT
  5
F1
330
17
100
AcDbEntity
  8
COMP_2
100
AcDbText
 10
80182.0
 20
11575.0
 30
0.0
 40
200.0
  1
LxBxH=12.77x4.55x4.64m
 72
1
 11
80182.0
 21
11575.0
 31
0.0
100
AcDbText
 73
2
  0
TEXT
  5
F2
330
17
100
AcDbEntity
  8
COMP_2
100
AcDbText
 10
80182.0
 20
11425.0
 30
0.0
 40
200.0
  1
Weight=67.8t
 72
1
 11
80182.0
 21
11425.0
 31
0.0
100
AcDbText
 73
2
  0
LWPOLYLINE
  5
F3
330
17
100
AcDbEntity
  8
COMP_2
370
25
100
AcDbPolyline
 90
5
 70
0
 10
73797.0
 20
16275.0
 10
73797.0
 20
20825.0
 10
86567.0
 20
20825.0
 10
86567.0
 20
16275.0
 10
73797.0
 20
16275.0
  0
TEXT
  5
F4
330
17
100
AcDbEntity
  8
COMP_2
100
AcDbText
 10
80182.0
 20
18700.0
 30
0.0
 40
200.0
  1
T110.5-70A    Tower Section 2
 72
1
 11
80182.0
 21
18700.0
 31
0.0
100
AcDbText
 73
2
  0
TEXT
  5
F5
330
17
100
AcDbEntity
  8
COMP_2
100
AcDbText
 10
80182.0
 20
18550.0
 30
0.0
 40
200.0
  1
LxBxH=12.77x4.55x4.64m
 72
1
 11
80182.0
 21
18550.0
 31
0.0
100
AcDbText
 73
2
  0
TEXT
  5
F6
330
17
100
AcDbEntity
  8
COMP_2
100
AcDbText
 10
80182.0
 20
18400.0
 30
0.0
 40
200.0
  1
Weight=67.8t
 72
1
 11
80182.0
 21
18400.0
 31
0.0
100
AcDbText
 73
2
  0
LWPOLYLINE
  5
F7
330
17
100
AcDbEntity
  8
COMP_2
370
25
100
AcDbPolyline
 90
5
 70
0
 10
73797.0
 20
20925.0
 10
73797.0
 20
25475.0
 10
86567.0
 20
25475.0
 10
86567.0
 20
20925.0
 10
73797.0
 20
20925.0
  0
TEXT
  5
F8
330
17
100
AcDbEntity
  8
COMP_2
100
AcDbText
 10
80182.0
 20
23350.0
 30
0.0
 40
200.0
  1
T110.5-70A    Tower Section 2
 72
1
 11
80182.0
 21
23350.0
 31
0.0
100
AcDbText
 73
2
  0
TEXT
  5
F9
330
17
100
AcDbEntity
  8
COMP_2
100
AcDbText
 10
80182.0
 20
23200.0
 30
0.0
 40
200.0
  1
LxBxH=12.77x4.55x4.64m
 72
1
 11
80182.0
 21
23200.0
 31
0.0
100
AcDbText
 73
2
  0
TEXT
  5
FA
330
17
100
AcDbEntity
  8
COMP_2
100
AcDbText
 10
80182.0
 20
23050.0
 30
0.0
 40
200.0
  1
Weight=67.8t
 72
1
 11
80182.0
 21
23050.0
 31
0.0
100
AcDbText
 73
2
  0
LWPOLYLINE
  5
FB
330
17
100
AcDbEntity
  8
COMP_2
370
25
100
AcDbPolyline
 90
5
 70
0
 10
56532.0
 20
71032.0
 10
56532.0
 20
75582.0
 10
69302.0
 20
75582.0
 10
69302.0
 20
71032.0
 10
56532.0
 20
71032.0
  0
TEXT
  5
FC
330
17
100
AcDbEntity
  8
COMP_2
100
AcDbText
 10
62917.0
 20
73457.0
 30
0.0
 40
200.0
  1
T110.5-70A    Tower Section 2
 72
1
 11
62917.0
 21
73457.0
 31
0.0
100
AcDbText
 73
2
  0
TEXT
  5
FD
330
17
100
AcDbEntity
  8
COMP_2
100
AcDbText
 10
62917.0
 20
73307.0
 30
0.0
 40
200.0
  1
LxBxH=12.77x4.55x4.64m
 72
1
 11
62917.0
 21
73307.0
 31
0.0
100
AcDbText
 73
2
  0
TEXT
  5
FE
330
17
100
AcDbEntity
  8
COMP_2
100
AcDbText
 10
62917.0
 20
73157.0
 30
0.0
 40
200.0
  1
Weight=67.8t
 72
1
 11
62917.0
 21
73157.0
 31
0.0
100
AcDbText
 73
2
  0
LWPOLYLINE
  5
FF
330
17
100
AcDbEntity
  8
COMP_2
370
25
100
AcDbPolyline
 90
5
 70
0
 10
118926.0
 20
111481.0
 10
118926.0
 20
124251.0
 10
123476.0
 20
124251.0
 10
123476.0
 20
111481.0
 10
118926.0
 20
111481.0
  0
TEXT
  5
100
330
17
100
AcDbEntity
  8
COMP_2
100
AcDbText
 10
121051.0
 20
117866.0
 30
0.0
 40
200.0
  1
T110.5-70A    Tower Section 2
 50
90.0
 72
1
 11
121051.0
 21
117866.0
 31
0.0
100
AcDbText
 73
2
  0
TEXT
  5
101
330
17
100
AcDbEntity
  8
COMP_2
100
AcDbText
 10
121201.0
 20
117866.0
 30
0.0
 40
200.0
  1
LxBxH=12.77x4.55x4.64m
 50
90.0
 72
1
 11
121201.0
 21
117866.0
 31
0.0
100
AcDbText
 73
2
  0
TEXT
  5
102
330
17
100
AcDbEntity
  8
COMP_2
100
AcDbText
 10
121351.0
 20
117866.0
 30
0.0
 40
200.0
  1
Weight=67.8t
 50
90.0
 72
1
 11
121351.0
 21
117866.0
 31
0.0
100
AcDbText
 73
2
  0
LWPOLYLINE
  5
104
330
17
100
AcDbEntity
  8
COMP_3
370
25
100
AcDbPolyline
 90
5
 70
0
 10
13466.0
 20
0.0
 10
13466.0
 20
16130.0
 10
18016.0
 20
16130.0
 10
18016.0
 20
0.0
 10
13466.0
 20
0.0
  0
TEXT
  5
105
330
17
100
AcDbEntity
  8
COMP_3
100
AcDbText
 10
15591.0
 20
8065.0
 30
0.0
 40
200.0
  1
T110.5-70A    Tower Section 3
 50
90.0
 72
1
 11
15591.0
 21
8065.0
 31
0.0
100
AcDbText
 73
2
  0
TEXT
  5
106
330
17
100
AcDbEntity
  8
COMP_3
100
AcDbText
 10
15741.0
 20
8065.0
 30
0.0
 40
200.0
  1
LxBxH=16.13x4.55x4.64m
 50
90.0
 72
1
 11
15741.0
 21
8065.0
 31
0.0
100
AcDbText
 73
2
  0
TEXT
  5
107
330
17
100
AcDbEntity
  8
COMP_3
100
AcDbText
 10
15891.0
 20
8065.0
 30
0.0
 40
200.0
  1
Weight=68t
 50
90.0
 72
1
 11
15891.0
 21
8065.0
 31
0.0
100
AcDbText
 73
2
  0
LWPOLYLINE
  5
108
330
17
100
AcDbEntity
  8
COMP_3
370
25
100
AcDbPolyline
 90
5
 70
0
 10
31977.0
 20
0.0
 10
31977.0
 20
4550.0
 10
48107.0
 20
4550.0
 10
48107.0
 20
0.0
 10
31977.0
 20
0.0
  0
TEXT
  5
109
330
17
100
AcDbEntity
  8
COMP_3
100
AcDbText
 10
40042.0
 20
2425.0
 30
0.0
 40
200.0
  1
T110.5-70A    Tower Section 3
 72
1
 11
40042.0
 21
2425.0
 31
0.0
100
AcDbText
 73
2
  0
TEXT
  5
10A
330
17
100
AcDbEntity
  8
COMP_3
100
AcDbText
 10
40042.0
 20
2275.0
 30
0.0
 40
200.0
  1
LxBxH=16.13x4.55x4.64m
 72
1
 11
40042.0
 21
2275.0
 31
0.0
100
AcDbText
 73
2
  0
TEXT
  5
10B
330
17
100
AcDbEntity
  8
COMP_3
100
AcDbText
 10
40042.0
 20
2125.0
 30
0.0
 40
200.0
  1
Weight=68t
 72
1
 11
40042.0
 21
2125.0
 31
0.0
100
AcDbText
 73
2
  0
TEXT
  5
10C
330
17
100
AcDbEntity
  8
COMP_3
 62
1
100
AcDbText
 10
47857.0
 20
4300.0
 30
0.0
 40
220.0
  1
TIER=2
 72
1
 11
47857.0
 21
4300.0
 31
0.0
100
AcDbText
 73
2
  0
LWPOLYLINE
  5
10D
330
17
100
AcDbEntity
  8
COMP_3
370
25
100
AcDbPolyline
 90
5
 70
0
 10
48607.0
 20
0.0
 10
48607.0
 20
4550.0
 10
64737.0
 20
4550.0
 10
64737.0
 20
0.0
 10
48607.0
 20
0.0
  0
TEXT
  5
10E
330
17
100
AcDbEntity
  8
COMP_3
100
AcDbText
 10
56672.0
 20
2425.0
 30
0.0
 40
200.0
  1
T110.5-70A    Tower Section 3
 72
1
 11
56672.0
 21
2425.0
 31
0.0
100
AcDbText
 73
2
  0
TEXT
  5
10F
330
17
100
AcDbEntity
  8
COMP_3
100
AcDbText
 10
56672.0
 20
2275.0
 30
0.0
 40
200.0
  1
LxBxH=16.13x4.55x4.64m
 72
1
 11
56672.0
 21
2275.0
 31
0.0
100
AcDbText
 73
2
  0
TEXT
  5
110
330
17
100
AcDbEntity
  8
COMP_3
100
AcDbText
 10
56672.0
 20
2125.0
 30
0.0
 40
200.0
  1
Weight=68t
 72
1
 11
56672.0
 21
2125.0
 31
0.0
100
AcDbText
 73
2
  0
TEXT
  5
111
330
17
100
AcDbEntity
  8
COMP_3
 62
1
100
AcDbText
 10
64487.0
 20
4300.0
 30
0.0
 40
220.0
  1
TIER=2
 72
1
 11
64487.0
 21
4300.0
 31
0.0
100
AcDbText
 73
2
  0
LWPOLYLINE
  5
112
330
17
100
AcDbEntity
  8
COMP_3
370
25
100
AcDbPolyline
 90
5
 70
0
 10
31977.0
 20
6975.0
 10
31977.0
 20
11525.0
 10
48107.0
 20
11525.0
 10
48107.0
 20
6975.0
 10
31977.0
 20
6975.0
  0
TEXT
  5
113
330
17
100
AcDbEntity
  8
COMP_3
100
AcDbText
 10
40042.0
 20
9400.0
 30
0.0
 40
200.0
  1
T110.5-70A    Tower Section 3
 72
1
 11
40042.0
 21
9400.0
 31
0.0
100
AcDbText
 73
2
  0
TEXT
  5
114
330
17
100
AcDbEntity
  8
COMP_3
100
AcDbText
 10
40042.0
 20
9250.0
 30
0.0
 40
200.0
  1
LxBxH=16.13x4.55x4.64m
 72
1
 11
40042.0
 21
9250.0
 31
0.0
100
AcDbText
 73
2
  0
TEXT
  5
115
330
17
100
AcDbEntity
  8
COMP_3
100
AcDbText
 10
40042.0
 20
9100.0
 30
0.0
 40
200.0
  1
Weight=68t
 72
1
 11
40042.0
 21
9100.0
 31
0.0
100
AcDbText
 73
2
  0
TEXT
  5
116
330
17
100
AcDbEntity
  8
COMP_3
 62
1
100
AcDbText
 10
47857.0
 20
11275.0
 30
0.0
 40
220.0
  1
TIER=2
 72
1
 11
47857.0
 21
11275.0
 31
0.0
100
AcDbText
 73
2
  0
LWPOLYLINE
  5
117
330
17
100
AcDbEntity
  8
COMP_3
370
25
100
AcDbPolyline
 90
5
 70
0
 10
31977.0
 20
11625.0
 10
31977.0
 20
16175.0
 10
48107.0
 20
16175.0
 10
48107.0
 20
11625.0
 10
31977.0
 20
11625.0
  0
TEXT
  5
118
330
17
100
AcDbEntity
  8
COMP_3
100
AcDbText
 10
40042.0
 20
14050.0
 30
0.0
 40
200.0
  1
T110.5-70A    Tower Section 3
 72
1
 11
40042.0
 21
14050.0
 31
0.0
100
AcDbText
 73
2
  0
TEXT
  5
119
330
17
100
AcDbEntity
  8
COMP_3
100
AcDbText
 10
40042.0
 20
13900.0
 30
0.0
 40
200.0
  1
LxBxH=16.13x4.55x4.64m
 72
1
 11
40042.0
 21
13900.0
 31
0.0
100
AcDbText
 73
2
  0
TEXT
  5
11A
330
17
100
AcDbEntity
  8
COMP_3
100
AcDbText
 10
40042.0
 20
13750.0
 30
0.0
 40
200.0
  1
Weight=68t
 72
1
 11
40042.0
 21
13750.0
 31
0.0
100
AcDbText
 73
2
  0
TEXT
  5
11B
330
17
100
AcDbEntity
  8
COMP_3
 62
1
100
AcDbText
 10
47857.0
 20
15925.0
 30
0.0
 40
220.0
  1
TIER=2
 72
1
 11
47857.0
 21
15925.0
 31
0.0
100
AcDbText
 73
2
  0
LWPOLYLINE
  5
11C
330
17
100
AcDbEntity
  8
COMP_3
370
25
100
AcDbPolyline
 90
5
 70
0
 10
48607.0
 20
6975.0
 10
48607.0
 20
11525.0
 10
64737.0
 20
11525.0
 10
64737.0
 20
6975.0
 10
48607.0
 20
6975.0
  0
TEXT
  5
11D
330
17
100
AcDbEntity
  8
COMP_3
100
AcDbText
 10
56672.0
 20
9400.0
 30
0.0
 40
200.0
  1
T110.5-70A    Tower Section 3
 72
1
 11
56672.0
 21
9400.0
 31
0.0
100
AcDbText
 73
2
  0
TEXT
  5
11E
330
17
100
AcDbEntity
  8
COMP_3
100
AcDbText
 10
56672.0
 20
9250.0
 30
0.0
 40
200.0
  1
LxBxH=16.13x4.55x4.64m
 72
1
 11
56672.0
 21
9250.0
 31
0.0
100
AcDbText
 73
2
  0
TEXT
  5
11F
330
17
100
AcDbEntity
  8
COMP_3
100
AcDbText
 10
56672.0
 20
9100.0
 30
0.0
 40
200.0
  1
Weight=68t
 72
1
 11
56672.0
 21
9100.0
 31
0.0
100
AcDbText
 73
2
  0
TEXT
  5
120
330
17
100
AcDbEntity
  8
COMP_3
 62
1
100
AcDbText
 10
64487.0
 20
11275.0
 30
0.0
 40
220.0
  1
TIER=2
 72
1
 11
64487.0
 21
11275.0
 31
0.0
100
AcDbText
 73
2
  0
LWPOLYLINE
  5
121
330
17
100
AcDbEntity
  8
COMP_3
370
25
100
AcDbPolyline
 90
5
 70
0
 10
48607.0
 20
11625.0
 10
48607.0
 20
16175.0
 10
64737.0
 20
16175.0
 10
64737.0
 20
11625.0
 10
48607.0
 20
11625.0
  0
TEXT
  5
122
330
17
100
AcDbEntity
  8
COMP_3
100
AcDbText
 10
56672.0
 20
14050.0
 30
0.0
 40
200.0
  1
T110.5-70A    Tower Section 3
 72
1
 11
56672.0
 21
14050.0
 31
0.0
100
AcDbText
 73
2
  0
TEXT
  5
123
330
17
100
AcDbEntity
  8
COMP_3
100
AcDbText
 10
56672.0
 20
13900.0
 30
0.0
 40
200.0
  1
LxBxH=16.13x4.55x4.64m
 72
1
 11
56672.0
 21
13900.0
 31
0.0
100
AcDbText
 73
2
  0
TEXT
  5
124
330
17
100
AcDbEntity
  8
COMP_3
100
AcDbText
 10
56672.0
 20
13750.0
 30
0.0
 40
200.0
  1
Weight=68t
 72
1
 11
56672.0
 21
13750.0
 31
0.0
100
AcDbText
 73
2
  0
TEXT
  5
125
330
17
100
AcDbEntity
  8
COMP_3
 62
1
100
AcDbText
 10
64487.0
 20
15925.0
 30
0.0
 40
220.0
  1
TIER=2
 72
1
 11
64487.0
 21
15925.0
 31
0.0
100
AcDbText
 73
2
  0
LWPOLYLINE
  5
126
330
17
100
AcDbEntity
  8
COMP_3
370
25
100
AcDbPolyline
 90
5
 70
0
 10
65643.0
 20
0.0
 10
65643.0
 20
16130.0
 10
70193.0
 20
16130.0
 10
70193.0
 20
0.0
 10
65643.0
 20
0.0
  0
TEXT
  5
127
330
17
100
AcDbEntity
  8
COMP_3
100
AcDbText
 10
67768.0
 20
8065.0
 30
0.0
 40
200.0
  1
T110.5-70A    Tower Section 3
 50
90.0
 72
1
 11
67768.0
 21
8065.0
 31
0.0
100
AcDbText
 73
2
  0
TEXT
  5
128
330
17
100
AcDbEntity
  8
COMP_3
100
AcDbText
 10
67918.0
 20
8065.0
 30
0.0
 40
200.0
  1
LxBxH=16.13x4.55x4.64m
 50
90.0
 72
1
 11
67918.0
 21
8065.0
 31
0.0
100
AcDbText
 73
2
  0
TEXT
  5
129
330
17
100
AcDbEntity
  8
COMP_3
100
AcDbText
 10
68068.0
 20
8065.0
 30
0.0
 40
200.0
  1
Weight=68t
 50
90.0
 72
1
 11
68068.0
 21
8065.0
 31
0.0
100
AcDbText
 73
2
  0
LWPOLYLINE
  5
12A
330
17
100
AcDbEntity
  8
COMP_3
370
25
100
AcDbPolyline
 90
5
 70
0
 10
105780.0
 20
10769.0
 10
105780.0
 20
15319.0
 10
121910.0
 20
15319.0
 10
121910.0
 20
10769.0
 10
105780.0
 20
10769.0
  0
TEXT
  5
12B
330
17
100
AcDbEntity
  8
COMP_3
100
AcDbText
 10
113845.0
 20
13194.0
 30
0.0
 40
200.0
  1
T110.5-70A    Tower Section 3
 72
1
 11
113845.0
 21
13194.0
 31
0.0
100
AcDbText
 73
2
  0
TEXT
  5
12C
330
17
100
AcDbEntity
  8
COMP_3
100
AcDbText
 10
113845.0
 20
13044.0
 30
0.0
 40
200.0
  1
LxBxH=16.13x4.55x4.64m
 72
1
 11
113845.0
 21
13044.0
 31
0.0
100
AcDbText
 73
2
  0
TEXT
  5
12D
330
17
100
AcDbEntity
  8
COMP_3
100
AcDbText
 10
113845.0
 20
12894.0
 30
0.0
 40
200.0
  1
Weight=68t
 72
1
 11
113845.0
 21
12894.0
 31
0.0
100
AcDbText
 73
2
  0
TEXT
  5
12E
330
17
100
AcDbEntity
  8
COMP_3
 62
1
100
AcDbText
 10
121660.0
 20
15069.0
 30
0.0
 40
220.0
  1
TIER=2
 72
1
 11
121660.0
 21
15069.0
 31
0.0
100
AcDbText
 73
2
  0
LWPOLYLINE
  5
12F
330
17
100
AcDbEntity
  8
COMP_3
370
25
100
AcDbPolyline
 90
5
 70
0
 10
85388.0
 20
37881.0
 10
85388.0
 20
42431.0
 10
101518.0
 20
42431.0
 10
101518.0
 20
37881.0
 10
85388.0
 20
37881.0
  0
TEXT
  5
130
330
17
100
AcDbEntity
  8
COMP_3
100
AcDbText
 10
93453.0
 20
40306.0
 30
0.0
 40
200.0
  1
T110.5-70A    Tower Section 3
 72
1
 11
93453.0
 21
40306.0
 31
0.0
100
AcDbText
 73
2
  0
TEXT
  5
131
330
17
100
AcDbEntity
  8
COMP_3
100
AcDbText
 10
93453.0
 20
40156.0
 30
0.0
 40
200.0
  1
LxBxH=16.13x4.55x4.64m
 72
1
 11
93453.0
 21
40156.0
 31
0.0
100
AcDbText
 73
2
  0
TEXT
  5
132
330
17
100
AcDbEntity
  8
COMP_3
100
AcDbText
 10
93453.0
 20
40006.0
 30
0.0
 40
200.0
  1
Weight=68t
 72
1
 11
93453.0
 21
40006.0
 31
0.0
100
AcDbText
 73
2
  0
LWPOLYLINE
  5
133
330
17
100
AcDbEntity
  8
COMP_3
370
25
100
AcDbPolyline
 90
5
 70
0
 10
85388.0
 20
42531.0
 10
85388.0
 20
47081.0
 10
101518.0
 20
47081.0
 10
101518.0
 20
42531.0
 10
85388.0
 20
42531.0
  0
TEXT
  5
134
330
17
100
AcDbEntity
  8
COMP_3
100
AcDbText
 10
93453.0
 20
44956.0
 30
0.0
 40
200.0
  1
T110.5-70A    Tower Section 3
 72
1
 11
93453.0
 21
44956.0
 31
0.0
100
AcDbText
 73
2
  0
TEXT
  5
135
330
17
100
AcDbEntity
  8
COMP_3
100
AcDbText
 10
93453.0
 20
44806.0
 30
0.0
 40
200.0
  1
LxBxH=16.13x4.55x4.64m
 72
1
 11
93453.0
 21
44806.0
 31
0.0
100
AcDbText
 73
2
  0
TEXT
  5
136
330
17
100
AcDbEntity
  8
COMP_3
100
AcDbText
 10
93453.0
 20
44656.0
 30
0.0
 40
200.0
  1
Weight=68t
 72
1
 11
93453.0
 21
44656.0
 31
0.0
100
AcDbText
 73
2
  0
LWPOLYLINE
  5
137
330
17
100
AcDbEntity
  8
COMP_3
370
25
100
AcDbPolyline
 90
5
 70
0
 10
87103.0
 20
33231.0
 10
87103.0
 20
37781.0
 10
103233.0
 20
37781.0
 10
103233.0
 20
33231.0
 10
87103.0
 20
33231.0
  0
TEXT
  5
138
330
17
100
AcDbEntity
  8
COMP_3
100
AcDbText
 10
95168.0
 20
35656.0
 30
0.0
 40
200.0
  1
T110.5-70A    Tower Section 3
 72
1
 11
95168.0
 21
35656.0
 31
0.0
100
AcDbText
 73
2
  0
TEXT
  5
139
330
17
100
AcDbEntity
  8
COMP_3
100
AcDbText
 10
95168.0
 20
35506.0
 30
0.0
 40
200.0
  1
LxBxH=16.13x4.55x4.64m
 72
1
 11
95168.0
 21
35506.0
 31
0.0
100
AcDbText
 73
2
  0
TEXT
  5
13A
330
17
100
AcDbEntity
  8
COMP_3
100
AcDbText
 10
95168.0
 20
35356.0
 30
0.0
 40
200.0
  1
Weight=68t
 72
1
 11
95168.0
 21
35356.0
 31
0.0
100
AcDbText
 73
2
  0
LWPOLYLINE
  5
13B
330
17
100
AcDbEntity
  8
COMP_3
370
25
100
AcDbPolyline
 90
5
 70
0
 10
87103.0
 20
47181.0
 10
87103.0
 20
51731.0
 10
103233.0
 20
51731.0
 10
103233.0
 20
47181.0
 10
87103.0
 20
47181.0
  0
TEXT
  5
13C
330
17
100
AcDbEntity
  8
COMP_3
100
AcDbText
 10
95168.0
 20
49606.0
 30
0.0
 40
200.0
  1
T110.5-70A    Tower Section 3
 72
1
 11
95168.0
 21
49606.0
 31
0.0
100
AcDbText
 73
2
  0
TEXT
  5
13D
330
17
100
AcDbEntity
  8
COMP_3
100
AcDbText
 10
95168.0
 20
49456.0
 30
0.0
 40
200.0
  1
LxBxH=16.13x4.55x4.64m
 72
1
 11
95168.0
 21
49456.0
 31
0.0
100
AcDbText
 73
2
  0
TEXT
  5
13E
330
17
100
AcDbEntity
  8
COMP_3
100
AcDbText
 10
95168.0
 20
49306.0
 30
0.0
 40
200.0
  1
Weight=68t
 72
1
 11
95168.0
 21
49306.0
 31
0.0
100
AcDbText
 73
2
  0
LWPOLYLINE
  5
13F
330
17
100
AcDbEntity
  8
COMP_3
370
25
100
AcDbPolyline
 90
5
 70
0
 10
87103.0
 20
51831.0
 10
87103.0
 20
56381.0
 10
103233.0
 20
56381.0
 10
103233.0
 20
51831.0
 10
87103.0
 20
51831.0
  0
TEXT
  5
140
330
17
100
AcDbEntity
  8
COMP_3
100
AcDbText
 10
95168.0
 20
54256.0
 30
0.0
 40
200.0
  1
T110.5-70A    Tower Section 3
 72
1
 11
95168.0
 21
54256.0
 31
0.0
100
AcDbText
 73
2
  0
TEXT
  5
141
330
17
100
AcDbEntity
  8
COMP_3
100
AcDbText
 10
95168.0
 20
54106.0
 30
0.0
 40
200.0
  1
LxBxH=16.13x4.55x4.64m
 72
1
 11
95168.0
 21
54106.0
 31
0.0
100
AcDbText
 73
2
  0
TEXT
  5
142
330
17
100
AcDbEntity
  8
COMP_3
100
AcDbText
 10
95168.0
 20
53956.0
 30
0.0
 40
200.0
  1
Weight=68t
 72
1
 11
95168.0
 21
53956.0
 31
0.0
100
AcDbText
 73
2
  0
LWPOLYLINE
  5
143
330
17
100
AcDbEntity
  8
COMP_3
370
25
100
AcDbPolyline
 90
5
 70
0
 10
33788.0
 20
75682.0
 10
33788.0
 20
80232.0
 10
49918.0
 20
80232.0
 10
49918.0
 20
75682.0
 10
33788.0
 20
75682.0
  0
TEXT
  5
144
330
17
100
AcDbEntity
  8
COMP_3
100
AcDbText
 10
41853.0
 20
78107.0
 30
0.0
 40
200.0
  1
T110.5-70A    Tower Section 3
 72
1
 11
41853.0
 21
78107.0
 31
0.0
100
AcDbText
 73
2
  0
TEXT
  5
145
330
17
100
AcDbEntity
  8
COMP_3
100
AcDbText
 10
41853.0
 20
77957.0
 30
0.0
 40
200.0
  1
LxBxH=16.13x4.55x4.64m
 72
1
 11
41853.0
 21
77957.0
 31
0.0
100
AcDbText
 73
2
  0
TEXT
  5
146
330
17
100
AcDbEntity
  8
COMP_3
100
AcDbText
 10
41853.0
 20
77807.0
 30
0.0
 40
200.0
  1
Weight=68t
 72
1
 11
41853.0
 21
77807.0
 31
0.0
100
AcDbText
 73
2
  0
LWPOLYLINE
  5
147
330
17
100
AcDbEntity
  8
COMP_3
370
25
100
AcDbPolyline
 90
5
 70
0
 10
33788.0
 20
82657.0
 10
33788.0
 20
87207.0
 10
49918.0
 20
87207.0
 10
49918.0
 20
82657.0
 10
33788.0
 20
82657.0
  0
TEXT
  5
148
330
17
100
AcDbEntity
  8
COMP_3
100
AcDbText
 10
41853.0
 20
85082.0
 30
0.0
 40
200.0
  1
T110.5-70A    Tower Section 3
 72
1
 11
41853.0
 21
85082.0
 31
0.0
100
AcDbText
 73
2
  0
TEXT
  5
149
330
17
100
AcDbEntity
  8
COMP_3
100
AcDbText
 10
41853.0
 20
84932.0
 30
0.0
 40
200.0
  1
LxBxH=16.13x4.55x4.64m
 72
1
 11
41853.0
 21
84932.0
 31
0.0
100
AcDbText
 73
2
  0
TEXT
  5
14A
330
17
100
AcDbEntity
  8
COMP_3
100
AcDbText
 10
41853.0
 20
84782.0
 30
0.0
 40
200.0
  1
Weight=68t
 72
1
 11
41853.0
 21
84782.0
 31
0.0
100
AcDbText
 73
2
  0
LWPOLYLINE
  5
14B
330
17
100
AcDbEntity
  8
COMP_3
370
25
100
AcDbPolyline
 90
5
 70
0
 10
33788.0
 20
87307.0
 10
33788.0
 20
91857.0
 10
49918.0
 20
91857.0
 10
49918.0
 20
87307.0
 10
33788.0
 20
87307.0
  0
TEXT
  5
14C
330
17
100
AcDbEntity
  8
COMP_3
100
AcDbText
 10
41853.0
 20
89732.0
 30
0.0
 40
200.0
  1
T110.5-70A    Tower Section 3
 72
1
 11
41853.0
 21
89732.0
 31
0.0
100
AcDbText
 73
2
  0
TEXT
  5
14D
330
17
100
AcDbEntity
  8
COMP_3
100
AcDbText
 10
41853.0
 20
89582.0
 30
0.0
 40
200.0
  1
LxBxH=16.13x4.55x4.64m
 72
1
 11
41853.0
 21
89582.0
 31
0.0
100
AcDbText
 73
2
  0
TEXT
  5
14E
330
17
100
AcDbEntity
  8
COMP_3
100
AcDbText
 10
41853.0
 20
89432.0
 30
0.0
 40
200.0
  1
Weight=68t
 72
1
 11
41853.0
 21
89432.0
 31
0.0
100
AcDbText
 73
2
  0
LWPOLYLINE
  5
14F
330
17
100
AcDbEntity
  8
COMP_3
370
25
100
AcDbPolyline
 90
5
 70
0
 10
35498.0
 20
66382.0
 10
35498.0
 20
70932.0
 10
51628.0
 20
70932.0
 10
51628.0
 20
66382.0
 10
35498.0
 20
66382.0
  0
TEXT
  5
150
330
17
100
AcDbEntity
  8
COMP_3
100
AcDbText
 10
43563.0
 20
68807.0
 30
0.0
 40
200.0
  1
T110.5-70A    Tower Section 3
 72
1
 11
43563.0
 21
68807.0
 31
0.0
100
AcDbText
 73
2
  0
TEXT
  5
151
330
17
100
AcDbEntity
  8
COMP_3
100
AcDbText
 10
43563.0
 20
68657.0
 30
0.0
 40
200.0
  1
LxBxH=16.13x4.55x4.64m
 72
1
 11
43563.0
 21
68657.0
 31
0.0
100
AcDbText
 73
2
  0
TEXT
  5
152
330
17
100
AcDbEntity
  8
COMP_3
100
AcDbText
 10
43563.0
 20
68507.0
 30
0.0
 40
200.0
  1
Weight=68t
 72
1
 11
43563.0
 21
68507.0
 31
0.0
100
AcDbText
 73
2
  0
LWPOLYLINE
  5
153
330
17
100
AcDbEntity
  8
COMP_3
370
25
100
AcDbPolyline
 90
5
 70
0
 10
53390.0
 20
66382.0
 10
53390.0
 20
70932.0
 10
69520.0
 20
70932.0
 10
69520.0
 20
66382.0
 10
53390.0
 20
66382.0
  0
TEXT
  5
154
330
17
100
AcDbEntity
  8
COMP_3
100
AcDbText
 10
61455.0
 20
68807.0
 30
0.0
 40
200.0
  1
T110.5-70A    Tower Section 3
 72
1
 11
61455.0
 21
68807.0
 31
0.0
100
AcDbText
 73
2
  0
TEXT
  5
155
330
17
100
AcDbEntity
  8
COMP_3
100
AcDbText
 10
61455.0
 20
68657.0
 30
0.0
 40
200.0
  1
LxBxH=16.13x4.55x4.64m
 72
1
 11
61455.0
 21
68657.0
 31
0.0
100
AcDbText
 73
2
  0
TEXT
  5
156
330
17
100
AcDbEntity
  8
COMP_3
100
AcDbText
 10
61455.0
 20
68507.0
 30
0.0
 40
200.0
  1
Weight=68t
 72
1
 11
61455.0
 21
68507.0
 31
0.0
100
AcDbText
 73
2
  0
LWPOLYLINE
  5
157
330
17
100
AcDbEntity
  8
COMP_3
370
25
100
AcDbPolyline
 90
5
 70
0
 10
53390.0
 20
75682.0
 10
53390.0
 20
80232.0
 10
69520.0
 20
80232.0
 10
69520.0
 20
75682.0
 10
53390.0
 20
75682.0
  0
TEXT
  5
158
330
17
100
AcDbEntity
  8
COMP_3
100
AcDbText
 10
61455.0
 20
78107.0
 30
0.0
 40
200.0
  1
T110.5-70A    Tower Section 3
 72
1
 11
61455.0
 21
78107.0
 31
0.0
100
AcDbText
 73
2
  0
TEXT
  5
159
330
17
100
AcDbEntity
  8
COMP_3
100
AcDbText
 10
61455.0
 20
77957.0
 30
0.0
 40
200.0
  1
LxBxH=16.13x4.55x4.64m
 72
1
 11
61455.0
 21
77957.0
 31
0.0
100
AcDbText
 73
2
  0
TEXT
  5
15A
330
17
100
AcDbEntity
  8
COMP_3
100
AcDbText
 10
61455.0
 20
77807.0
 30
0.0
 40
200.0
  1
Weight=68t
 72
1
 11
61455.0
 21
77807.0
 31
0.0
100
AcDbText
 73
2
  0
LWPOLYLINE
  5
15C
330
17
100
AcDbEntity
  8
COMP_4
370
25
100
AcDbPolyline
 90
5
 70
0
 10
105780.0
 20
15419.0
 10
105780.0
 20
19969.0
 10
126950.0
 20
19969.0
 10
126950.0
 20
15419.0
 10
105780.0
 20
15419.0
  0
TEXT
  5
15D
330
17
100
AcDbEntity
  8
COMP_4
100
AcDbText
 10
116365.0
 20
17844.0
 30
0.0
 40
200.0
  1
T110.5-70A    Tower Section 4
 72
1
 11
116365.0
 21
17844.0
 31
0.0
100
AcDbText
 73
2
  0
TEXT
  5
15E
330
17
100
AcDbEntity
  8
COMP_4
100
AcDbText
 10
116365.0
 20
17694.0
 30
0.0
 40
200.0
  1
LxBxH=21.17x4.55x4.64m
 72
1
 11
116365.0
 21
17694.0
 31
0.0
100
AcDbText
 73
2
  0
TEXT
  5
15F
330
17
100
AcDbEntity
  8
COMP_4
100
AcDbText
 10
116365.0
 20
17544.0
 30
0.0
 40
200.0
  1
Weight=68.9t
 72
1
 11
116365.0
 21
17544.0
 31
0.0
100
AcDbText
 73
2
  0
TEXT
  5
160
330
17
100
AcDbEntity
  8
COMP_4
 62
1
100
AcDbText
 10
126700.0
 20
19719.0
 30
0.0
 40
220.0
  1
TIER=2
 72
1
 11
126700.0
 21
19719.0
 31
0.0
100
AcDbText
 73
2
  0
LWPOLYLINE
  5
161
330
17
100
AcDbEntity
  8
COMP_4
370
25
100
AcDbPolyline
 90
5
 70
0
 10
33719.0
 20
71032.0
 10
33719.0
 20
75582.0
 10
54889.0
 20
75582.0
 10
54889.0
 20
71032.0
 10
33719.0
 20
71032.0
  0
TEXT
  5
162
330
17
100
AcDbEntity
  8
COMP_4
100
AcDbText
 10
44304.0
 20
73457.0
 30
0.0
 40
200.0
  1
T110.5-70A    Tower Section 4
 72
1
 11
44304.0
 21
73457.0
 31
0.0
100
AcDbText
 73
2
  0
TEXT
  5
163
330
17
100
AcDbEntity
  8
COMP_4
100
AcDbText
 10
44304.0
 20
73307.0
 30
0.0
 40
200.0
  1
LxBxH=21.17x4.55x4.64m
 72
1
 11
44304.0
 21
73307.0
 31
0.0
100
AcDbText
 73
2
  0
TEXT
  5
164
330
17
100
AcDbEntity
  8
COMP_4
100
AcDbText
 10
44304.0
 20
73157.0
 30
0.0
 40
200.0
  1
Weight=68.9t
 72
1
 11
44304.0
 21
73157.0
 31
0.0
100
AcDbText
 73
2
  0
LWPOLYLINE
  5
165
330
17
100
AcDbEntity
  8
COMP_4
370
25
100
AcDbPolyline
 90
5
 70
0
 10
-40149.0
 20
100161.0
 10
-40149.0
 20
104711.0
 10
-18979.0
 20
104711.0
 10
-18979.0
 20
100161.0
 10
-40149.0
 20
100161.0
  0
TEXT
  5
166
330
17
100
AcDbEntity
  8
COMP_4
100
AcDbText
 10
-29564.0
 20
102586.0
 30
0.0
 40
200.0
  1
T110.5-70A    Tower Section 4
 72
1
 11
-29564.0
 21
102586.0
 31
0.0
100
AcDbText
 73
2
  0
TEXT
  5
167
330
17
100
AcDbEntity
  8
COMP_4
100
AcDbText
 10
-29564.0
 20
102436.0
 30
0.0
 40
200.0
  1
LxBxH=21.17x4.55x4.64m
 72
1
 11
-29564.0
 21
102436.0
 31
0.0
100
AcDbText
 73
2
  0
TEXT
  5
168
330
17
100
AcDbEntity
  8
COMP_4
100
AcDbText
 10
-29564.0
 20
102286.0
 30
0.0
 40
200.0
  1
Weight=68.9t
 72
1
 11
-29564.0
 21
102286.0
 31
0.0
100
AcDbText
 73
2
  0
TEXT
  5
169
330
17
100
AcDbEntity
  8
COMP_4
 62
1
100
AcDbText
 10
-19229.0
 20
104461.0
 30
0.0
 40
220.0
  1
TIER=2
 72
1
 11
-19229.0
 21
104461.0
 31
0.0
100
AcDbText
 73
2
  0
LWPOLYLINE
  5
16A
330
17
100
AcDbEntity
  8
COMP_4
370
25
100
AcDbPolyline
 90
5
 70
0
 10
-40149.0
 20
104811.0
 10
-40149.0
 20
109361.0
 10
-18979.0
 20
109361.0
 10
-18979.0
 20
104811.0
 10
-40149.0
 20
104811.0
  0
TEXT
  5
16B
330
17
100
AcDbEntity
  8
COMP_4
100
AcDbText
 10
-29564.0
 20
107236.0
 30
0.0
 40
200.0
  1
T110.5-70A    Tower Section 4
 72
1
 11
-29564.0
 21
107236.0
 31
0.0
100
AcDbText
 73
2
  0
TEXT
  5
16C
330
17
100
AcDbEntity
  8
COMP_4
100
AcDbText
 10
-29564.0
 20
107086.0
 30
0.0
 40
200.0
  1
LxBxH=21.17x4.55x4.64m
 72
1
 11
-29564.0
 21
107086.0
 31
0.0
100
AcDbText
 73
2
  0
TEXT
  5
16D
330
17
100
AcDbEntity
  8
COMP_4
100
AcDbText
 10
-29564.0
 20
106936.0
 30
0.0
 40
200.0
  1
Weight=68.9t
 72
1
 11
-29564.0
 21
106936.0
 31
0.0
100
AcDbText
 73
2
  0
TEXT
  5
16E
330
17
100
AcDbEntity
  8
COMP_4
 62
1
100
AcDbText
 10
-19229.0
 20
109111.0
 30
0.0
 40
220.0
  1
TIER=2
 72
1
 11
-19229.0
 21
109111.0
 31
0.0
100
AcDbText
 73
2
  0
LWPOLYLINE
  5
16F
330
17
100
AcDbEntity
  8
COMP_4
370
25
100
AcDbPolyline
 90
5
 70
0
 10
-40149.0
 20
109461.0
 10
-40149.0
 20
114011.0
 10
-18979.0
 20
114011.0
 10
-18979.0
 20
109461.0
 10
-40149.0
 20
109461.0
  0
TEXT
  5
170
330
17
100
AcDbEntity
  8
COMP_4
100
AcDbText
 10
-29564.0
 20
111886.0
 30
0.0
 40
200.0
  1
T110.5-70A    Tower Section 4
 72
1
 11
-29564.0
 21
111886.0
 31
0.0
100
AcDbText
 73
2
  0
TEXT
  5
171
330
17
100
AcDbEntity
  8
COMP_4
100
AcDbText
 10
-29564.0
 20
111736.0
 30
0.0
 40
200.0
  1
LxBxH=21.17x4.55x4.64m
 72
1
 11
-29564.0
 21
111736.0
 31
0.0
100
AcDbText
 73
2
  0
TEXT
  5
172
330
17
100
AcDbEntity
  8
COMP_4
100
AcDbText
 10
-29564.0
 20
111586.0
 30
0.0
 40
200.0
  1
Weight=68.9t
 72
1
 11
-29564.0
 21
111586.0
 31
0.0
100
AcDbText
 73
2
  0
TEXT
  5
173
330
17
100
AcDbEntity
  8
COMP_4
 62
1
100
AcDbText
 10
-19229.0
 20
113761.0
 30
0.0
 40
220.0
  1
TIER=2
 72
1
 11
-19229.0
 21
113761.0
 31
0.0
100
AcDbText
 73
2
  0
LWPOLYLINE
  5
174
330
17
100
AcDbEntity
  8
COMP_4
370
25
100
AcDbPolyline
 90
5
 70
0
 10
-40149.0
 20
114111.0
 10
-40149.0
 20
118661.0
 10
-18979.0
 20
118661.0
 10
-18979.0
 20
114111.0
 10
-40149.0
 20
114111.0
  0
TEXT
  5
175
330
17
100
AcDbEntity
  8
COMP_4
100
AcDbText
 10
-29564.0
 20
116536.0
 30
0.0
 40
200.0
  1
T110.5-70A    Tower Section 4
 72
1
 11
-29564.0
 21
116536.0
 31
0.0
100
AcDbText
 73
2
  0
TEXT
  5
176
330
17
100
AcDbEntity
  8
COMP_4
100
AcDbText
 10
-29564.0
 20
116386.0
 30
0.0
 40
200.0
  1
LxBxH=21.17x4.55x4.64m
 72
1
 11
-29564.0
 21
116386.0
 31
0.0
100
AcDbText
 73
2
  0
TEXT
  5
177
330
17
100
AcDbEntity
  8
COMP_4
100
AcDbText
 10
-29564.0
 20
116236.0
 30
0.0
 40
200.0
  1
Weight=68.9t
 72
1
 11
-29564.0
 21
116236.0
 31
0.0
100
AcDbText
 73
2
  0
TEXT
  5
178
330
17
100
AcDbEntity
  8
COMP_4
 62
1
100
AcDbText
 10
-19229.0
 20
118411.0
 30
0.0
 40
220.0
  1
TIER=2
 72
1
 11
-19229.0
 21
118411.0
 31
0.0
100
AcDbText
 73
2
  0
LWPOLYLINE
  5
179
330
17
100
AcDbEntity
  8
COMP_4
370
25
100
AcDbPolyline
 90
5
 70
0
 10
-40149.0
 20
118761.0
 10
-40149.0
 20
123311.0
 10
-18979.0
 20
123311.0
 10
-18979.0
 20
118761.0
 10
-40149.0
 20
118761.0
  0
TEXT
  5
17A
330
17
100
AcDbEntity
  8
COMP_4
100
AcDbText
 10
-29564.0
 20
121186.0
 30
0.0
 40
200.0
  1
T110.5-70A    Tower Section 4
 72
1
 11
-29564.0
 21
121186.0
 31
0.0
100
AcDbText
 73
2
  0
TEXT
  5
17B
330
17
100
AcDbEntity
  8
COMP_4
100
AcDbText
 10
-29564.0
 20
121036.0
 30
0.0
 40
200.0
  1
LxBxH=21.17x4.55x4.64m
 72
1
 11
-29564.0
 21
121036.0
 31
0.0
100
AcDbText
 73
2
  0
TEXT
  5
17C
330
17
100
AcDbEntity
  8
COMP_4
100
AcDbText
 10
-29564.0
 20
120886.0
 30
0.0
 40
200.0
  1
Weight=68.9t
 72
1
 11
-29564.0
 21
120886.0
 31
0.0
100
AcDbText
 73
2
  0
TEXT
  5
17D
330
17
100
AcDbEntity
  8
COMP_4
 62
1
100
AcDbText
 10
-19229.0
 20
123061.0
 30
0.0
 40
220.0
  1
TIER=2
 72
1
 11
-19229.0
 21
123061.0
 31
0.0
100
AcDbText
 73
2
  0
LWPOLYLINE
  5
17E
330
17
100
AcDbEntity
  8
COMP_4
370
25
100
AcDbPolyline
 90
5
 70
0
 10
-40149.0
 20
123411.0
 10
-40149.0
 20
127961.0
 10
-18979.0
 20
127961.0
 10
-18979.0
 20
123411.0
 10
-40149.0
 20
123411.0
  0
TEXT
  5
17F
330
17
100
AcDbEntity
  8
COMP_4
100
AcDbText
 10
-29564.0
 20
125836.0
 30
0.0
 40
200.0
  1
T110.5-70A    Tower Section 4
 72
1
 11
-29564.0
 21
125836.0
 31
0.0
100
AcDbText
 73
2
  0
TEXT
  5
180
330
17
100
AcDbEntity
  8
COMP_4
100
AcDbText
 10
-29564.0
 20
125686.0
 30
0.0
 40
200.0
  1
LxBxH=21.17x4.55x4.64m
 72
1
 11
-29564.0
 21
125686.0
 31
0.0
100
AcDbText
 73
2
  0
TEXT
  5
181
330
17
100
AcDbEntity
  8
COMP_4
100
AcDbText
 10
-29564.0
 20
125536.0
 30
0.0
 40
200.0
  1
Weight=68.9t
 72
1
 11
-29564.0
 21
125536.0
 31
0.0
100
AcDbText
 73
2
  0
TEXT
  5
182
330
17
100
AcDbEntity
  8
COMP_4
 62
1
100
AcDbText
 10
-19229.0
 20
127711.0
 30
0.0
 40
220.0
  1
TIER=2
 72
1
 11
-19229.0
 21
127711.0
 31
0.0
100
AcDbText
 73
2
  0
LWPOLYLINE
  5
183
330
17
100
AcDbEntity
  8
COMP_4
370
25
100
AcDbPolyline
 90
5
 70
0
 10
14026.0
 20
100161.0
 10
14026.0
 20
104711.0
 10
35196.0
 20
104711.0
 10
35196.0
 20
100161.0
 10
14026.0
 20
100161.0
  0
TEXT
  5
184
330
17
100
AcDbEntity
  8
COMP_4
100
AcDbText
 10
24611.0
 20
102586.0
 30
0.0
 40
200.0
  1
T110.5-70A    Tower Section 4
 72
1
 11
24611.0
 21
102586.0
 31
0.0
100
AcDbText
 73
2
  0
TEXT
  5
185
330
17
100
AcDbEntity
  8
COMP_4
100
AcDbText
 10
24611.0
 20
102436.0
 30
0.0
 40
200.0
  1
LxBxH=21.17x4.55x4.64m
 72
1
 11
24611.0
 21
102436.0
 31
0.0
100
AcDbText
 73
2
  0
TEXT
  5
186
330
17
100
AcDbEntity
  8
COMP_4
100
AcDbText
 10
24611.0
 20
102286.0
 30
0.0
 40
200.0
  1
Weight=68.9t
 72
1
 11
24611.0
 21
102286.0
 31
0.0
100
AcDbText
 73
2
  0
TEXT
  5
187
330
17
100
AcDbEntity
  8
COMP_4
 62
1
100
AcDbText
 10
34946.0
 20
104461.0
 30
0.0
 40
220.0
  1
TIER=2
 72
1
 11
34946.0
 21
104461.0
 31
0.0
100
AcDbText
 73
2
  0
LWPOLYLINE
  5
188
330
17
100
AcDbEntity
  8
COMP_4
370
25
100
AcDbPolyline
 90
5
 70
0
 10
14026.0
 20
104811.0
 10
14026.0
 20
109361.0
 10
35196.0
 20
109361.0
 10
35196.0
 20
104811.0
 10
14026.0
 20
104811.0
  0
TEXT
  5
189
330
17
100
AcDbEntity
  8
COMP_4
100
AcDbText
 10
24611.0
 20
107236.0
 30
0.0
 40
200.0
  1
T110.5-70A    Tower Section 4
 72
1
 11
24611.0
 21
107236.0
 31
0.0
100
AcDbText
 73
2
  0
TEXT
  5
18A
330
17
100
AcDbEntity
  8
COMP_4
100
AcDbText
 10
24611.0
 20
107086.0
 30
0.0
 40
200.0
  1
LxBxH=21.17x4.55x4.64m
 72
1
 11
24611.0
 21
107086.0
 31
0.0
100
AcDbText
 73
2
  0
TEXT
  5
18B
330
17
100
AcDbEntity
  8
COMP_4
100
AcDbText
 10
24611.0
 20
106936.0
 30
0.0
 40
200.0
  1
Weight=68.9t
 72
1
 11
24611.0
 21
106936.0
 31
0.0
100
AcDbText
 73
2
  0
TEXT
  5
18C
330
17
100
AcDbEntity
  8
COMP_4
 62
1
100
AcDbText
 10
34946.0
 20
109111.0
 30
0.0
 40
220.0
  1
TIER=2
 72
1
 11
34946.0
 21
109111.0
 31
0.0
100
AcDbText
 73
2
  0
LWPOLYLINE
  5
18D
330
17
100
AcDbEntity
  8
COMP_4
370
25
100
AcDbPolyline
 90
5
 70
0
 10
14026.0
 20
109461.0
 10
14026.0
 20
114011.0
 10
35196.0
 20
114011.0
 10
35196.0
 20
109461.0
 10
14026.0
 20
109461.0
  0
TEXT
  5
18E
330
17
100
AcDbEntity
  8
COMP_4
100
AcDbText
 10
24611.0
 20
111886.0
 30
0.0
 40
200.0
  1
T110.5-70A    Tower Section 4
 72
1
 11
24611.0
 21
111886.0
 31
0.0
100
AcDbText
 73
2
  0
TEXT
  5
18F
330
17
100
AcDbEntity
  8
COMP_4
100
AcDbText
 10
24611.0
 20
111736.0
 30
0.0
 40
200.0
  1
LxBxH=21.17x4.55x4.64m
 72
1
 11
24611.0
 21
111736.0
 31
0.0
100
AcDbText
 73
2
  0
TEXT
  5
190
330
17
100
AcDbEntity
  8
COMP_4
100
AcDbText
 10
24611.0
 20
111586.0
 30
0.0
 40
200.0
  1
Weight=68.9t
 72
1
 11
24611.0
 21
111586.0
 31
0.0
100
AcDbText
 73
2
  0
TEXT
  5
191
330
17
100
AcDbEntity
  8
COMP_4
 62
1
100
AcDbText
 10
34946.0
 20
113761.0
 30
0.0
 40
220.0
  1
TIER=2
 72
1
 11
34946.0
 21
113761.0
 31
0.0
100
AcDbText
 73
2
  0
LWPOLYLINE
  5
192
330
17
100
AcDbEntity
  8
COMP_4
370
25
100
AcDbPolyline
 90
5
 70
0
 10
14026.0
 20
114111.0
 10
14026.0
 20
118661.0
 10
35196.0
 20
118661.0
 10
35196.0
 20
114111.0
 10
14026.0
 20
114111.0
  0
TEXT
  5
193
330
17
100
AcDbEntity
  8
COMP_4
100
AcDbText
 10
24611.0
 20
116536.0
 30
0.0
 40
200.0
  1
T110.5-70A    Tower Section 4
 72
1
 11
24611.0
 21
116536.0
 31
0.0
100
AcDbText
 73
2
  0
TEXT
  5
194
330
17
100
AcDbEntity
  8
COMP_4
100
AcDbText
 10
24611.0
 20
116386.0
 30
0.0
 40
200.0
  1
LxBxH=21.17x4.55x4.64m
 72
1
 11
24611.0
 21
116386.0
 31
0.0
100
AcDbText
 73
2
  0
TEXT
  5
195
330
17
100
AcDbEntity
  8
COMP_4
100
AcDbText
 10
24611.0
 20
116236.0
 30
0.0
 40
200.0
  1
Weight=68.9t
 72
1
 11
24611.0
 21
116236.0
 31
0.0
100
AcDbText
 73
2
  0
TEXT
  5
196
330
17
100
AcDbEntity
  8
COMP_4
 62
1
100
AcDbText
 10
34946.0
 20
118411.0
 30
0.0
 40
220.0
  1
TIER=2
 72
1
 11
34946.0
 21
118411.0
 31
0.0
100
AcDbText
 73
2
  0
LWPOLYLINE
  5
197
330
17
100
AcDbEntity
  8
COMP_4
370
25
100
AcDbPolyline
 90
5
 70
0
 10
14026.0
 20
118761.0
 10
14026.0
 20
123311.0
 10
35196.0
 20
123311.0
 10
35196.0
 20
118761.0
 10
14026.0
 20
118761.0
  0
TEXT
  5
198
330
17
100
AcDbEntity
  8
COMP_4
100
AcDbText
 10
24611.0
 20
121186.0
 30
0.0
 40
200.0
  1
T110.5-70A    Tower Section 4
 72
1
 11
24611.0
 21
121186.0
 31
0.0
100
AcDbText
 73
2
  0
TEXT
  5
199
330
17
100
AcDbEntity
  8
COMP_4
100
AcDbText
 10
24611.0
 20
121036.0
 30
0.0
 40
200.0
  1
LxBxH=21.17x4.55x4.64m
 72
1
 11
24611.0
 21
121036.0
 31
0.0
100
AcDbText
 73
2
  0
TEXT
  5
19A
330
17
100
AcDbEntity
  8
COMP_4
100
AcDbText
 10
24611.0
 20
120886.0
 30
0.0
 40
200.0
  1
Weight=68.9t
 72
1
 11
24611.0
 21
120886.0
 31
0.0
100
AcDbText
 73
2
  0
TEXT
  5
19B
330
17
100
AcDbEntity
  8
COMP_4
 62
1
100
AcDbText
 10
34946.0
 20
123061.0
 30
0.0
 40
220.0
  1
TIER=2
 72
1
 11
34946.0
 21
123061.0
 31
0.0
100
AcDbText
 73
2
  0
LWPOLYLINE
  5
19C
330
17
100
AcDbEntity
  8
COMP_4
370
25
100
AcDbPolyline
 90
5
 70
0
 10
14026.0
 20
123411.0
 10
14026.0
 20
127961.0
 10
35196.0
 20
127961.0
 10
35196.0
 20
123411.0
 10
14026.0
 20
123411.0
  0
TEXT
  5
19D
330
17
100
AcDbEntity
  8
COMP_4
100
AcDbText
 10
24611.0
 20
125836.0
 30
0.0
 40
200.0
  1
T110.5-70A    Tower Section 4
 72
1
 11
24611.0
 21
125836.0
 31
0.0
100
AcDbText
 73
2
  0
TEXT
  5
19E
330
17
100
AcDbEntity
  8
COMP_4
100
AcDbText
 10
24611.0
 20
125686.0
 30
0.0
 40
200.0
  1
LxBxH=21.17x4.55x4.64m
 72
1
 11
24611.0
 21
125686.0
 31
0.0
100
AcDbText
 73
2
  0
TEXT
  5
19F
330
17
100
AcDbEntity
  8
COMP_4
100
AcDbText
 10
24611.0
 20
125536.0
 30
0.0
 40
200.0
  1
Weight=68.9t
 72
1
 11
24611.0
 21
125536.0
 31
0.0
100
AcDbText
 73
2
  0
TEXT
  5
1A0
330
17
100
AcDbEntity
  8
COMP_4
 62
1
100
AcDbText
 10
34946.0
 20
127711.0
 30
0.0
 40
220.0
  1
TIER=2
 72
1
 11
34946.0
 21
127711.0
 31
0.0
100
AcDbText
 73
2
  0
LWPOLYLINE
  5
1A2
330
17
100
AcDbEntity
  8
COMP_5
370
25
100
AcDbPolyline
 90
5
 70
0
 10
18516.0
 20
0.0
 10
18516.0
 20
26210.0
 10
23066.0
 20
26210.0
 10
23066.0
 20
0.0
 10
18516.0
 20
0.0
  0
TEXT
  5
1A3
330
17
100
AcDbEntity
  8
COMP_5
100
AcDbText
 10
20641.0
 20
13105.0
 30
0.0
 40
200.0
  1
T110.5-70A    Tower Section 5
 50
90.0
 72
1
 11
20641.0
 21
13105.0
 31
0.0
100
AcDbText
 73
2
  0
TEXT
  5
1A4
330
17
100
AcDbEntity
  8
COMP_5
100
AcDbText
 10
20791.0
 20
13105.0
 30
0.0
 40
200.0
  1
LxBxH=26.21x4.55x4.63m
 50
90.0
 72
1
 11
20791.0
 21
13105.0
 31
0.0
100
AcDbText
 73
2
  0
TEXT
  5
1A5
330
17
100
AcDbEntity
  8
COMP_5
100
AcDbText
 10
20941.0
 20
13105.0
 30
0.0
 40
200.0
  1
Weight=64.1t
 50
90.0
 72
1
 11
20941.0
 21
13105.0
 31
0.0
100
AcDbText
 73
2
  0
LWPOLYLINE
  5
1A6
330
17
100
AcDbEntity
  8
COMP_5
370
25
100
AcDbPolyline
 90
5
 70
0
 10
23566.0
 20
0.0
 10
23566.0
 20
26210.0
 10
28116.0
 20
26210.0
 10
28116.0
 20
0.0
 10
23566.0
 20
0.0
  0
TEXT
  5
1A7
330
17
100
AcDbEntity
  8
COMP_5
100
AcDbText
 10
25691.0
 20
13105.0
 30
0.0
 40
200.0
  1
T110.5-70A    Tower Section 5
 50
90.0
 72
1
 11
25691.0
 21
13105.0
 31
0.0
100
AcDbText
 73
2
  0
TEXT
  5
1A8
330
17
100
AcDbEntity
  8
COMP_5
100
AcDbText
 10
25841.0
 20
13105.0
 30
0.0
 40
200.0
  1
LxBxH=26.21x4.55x4.63m
 50
90.0
 72
1
 11
25841.0
 21
13105.0
 31
0.0
100
AcDbText
 73
2
  0
TEXT
  5
1A9
330
17
100
AcDbEntity
  8
COMP_5
100
AcDbText
 10
25991.0
 20
13105.0
 30
0.0
 40
200.0
  1
Weight=64.1t
 50
90.0
 72
1
 11
25991.0
 21
13105.0
 31
0.0
100
AcDbText
 73
2
  0
LWPOLYLINE
  5
1AA
330
17
100
AcDbEntity
  8
COMP_5
370
25
100
AcDbPolyline
 90
5
 70
0
 10
87263.0
 20
0.0
 10
87263.0
 20
26210.0
 10
91813.0
 20
26210.0
 10
91813.0
 20
0.0
 10
87263.0
 20
0.0
  0
TEXT
  5
1AB
330
17
100
AcDbEntity
  8
COMP_5
100
AcDbText
 10
89388.0
 20
13105.0
 30
0.0
 40
200.0
  1
T110.5-70A    Tower Section 5
 50
90.0
 72
1
 11
89388.0
 21
13105.0
 31
0.0
100
AcDbText
 73
2
  0
TEXT
  5
1AC
330
17
100
AcDbEntity
  8
COMP_5
100
AcDbText
 10
89538.0
 20
13105.0
 30
0.0
 40
200.0
  1
LxBxH=26.21x4.55x4.63m
 50
90.0
 72
1
 11
89538.0
 21
13105.0
 31
0.0
100
AcDbText
 73
2
  0
TEXT
  5
1AD
330
17
100
AcDbEntity
  8
COMP_5
100
AcDbText
 10
89688.0
 20
13105.0
 30
0.0
 40
200.0
  1
Weight=64.1t
 50
90.0
 72
1
 11
89688.0
 21
13105.0
 31
0.0
100
AcDbText
 73
2
  0
LWPOLYLINE
  5
1AE
330
17
100
AcDbEntity
  8
COMP_5
370
25
100
AcDbPolyline
 90
5
 70
0
 10
92313.0
 20
0.0
 10
92313.0
 20
26210.0
 10
96863.0
 20
26210.0
 10
96863.0
 20
0.0
 10
92313.0
 20
0.0
  0
TEXT
  5
1AF
330
17
100
AcDbEntity
  8
COMP_5
100
AcDbText
 10
94438.0
 20
13105.0
 30
0.0
 40
200.0
  1
T110.5-70A    Tower Section 5
 50
90.0
 72
1
 11
94438.0
 21
13105.0
 31
0.0
100
AcDbText
 73
2
  0
TEXT
  5
1B0
330
17
100
AcDbEntity
  8
COMP_5
100
AcDbText
 10
94588.0
 20
13105.0
 30
0.0
 40
200.0
  1
LxBxH=26.21x4.55x4.63m
 50
90.0
 72
1
 11
94588.0
 21
13105.0
 31
0.0
100
AcDbText
 73
2
  0
TEXT
  5
1B1
330
17
100
AcDbEntity
  8
COMP_5
100
AcDbText
 10
94738.0
 20
13105.0
 30
0.0
 40
200.0
  1
Weight=64.1t
 50
90.0
 72
1
 11
94738.0
 21
13105.0
 31
0.0
100
AcDbText
 73
2
  0
LWPOLYLINE
  5
1B2
330
17
100
AcDbEntity
  8
COMP_5
370
25
100
AcDbPolyline
 90
5
 70
0
 10
97363.0
 20
0.0
 10
97363.0
 20
26210.0
 10
101913.0
 20
26210.0
 10
101913.0
 20
0.0
 10
97363.0
 20
0.0
  0
TEXT
  5
1B3
330
17
100
AcDbEntity
  8
COMP_5
100
AcDbText
 10
99488.0
 20
13105.0
 30
0.0
 40
200.0
  1
T110.5-70A    Tower Section 5
 50
90.0
 72
1
 11
99488.0
 21
13105.0
 31
0.0
100
AcDbText
 73
2
  0
TEXT
  5
1B4
330
17
100
AcDbEntity
  8
COMP_5
100
AcDbText
 10
99638.0
 20
13105.0
 30
0.0
 40
200.0
  1
LxBxH=26.21x4.55x4.63m
 50
90.0
 72
1
 11
99638.0
 21
13105.0
 31
0.0
100
AcDbText
 73
2
  0
TEXT
  5
1B5
330
17
100
AcDbEntity
  8
COMP_5
100
AcDbText
 10
99788.0
 20
13105.0
 30
0.0
 40
200.0
  1
Weight=64.1t
 50
90.0
 72
1
 11
99788.0
 21
13105.0
 31
0.0
100
AcDbText
 73
2
  0
LWPOLYLINE
  5
1B6
330
17
100
AcDbEntity
  8
COMP_5
370
25
100
AcDbPolyline
 90
5
 70
0
 10
14783.0
 20
33231.0
 10
14783.0
 20
59441.0
 10
19333.0
 20
59441.0
 10
19333.0
 20
33231.0
 10
14783.0
 20
33231.0
  0
TEXT
  5
1B7
330
17
100
AcDbEntity
  8
COMP_5
100
AcDbText
 10
16908.0
 20
46336.0
 30
0.0
 40
200.0
  1
T110.5-70A    Tower Section 5
 50
90.0
 72
1
 11
16908.0
 21
46336.0
 31
0.0
100
AcDbText
 73
2
  0
TEXT
  5
1B8
330
17
100
AcDbEntity
  8
COMP_5
100
AcDbText
 10
17058.0
 20
46336.0
 30
0.0
 40
200.0
  1
LxBxH=26.21x4.55x4.63m
 50
90.0
 72
1
 11
17058.0
 21
46336.0
 31
0.0
100
AcDbText
 73
2
  0
TEXT
  5
1B9
330
17
100
AcDbEntity
  8
COMP_5
100
AcDbText
 10
17208.0
 20
46336.0
 30
0.0
 40
200.0
  1
Weight=64.1t
 50
90.0
 72
1
 11
17208.0
 21
46336.0
 31
0.0
100
AcDbText
 73
2
  0
LWPOLYLINE
  5
1BA
330
17
100
AcDbEntity
  8
COMP_5
370
25
100
AcDbPolyline
 90
5
 70
0
 10
24881.0
 20
33231.0
 10
24881.0
 20
59441.0
 10
29431.0
 20
59441.0
 10
29431.0
 20
33231.0
 10
24881.0
 20
33231.0
  0
TEXT
  5
1BB
330
17
100
AcDbEntity
  8
COMP_5
100
AcDbText
 10
27006.0
 20
46336.0
 30
0.0
 40
200.0
  1
T110.5-70A    Tower Section 5
 50
90.0
 72
1
 11
27006.0
 21
46336.0
 31
0.0
100
AcDbText
 73
2
  0
TEXT
  5
1BC
330
17
100
AcDbEntity
  8
COMP_5
100
AcDbText
 10
27156.0
 20
46336.0
 30
0.0
 40
200.0
  1
LxBxH=26.21x4.55x4.63m
 50
90.0
 72
1
 11
27156.0
 21
46336.0
 31
0.0
100
AcDbText
 73
2
  0
TEXT
  5
1BD
330
17
100
AcDbEntity
  8
COMP_5
100
AcDbText
 10
27306.0
 20
46336.0
 30
0.0
 40
200.0
  1
Weight=64.1t
 50
90.0
 72
1
 11
27306.0
 21
46336.0
 31
0.0
100
AcDbText
 73
2
  0
LWPOLYLINE
  5
1BE
330
17
100
AcDbEntity
  8
COMP_5
370
25
100
AcDbPolyline
 90
5
 70
0
 10
1650.0
 20
82657.0
 10
1650.0
 20
87207.0
 10
27860.0
 20
87207.0
 10
27860.0
 20
82657.0
 10
1650.0
 20
82657.0
  0
TEXT
  5
1BF
330
17
100
AcDbEntity
  8
COMP_5
100
AcDbText
 10
14755.0
 20
85082.0
 30
0.0
 40
200.0
  1
T110.5-70A    Tower Section 5
 72
1
 11
14755.0
 21
85082.0
 31
0.0
100
AcDbText
 73
2
  0
TEXT
  5
1C0
330
17
100
AcDbEntity
  8
COMP_5
100
AcDbText
 10
14755.0
 20
84932.0
 30
0.0
 40
200.0
  1
LxBxH=26.21x4.55x4.63m
 72
1
 11
14755.0
 21
84932.0
 31
0.0
100
AcDbText
 73
2
  0
TEXT
  5
1C1
330
17
100
AcDbEntity
  8
COMP_5
100
AcDbText
 10
14755.0
 20
84782.0
 30
0.0
 40
200.0
  1
Weight=64.1t
 72
1
 11
14755.0
 21
84782.0
 31
0.0
100
AcDbText
 73
2
  0
LWPOLYLINE
  5
1C2
330
17
100
AcDbEntity
  8
COMP_5
370
25
100
AcDbPolyline
 90
5
 70
0
 10
1650.0
 20
87307.0
 10
1650.0
 20
91857.0
 10
27860.0
 20
91857.0
 10
27860.0
 20
87307.0
 10
1650.0
 20
87307.0
  0
TEXT
  5
1C3
330
17
100
AcDbEntity
  8
COMP_5
100
AcDbText
 10
14755.0
 20
89732.0
 30
0.0
 40
200.0
  1
T110.5-70A    Tower Section 5
 72
1
 11
14755.0
 21
89732.0
 31
0.0
100
AcDbText
 73
2
  0
TEXT
  5
1C4
330
17
100
AcDbEntity
  8
COMP_5
100
AcDbText
 10
14755.0
 20
89582.0
 30
0.0
 40
200.0
  1
LxBxH=26.21x4.55x4.63m
 72
1
 11
14755.0
 21
89582.0
 31
0.0
100
AcDbText
 73
2
  0
TEXT
  5
1C5
330
17
100
AcDbEntity
  8
COMP_5
100
AcDbText
 10
14755.0
 20
89432.0
 30
0.0
 40
200.0
  1
Weight=64.1t
 72
1
 11
14755.0
 21
89432.0
 31
0.0
100
AcDbText
 73
2
  0
LWPOLYLINE
  5
1C6
330
17
100
AcDbEntity
  8
COMP_5
370
25
100
AcDbPolyline
 90
5
 70
0
 10
75452.0
 20
71032.0
 10
75452.0
 20
75582.0
 10
101662.0
 20
75582.0
 10
101662.0
 20
71032.0
 10
75452.0
 20
71032.0
  0
TEXT
  5
1C7
330
17
100
AcDbEntity
  8
COMP_5
100
AcDbText
 10
88557.0
 20
73457.0
 30
0.0
 40
200.0
  1
T110.5-70A    Tower Section 5
 72
1
 11
88557.0
 21
73457.0
 31
0.0
100
AcDbText
 73
2
  0
TEXT
  5
1C8
330
17
100
AcDbEntity
  8
COMP_5
100
AcDbText
 10
88557.0
 20
73307.0
 30
0.0
 40
200.0
  1
LxBxH=26.21x4.55x4.63m
 72
1
 11
88557.0
 21
73307.0
 31
0.0
100
AcDbText
 73
2
  0
TEXT
  5
1C9
330
17
100
AcDbEntity
  8
COMP_5
100
AcDbText
 10
88557.0
 20
73157.0
 30
0.0
 40
200.0
  1
Weight=64.1t
 72
1
 11
88557.0
 21
73157.0
 31
0.0
100
AcDbText
 73
2
  0
LWPOLYLINE
  5
1CA
330
17
100
AcDbEntity
  8
COMP_5
370
25
100
AcDbPolyline
 90
5
 70
0
 10
75452.0
 20
75682.0
 10
75452.0
 20
80232.0
 10
101662.0
 20
80232.0
 10
101662.0
 20
75682.0
 10
75452.0
 20
75682.0
  0
TEXT
  5
1CB
330
17
100
AcDbEntity
  8
COMP_5
100
AcDbText
 10
88557.0
 20
78107.0
 30
0.0
 40
200.0
  1
T110.5-70A    Tower Section 5
 72
1
 11
88557.0
 21
78107.0
 31
0.0
100
AcDbText
 73
2
  0
TEXT
  5
1CC
330
17
100
AcDbEntity
  8
COMP_5
100
AcDbText
 10
88557.0
 20
77957.0
 30
0.0
 40
200.0
  1
LxBxH=26.21x4.55x4.63m
 72
1
 11
88557.0
 21
77957.0
 31
0.0
100
AcDbText
 73
2
  0
TEXT
  5
1CD
330
17
100
AcDbEntity
  8
COMP_5
100
AcDbText
 10
88557.0
 20
77807.0
 30
0.0
 40
200.0
  1
Weight=64.1t
 72
1
 11
88557.0
 21
77807.0
 31
0.0
100
AcDbText
 73
2
  0
LWPOLYLINE
  5
1CE
330
17
100
AcDbEntity
  8
COMP_5
370
25
100
AcDbPolyline
 90
5
 70
0
 10
75452.0
 20
80332.0
 10
75452.0
 20
84882.0
 10
101662.0
 20
84882.0
 10
101662.0
 20
80332.0
 10
75452.0
 20
80332.0
  0
TEXT
  5
1CF
330
17
100
AcDbEntity
  8
COMP_5
100
AcDbText
 10
88557.0
 20
82757.0
 30
0.0
 40
200.0
  1
T110.5-70A    Tower Section 5
 72
1
 11
88557.0
 21
82757.0
 31
0.0
100
AcDbText
 73
2
  0
TEXT
  5
1D0
330
17
100
AcDbEntity
  8
COMP_5
100
AcDbText
 10
88557.0
 20
82607.0
 30
0.0
 40
200.0
  1
LxBxH=26.21x4.55x4.63m
 72
1
 11
88557.0
 21
82607.0
 31
0.0
100
AcDbText
 73
2
  0
TEXT
  5
1D1
330
17
100
AcDbEntity
  8
COMP_5
100
AcDbText
 10
88557.0
 20
82457.0
 30
0.0
 40
200.0
  1
Weight=64.1t
 72
1
 11
88557.0
 21
82457.0
 31
0.0
100
AcDbText
 73
2
  0
LWPOLYLINE
  5
1D2
330
17
100
AcDbEntity
  8
COMP_5
370
25
100
AcDbPolyline
 90
5
 70
0
 10
75452.0
 20
84982.0
 10
75452.0
 20
89532.0
 10
101662.0
 20
89532.0
 10
101662.0
 20
84982.0
 10
75452.0
 20
84982.0
  0
TEXT
  5
1D3
330
17
100
AcDbEntity
  8
COMP_5
100
AcDbText
 10
88557.0
 20
87407.0
 30
0.0
 40
200.0
  1
T110.5-70A    Tower Section 5
 72
1
 11
88557.0
 21
87407.0
 31
0.0
100
AcDbText
 73
2
  0
TEXT
  5
1D4
330
17
100
AcDbEntity
  8
COMP_5
100
AcDbText
 10
88557.0
 20
87257.0
 30
0.0
 40
200.0
  1
LxBxH=26.21x4.55x4.63m
 72
1
 11
88557.0
 21
87257.0
 31
0.0
100
AcDbText
 73
2
  0
TEXT
  5
1D5
330
17
100
AcDbEntity
  8
COMP_5
100
AcDbText
 10
88557.0
 20
87107.0
 30
0.0
 40
200.0
  1
Weight=64.1t
 72
1
 11
88557.0
 21
87107.0
 31
0.0
100
AcDbText
 73
2
  0
LWPOLYLINE
  5
1D6
330
17
100
AcDbEntity
  8
COMP_5
370
25
100
AcDbPolyline
 90
5
 70
0
 10
39981.0
 20
100161.0
 10
39981.0
 20
104711.0
 10
66191.0
 20
104711.0
 10
66191.0
 20
100161.0
 10
39981.0
 20
100161.0
  0
TEXT
  5
1D7
330
17
100
AcDbEntity
  8
COMP_5
100
AcDbText
 10
53086.0
 20
102586.0
 30
0.0
 40
200.0
  1
T110.5-70A    Tower Section 5
 72
1
 11
53086.0
 21
102586.0
 31
0.0
100
AcDbText
 73
2
  0
TEXT
  5
1D8
330
17
100
AcDbEntity
  8
COMP_5
100
AcDbText
 10
53086.0
 20
102436.0
 30
0.0
 40
200.0
  1
LxBxH=26.21x4.55x4.63m
 72
1
 11
53086.0
 21
102436.0
 31
0.0
100
AcDbText
 73
2
  0
TEXT
  5
1D9
330
17
100
AcDbEntity
  8
COMP_5
100
AcDbText
 10
53086.0
 20
102286.0
 30
0.0
 40
200.0
  1
Weight=64.1t
 72
1
 11
53086.0
 21
102286.0
 31
0.0
100
AcDbText
 73
2
  0
TEXT
  5
1DA
330
17
100
AcDbEntity
  8
COMP_5
 62
1
100
AcDbText
 10
65941.0
 20
104461.0
 30
0.0
 40
220.0
  1
TIER=2
 72
1
 11
65941.0
 21
104461.0
 31
0.0
100
AcDbText
 73
2
  0
LWPOLYLINE
  5
1DB
330
17
100
AcDbEntity
  8
COMP_5
370
25
100
AcDbPolyline
 90
5
 70
0
 10
39981.0
 20
104811.0
 10
39981.0
 20
109361.0
 10
66191.0
 20
109361.0
 10
66191.0
 20
104811.0
 10
39981.0
 20
104811.0
  0
TEXT
  5
1DC
330
17
100
AcDbEntity
  8
COMP_5
100
AcDbText
 10
53086.0
 20
107236.0
 30
0.0
 40
200.0
  1
T110.5-70A    Tower Section 5
 72
1
 11
53086.0
 21
107236.0
 31
0.0
100
AcDbText
 73
2
  0
TEXT
  5
1DD
330
17
100
AcDbEntity
  8
COMP_5
100
AcDbText
 10
53086.0
 20
107086.0
 30
0.0
 40
200.0
  1
LxBxH=26.21x4.55x4.63m
 72
1
 11
53086.0
 21
107086.0
 31
0.0
100
AcDbText
 73
2
  0
TEXT
  5
1DE
330
17
100
AcDbEntity
  8
COMP_5
100
AcDbText
 10
53086.0
 20
106936.0
 30
0.0
 40
200.0
  1
Weight=64.1t
 72
1
 11
53086.0
 21
106936.0
 31
0.0
100
AcDbText
 73
2
  0
TEXT
  5
1DF
330
17
100
AcDbEntity
  8
COMP_5
 62
1
100
AcDbText
 10
65941.0
 20
109111.0
 30
0.0
 40
220.0
  1
TIER=2
 72
1
 11
65941.0
 21
109111.0
 31
0.0
100
AcDbText
 73
2
  0
LWPOLYLINE
  5
1E0
330
17
100
AcDbEntity
  8
COMP_5
370
25
100
AcDbPolyline
 90
5
 70
0
 10
39981.0
 20
109461.0
 10
39981.0
 20
114011.0
 10
66191.0
 20
114011.0
 10
66191.0
 20
109461.0
 10
39981.0
 20
109461.0
  0
TEXT
  5
1E1
330
17
100
AcDbEntity
  8
COMP_5
100
AcDbText
 10
53086.0
 20
111886.0
 30
0.0
 40
200.0
  1
T110.5-70A    Tower Section 5
 72
1
 11
53086.0
 21
111886.0
 31
0.0
100
AcDbText
 73
2
  0
TEXT
  5
1E2
330
17
100
AcDbEntity
  8
COMP_5
100
AcDbText
 10
53086.0
 20
111736.0
 30
0.0
 40
200.0
  1
LxBxH=26.21x4.55x4.63m
 72
1
 11
53086.0
 21
111736.0
 31
0.0
100
AcDbText
 73
2
  0
TEXT
  5
1E3
330
17
100
AcDbEntity
  8
COMP_5
100
AcDbText
 10
53086.0
 20
111586.0
 30
0.0
 40
200.0
  1
Weight=64.1t
 72
1
 11
53086.0
 21
111586.0
 31
0.0
100
AcDbText
 73
2
  0
TEXT
  5
1E4
330
17
100
AcDbEntity
  8
COMP_5
 62
1
100
AcDbText
 10
65941.0
 20
113761.0
 30
0.0
 40
220.0
  1
TIER=2
 72
1
 11
65941.0
 21
113761.0
 31
0.0
100
AcDbText
 73
2
  0
LWPOLYLINE
  5
1E5
330
17
100
AcDbEntity
  8
COMP_5
370
25
100
AcDbPolyline
 90
5
 70
0
 10
39981.0
 20
114111.0
 10
39981.0
 20
118661.0
 10
66191.0
 20
118661.0
 10
66191.0
 20
114111.0
 10
39981.0
 20
114111.0
  0
TEXT
  5
1E6
330
17
100
AcDbEntity
  8
COMP_5
100
AcDbText
 10
53086.0
 20
116536.0
 30
0.0
 40
200.0
  1
T110.5-70A    Tower Section 5
 72
1
 11
53086.0
 21
116536.0
 31
0.0
100
AcDbText
 73
2
  0
TEXT
  5
1E7
330
17
100
AcDbEntity
  8
COMP_5
100
AcDbText
 10
53086.0
 20
116386.0
 30
0.0
 40
200.0
  1
LxBxH=26.21x4.55x4.63m
 72
1
 11
53086.0
 21
116386.0
 31
0.0
100
AcDbText
 73
2
  0
TEXT
  5
1E8
330
17
100
AcDbEntity
  8
COMP_5
100
AcDbText
 10
53086.0
 20
116236.0
 30
0.0
 40
200.0
  1
Weight=64.1t
 72
1
 11
53086.0
 21
116236.0
 31
0.0
100
AcDbText
 73
2
  0
TEXT
  5
1E9
330
17
100
AcDbEntity
  8
COMP_5
 62
1
100
AcDbText
 10
65941.0
 20
118411.0
 30
0.0
 40
220.0
  1
TIER=2
 72
1
 11
65941.0
 21
118411.0
 31
0.0
100
AcDbText
 73
2
  0
LWPOLYLINE
  5
1EA
330
17
100
AcDbEntity
  8
COMP_5
370
25
100
AcDbPolyline
 90
5
 70
0
 10
39981.0
 20
118761.0
 10
39981.0
 20
123311.0
 10
66191.0
 20
123311.0
 10
66191.0
 20
118761.0
 10
39981.0
 20
118761.0
  0
TEXT
  5
1EB
330
17
100
AcDbEntity
  8
COMP_5
100
AcDbText
 10
53086.0
 20
121186.0
 30
0.0
 40
200.0
  1
T110.5-70A    Tower Section 5
 72
1
 11
53086.0
 21
121186.0
 31
0.0
100
AcDbText
 73
2
  0
TEXT
  5
1EC
330
17
100
AcDbEntity
  8
COMP_5
100
AcDbText
 10
53086.0
 20
121036.0
 30
0.0
 40
200.0
  1
LxBxH=26.21x4.55x4.63m
 72
1
 11
53086.0
 21
121036.0
 31
0.0
100
AcDbText
 73
2
  0
TEXT
  5
1ED
330
17
100
AcDbEntity
  8
COMP_5
100
AcDbText
 10
53086.0
 20
120886.0
 30
0.0
 40
200.0
  1
Weight=64.1t
 72
1
 11
53086.0
 21
120886.0
 31
0.0
100
AcDbText
 73
2
  0
TEXT
  5
1EE
330
17
100
AcDbEntity
  8
COMP_5
 62
1
100
AcDbText
 10
65941.0
 20
123061.0
 30
0.0
 40
220.0
  1
TIER=2
 72
1
 11
65941.0
 21
123061.0
 31
0.0
100
AcDbText
 73
2
  0
LWPOLYLINE
  5
1EF
330
17
100
AcDbEntity
  8
COMP_5
370
25
100
AcDbPolyline
 90
5
 70
0
 10
39981.0
 20
123411.0
 10
39981.0
 20
127961.0
 10
66191.0
 20
127961.0
 10
66191.0
 20
123411.0
 10
39981.0
 20
123411.0
  0
TEXT
  5
1F0
330
17
100
AcDbEntity
  8
COMP_5
100
AcDbText
 10
53086.0
 20
125836.0
 30
0.0
 40
200.0
  1
T110.5-70A    Tower Section 5
 72
1
 11
53086.0
 21
125836.0
 31
0.0
100
AcDbText
 73
2
  0
TEXT
  5
1F1
330
17
100
AcDbEntity
  8
COMP_5
100
AcDbText
 10
53086.0
 20
125686.0
 30
0.0
 40
200.0
  1
LxBxH=26.21x4.55x4.63m
 72
1
 11
53086.0
 21
125686.0
 31
0.0
100
AcDbText
 73
2
  0
TEXT
  5
1F2
330
17
100
AcDbEntity
  8
COMP_5
100
AcDbText
 10
53086.0
 20
125536.0
 30
0.0
 40
200.0
  1
Weight=64.1t
 72
1
 11
53086.0
 21
125536.0
 31
0.0
100
AcDbText
 73
2
  0
TEXT
  5
1F3
330
17
100
AcDbEntity
  8
COMP_5
 62
1
100
AcDbText
 10
65941.0
 20
127711.0
 30
0.0
 40
220.0
  1
TIER=2
 72
1
 11
65941.0
 21
127711.0
 31
0.0
100
AcDbText
 73
2
  0
LWPOLYLINE
  5
1F4
330
17
100
AcDbEntity
  8
COMP_5
370
25
100
AcDbPolyline
 90
5
 70
0
 10
93401.0
 20
106361.0
 10
93401.0
 20
110911.0
 10
119611.0
 20
110911.0
 10
119611.0
 20
106361.0
 10
93401.0
 20
106361.0
  0
TEXT
  5
1F5
330
17
100
AcDbEntity
  8
COMP_5
100
AcDbText
 10
106506.0
 20
108786.0
 30
0.0
 40
200.0
  1
T110.5-70A    Tower Section 5
 72
1
 11
106506.0
 21
108786.0
 31
0.0
100
AcDbText
 73
2
  0
TEXT
  5
1F6
330
17
100
AcDbEntity
  8
COMP_5
100
AcDbText
 10
106506.0
 20
108636.0
 30
0.0
 40
200.0
  1
LxBxH=26.21x4.55x4.63m
 72
1
 11
106506.0
 21
108636.0
 31
0.0
100
AcDbText
 73
2
  0
TEXT
  5
1F7
330
17
100
AcDbEntity
  8
COMP_5
100
AcDbText
 10
106506.0
 20
108486.0
 30
0.0
 40
200.0
  1
Weight=64.1t
 72
1
 11
106506.0
 21
108486.0
 31
0.0
100
AcDbText
 73
2
  0
TEXT
  5
1F8
330
17
100
AcDbEntity
  8
COMP_5
 62
1
100
AcDbText
 10
119361.0
 20
110661.0
 30
0.0
 40
220.0
  1
TIER=2
 72
1
 11
119361.0
 21
110661.0
 31
0.0
100
AcDbText
 73
2
  0
LWPOLYLINE
  5
1FA
330
17
100
AcDbEntity
  8
COMP_6
370
25
100
AcDbPolyline
 90
5
 70
0
 10
19835.0
 20
33231.0
 10
19835.0
 20
58681.0
 10
24375.0
 20
58681.0
 10
24375.0
 20
33231.0
 10
19835.0
 20
33231.0
  0
TEXT
  5
1FB
330
17
100
AcDbEntity
  8
COMP_6
100
AcDbText
 10
21955.0
 20
45956.0
 30
0.0
 40
200.0
  1
T110.5-70A    Tower Section 6
 50
90.0
 72
1
 11
21955.0
 21
45956.0
 31
0.0
100
AcDbText
 73
2
  0
TEXT
  5
1FC
330
17
100
AcDbEntity
  8
COMP_6
100
AcDbText
 10
22105.0
 20
45956.0
 30
0.0
 40
200.0
  1
LxBxH=25.45x4.54x4.63m
 50
90.0
 72
1
 11
22105.0
 21
45956.0
 31
0.0
100
AcDbText
 73
2
  0
TEXT
  5
1FD
330
17
100
AcDbEntity
  8
COMP_6
100
AcDbText
 10
22255.0
 20
45956.0
 30
0.0
 40
200.0
  1
Weight=55.6t
 50
90.0
 72
1
 11
22255.0
 21
45956.0
 31
0.0
100
AcDbText
 73
2
  0
LWPOLYLINE
  5
1FE
330
17
100
AcDbEntity
  8
COMP_6
370
25
100
AcDbPolyline
 90
5
 70
0
 10
66691.0
 20
33231.0
 10
66691.0
 20
58681.0
 10
71231.0
 20
58681.0
 10
71231.0
 20
33231.0
 10
66691.0
 20
33231.0
  0
TEXT
  5
1FF
330
17
100
AcDbEntity
  8
COMP_6
100
AcDbText
 10
68811.0
 20
45956.0
 30
0.0
 40
200.0
  1
T110.5-70A    Tower Section 6
 50
90.0
 72
1
 11
68811.0
 21
45956.0
 31
0.0
100
AcDbText
 73
2
  0
TEXT
  5
200
330
17
100
AcDbEntity
  8
COMP_6
100
AcDbText
 10
68961.0
 20
45956.0
 30
0.0
 40
200.0
  1
LxBxH=25.45x4.54x4.63m
 50
90.0
 72
1
 11
68961.0
 21
45956.0
 31
0.0
100
AcDbText
 73
2
  0
TEXT
  5
201
330
17
100
AcDbEntity
  8
COMP_6
100
AcDbText
 10
69111.0
 20
45956.0
 30
0.0
 40
200.0
  1
Weight=55.6t
 50
90.0
 72
1
 11
69111.0
 21
45956.0
 31
0.0
100
AcDbText
 73
2
  0
LWPOLYLINE
  5
202
330
17
100
AcDbEntity
  8
COMP_6
370
25
100
AcDbPolyline
 90
5
 70
0
 10
78932.0
 20
33231.0
 10
78932.0
 20
58681.0
 10
83472.0
 20
58681.0
 10
83472.0
 20
33231.0
 10
78932.0
 20
33231.0
  0
TEXT
  5
203
330
17
100
AcDbEntity
  8
COMP_6
100
AcDbText
 10
81052.0
 20
45956.0
 30
0.0
 40
200.0
  1
T110.5-70A    Tower Section 6
 50
90.0
 72
1
 11
81052.0
 21
45956.0
 31
0.0
100
AcDbText
 73
2
  0
TEXT
  5
204
330
17
100
AcDbEntity
  8
COMP_6
100
AcDbText
 10
81202.0
 20
45956.0
 30
0.0
 40
200.0
  1
LxBxH=25.45x4.54x4.63m
 50
90.0
 72
1
 11
81202.0
 21
45956.0
 31
0.0
100
AcDbText
 73
2
  0
TEXT
  5
205
330
17
100
AcDbEntity
  8
COMP_6
100
AcDbText
 10
81352.0
 20
45956.0
 30
0.0
 40
200.0
  1
Weight=55.6t
 50
90.0
 72
1
 11
81352.0
 21
45956.0
 31
0.0
100
AcDbText
 73
2
  0
LWPOLYLINE
  5
206
330
17
100
AcDbEntity
  8
COMP_6
370
25
100
AcDbPolyline
 90
5
 70
0
 10
2030.0
 20
66382.0
 10
2030.0
 20
70922.0
 10
27480.0
 20
70922.0
 10
27480.0
 20
66382.0
 10
2030.0
 20
66382.0
  0
TEXT
  5
207
330
17
100
AcDbEntity
  8
COMP_6
100
AcDbText
 10
14755.0
 20
68802.0
 30
0.0
 40
200.0
  1
T110.5-70A    Tower Section 6
 72
1
 11
14755.0
 21
68802.0
 31
0.0
100
AcDbText
 73
2
  0
TEXT
  5
208
330
17
100
AcDbEntity
  8
COMP_6
100
AcDbText
 10
14755.0
 20
68652.0
 30
0.0
 40
200.0
  1
LxBxH=25.45x4.54x4.63m
 72
1
 11
14755.0
 21
68652.0
 31
0.0
100
AcDbText
 73
2
  0
TEXT
  5
209
330
17
100
AcDbEntity
  8
COMP_6
100
AcDbText
 10
14755.0
 20
68502.0
 30
0.0
 40
200.0
  1
Weight=55.6t
 72
1
 11
14755.0
 21
68502.0
 31
0.0
100
AcDbText
 73
2
  0
LWPOLYLINE
  5
20A
330
17
100
AcDbEntity
  8
COMP_6
370
25
100
AcDbPolyline
 90
5
 70
0
 10
2030.0
 20
71022.0
 10
2030.0
 20
75562.0
 10
27480.0
 20
75562.0
 10
27480.0
 20
71022.0
 10
2030.0
 20
71022.0
  0
TEXT
  5
20B
330
17
100
AcDbEntity
  8
COMP_6
100
AcDbText
 10
14755.0
 20
73442.0
 30
0.0
 40
200.0
  1
T110.5-70A    Tower Section 6
 72
1
 11
14755.0
 21
73442.0
 31
0.0
100
AcDbText
 73
2
  0
TEXT
  5
20C
330
17
100
AcDbEntity
  8
COMP_6
100
AcDbText
 10
14755.0
 20
73292.0
 30
0.0
 40
200.0
  1
LxBxH=25.45x4.54x4.63m
 72
1
 11
14755.0
 21
73292.0
 31
0.0
100
AcDbText
 73
2
  0
TEXT
  5
20D
330
17
100
AcDbEntity
  8
COMP_6
100
AcDbText
 10
14755.0
 20
73142.0
 30
0.0
 40
200.0
  1
Weight=55.6t
 72
1
 11
14755.0
 21
73142.0
 31
0.0
100
AcDbText
 73
2
  0
LWPOLYLINE
  5
20E
330
17
100
AcDbEntity
  8
COMP_6
370
25
100
AcDbPolyline
 90
5
 70
0
 10
2030.0
 20
77982.0
 10
2030.0
 20
82522.0
 10
27480.0
 20
82522.0
 10
27480.0
 20
77982.0
 10
2030.0
 20
77982.0
  0
TEXT
  5
20F
330
17
100
AcDbEntity
  8
COMP_6
100
AcDbText
 10
14755.0
 20
80402.0
 30
0.0
 40
200.0
  1
T110.5-70A    Tower Section 6
 72
1
 11
14755.0
 21
80402.0
 31
0.0
100
AcDbText
 73
2
  0
TEXT
  5
210
330
17
100
AcDbEntity
  8
COMP_6
100
AcDbText
 10
14755.0
 20
80252.0
 30
0.0
 40
200.0
  1
LxBxH=25.45x4.54x4.63m
 72
1
 11
14755.0
 21
80252.0
 31
0.0
100
AcDbText
 73
2
  0
TEXT
  5
211
330
17
100
AcDbEntity
  8
COMP_6
100
AcDbText
 10
14755.0
 20
80102.0
 30
0.0
 40
200.0
  1
Weight=55.6t
 72
1
 11
14755.0
 21
80102.0
 31
0.0
100
AcDbText
 73
2
  0
LWPOLYLINE
  5
212
330
17
100
AcDbEntity
  8
COMP_6
370
25
100
AcDbPolyline
 90
5
 70
0
 10
75832.0
 20
66382.0
 10
75832.0
 20
70922.0
 10
101282.0
 20
70922.0
 10
101282.0
 20
66382.0
 10
75832.0
 20
66382.0
  0
TEXT
  5
213
330
17
100
AcDbEntity
  8
COMP_6
100
AcDbText
 10
88557.0
 20
68802.0
 30
0.0
 40
200.0
  1
T110.5-70A    Tower Section 6
 72
1
 11
88557.0
 21
68802.0
 31
0.0
100
AcDbText
 73
2
  0
TEXT
  5
214
330
17
100
AcDbEntity
  8
COMP_6
100
AcDbText
 10
88557.0
 20
68652.0
 30
0.0
 40
200.0
  1
LxBxH=25.45x4.54x4.63m
 72
1
 11
88557.0
 21
68652.0
 31
0.0
100
AcDbText
 73
2
  0
TEXT
  5
215
330
17
100
AcDbEntity
  8
COMP_6
100
AcDbText
 10
88557.0
 20
68502.0
 30
0.0
 40
200.0
  1
Weight=55.6t
 72
1
 11
88557.0
 21
68502.0
 31
0.0
100
AcDbText
 73
2
  0
LWPOLYLINE
  5
216
330
17
100
AcDbEntity
  8
COMP_6
370
25
100
AcDbPolyline
 90
5
 70
0
 10
89601.0
 20
112531.0
 10
89601.0
 20
117071.0
 10
115051.0
 20
117071.0
 10
115051.0
 20
112531.0
 10
89601.0
 20
112531.0
  0
TEXT
  5
217
330
17
100
AcDbEntity
  8
COMP_6
100
AcDbText
 10
102326.0
 20
114951.0
 30
0.0
 40
200.0
  1
T110.5-70A    Tower Section 6
 72
1
 11
102326.0
 21
114951.0
 31
0.0
100
AcDbText
 73
2
  0
TEXT
  5
218
330
17
100
AcDbEntity
  8
COMP_6
100
AcDbText
 10
102326.0
 20
114801.0
 30
0.0
 40
200.0
  1
LxBxH=25.45x4.54x4.63m
 72
1
 11
102326.0
 21
114801.0
 31
0.0
100
AcDbText
 73
2
  0
TEXT
  5
219
330
17
100
AcDbEntity
  8
COMP_6
100
AcDbText
 10
102326.0
 20
114651.0
 30
0.0
 40
200.0
  1
Weight=55.6t
 72
1
 11
102326.0
 21
114651.0
 31
0.0
100
AcDbText
 73
2
  0
TEXT
  5
21A
330
17
100
AcDbEntity
  8
COMP_6
 62
1
100
AcDbText
 10
114801.0
 20
116821.0
 30
0.0
 40
220.0
  1
TIER=2
 72
1
 11
114801.0
 21
116821.0
 31
0.0
100
AcDbText
 73
2
  0
LWPOLYLINE
  5
21B
330
17
100
AcDbEntity
  8
COMP_6
370
25
100
AcDbPolyline
 90
5
 70
0
 10
89601.0
 20
117171.0
 10
89601.0
 20
121711.0
 10
115051.0
 20
121711.0
 10
115051.0
 20
117171.0
 10
89601.0
 20
117171.0
  0
TEXT
  5
21C
330
17
100
AcDbEntity
  8
COMP_6
100
AcDbText
 10
102326.0
 20
119591.0
 30
0.0
 40
200.0
  1
T110.5-70A    Tower Section 6
 72
1
 11
102326.0
 21
119591.0
 31
0.0
100
AcDbText
 73
2
  0
TEXT
  5
21D
330
17
100
AcDbEntity
  8
COMP_6
100
AcDbText
 10
102326.0
 20
119441.0
 30
0.0
 40
200.0
  1
LxBxH=25.45x4.54x4.63m
 72
1
 11
102326.0
 21
119441.0
 31
0.0
100
AcDbText
 73
2
  0
TEXT
  5
21E
330
17
100
AcDbEntity
  8
COMP_6
100
AcDbText
 10
102326.0
 20
119291.0
 30
0.0
 40
200.0
  1
Weight=55.6t
 72
1
 11
102326.0
 21
119291.0
 31
0.0
100
AcDbText
 73
2
  0
TEXT
  5
21F
330
17
100
AcDbEntity
  8
COMP_6
 62
1
100
AcDbText
 10
114801.0
 20
121461.0
 30
0.0
 40
220.0
  1
TIER=2
 72
1
 11
114801.0
 21
121461.0
 31
0.0
100
AcDbText
 73
2
  0
LWPOLYLINE
  5
220
330
17
100
AcDbEntity
  8
COMP_6
370
25
100
AcDbPolyline
 90
5
 70
0
 10
89601.0
 20
121811.0
 10
89601.0
 20
126351.0
 10
115051.0
 20
126351.0
 10
115051.0
 20
121811.0
 10
89601.0
 20
121811.0
  0
TEXT
  5
221
330
17
100
AcDbEntity
  8
COMP_6
100
AcDbText
 10
102326.0
 20
124231.0
 30
0.0
 40
200.0
  1
T110.5-70A    Tower Section 6
 72
1
 11
102326.0
 21
124231.0
 31
0.0
100
AcDbText
 73
2
  0
TEXT
  5
222
330
17
100
AcDbEntity
  8
COMP_6
100
AcDbText
 10
102326.0
 20
124081.0
 30
0.0
 40
200.0
  1
LxBxH=25.45x4.54x4.63m
 72
1
 11
102326.0
 21
124081.0
 31
0.0
100
AcDbText
 73
2
  0
TEXT
  5
223
330
17
100
AcDbEntity
  8
COMP_6
100
AcDbText
 10
102326.0
 20
123931.0
 30
0.0
 40
200.0
  1
Weight=55.6t
 72
1
 11
102326.0
 21
123931.0
 31
0.0
100
AcDbText
 73
2
  0
TEXT
  5
224
330
17
100
AcDbEntity
  8
COMP_6
 62
1
100
AcDbText
 10
114801.0
 20
126101.0
 30
0.0
 40
220.0
  1
TIER=2
 72
1
 11
114801.0
 21
126101.0
 31
0.0
100
AcDbText
 73
2
  0
LWPOLYLINE
  5
225
330
17
100
AcDbEntity
  8
COMP_6
370
25
100
AcDbPolyline
 90
5
 70
0
 10
-14199.0
 20
100157.0
 10
-14199.0
 20
104697.0
 10
11251.0
 20
104697.0
 10
11251.0
 20
100157.0
 10
-14199.0
 20
100157.0
  0
TEXT
  5
226
330
17
100
AcDbEntity
  8
COMP_6
100
AcDbText
 10
-1474.0
 20
102577.0
 30
0.0
 40
200.0
  1
T110.5-70A    Tower Section 6
 72
1
 11
-1474.0
 21
102577.0
 31
0.0
100
AcDbText
 73
2
  0
TEXT
  5
227
330
17
100
AcDbEntity
  8
COMP_6
100
AcDbText
 10
-1474.0
 20
102427.0
 30
0.0
 40
200.0
  1
LxBxH=25.45x4.54x4.63m
 72
1
 11
-1474.0
 21
102427.0
 31
0.0
100
AcDbText
 73
2
  0
TEXT
  5
228
330
17
100
AcDbEntity
  8
COMP_6
100
AcDbText
 10
-1474.0
 20
102277.0
 30
0.0
 40
200.0
  1
Weight=55.6t
 72
1
 11
-1474.0
 21
102277.0
 31
0.0
100
AcDbText
 73
2
  0
TEXT
  5
229
330
17
100
AcDbEntity
  8
COMP_6
 62
1
100
AcDbText
 10
11001.0
 20
104447.0
 30
0.0
 40
220.0
  1
TIER=2
 72
1
 11
11001.0
 21
104447.0
 31
0.0
100
AcDbText
 73
2
  0
LWPOLYLINE
  5
22A
330
17
100
AcDbEntity
  8
COMP_6
370
25
100
AcDbPolyline
 90
5
 70
0
 10
-14199.0
 20
104797.0
 10
-14199.0
 20
109337.0
 10
11251.0
 20
109337.0
 10
11251.0
 20
104797.0
 10
-14199.0
 20
104797.0
  0
TEXT
  5
22B
330
17
100
AcDbEntity
  8
COMP_6
100
AcDbText
 10
-1474.0
 20
107217.0
 30
0.0
 40
200.0
  1
T110.5-70A    Tower Section 6
 72
1
 11
-1474.0
 21
107217.0
 31
0.0
100
AcDbText
 73
2
  0
TEXT
  5
22C
330
17
100
AcDbEntity
  8
COMP_6
100
AcDbText
 10
-1474.0
 20
107067.0
 30
0.0
 40
200.0
  1
LxBxH=25.45x4.54x4.63m
 72
1
 11
-1474.0
 21
107067.0
 31
0.0
100
AcDbText
 73
2
  0
TEXT
  5
22D
330
17
100
AcDbEntity
  8
COMP_6
100
AcDbText
 10
-1474.0
 20
106917.0
 30
0.0
 40
200.0
  1
Weight=55.6t
 72
1
 11
-1474.0
 21
106917.0
 31
0.0
100
AcDbText
 73
2
  0
TEXT
  5
22E
330
17
100
AcDbEntity
  8
COMP_6
 62
1
100
AcDbText
 10
11001.0
 20
109087.0
 30
0.0
 40
220.0
  1
TIER=2
 72
1
 11
11001.0
 21
109087.0
 31
0.0
100
AcDbText
 73
2
  0
LWPOLYLINE
  5
22F
330
17
100
AcDbEntity
  8
COMP_6
370
25
100
AcDbPolyline
 90
5
 70
0
 10
-14199.0
 20
109437.0
 10
-14199.0
 20
113977.0
 10
11251.0
 20
113977.0
 10
11251.0
 20
109437.0
 10
-14199.0
 20
109437.0
  0
TEXT
  5
230
330
17
100
AcDbEntity
  8
COMP_6
100
AcDbText
 10
-1474.0
 20
111857.0
 30
0.0
 40
200.0
  1
T110.5-70A    Tower Section 6
 72
1
 11
-1474.0
 21
111857.0
 31
0.0
100
AcDbText
 73
2
  0
TEXT
  5
231
330
17
100
AcDbEntity
  8
COMP_6
100
AcDbText
 10
-1474.0
 20
111707.0
 30
0.0
 40
200.0
  1
LxBxH=25.45x4.54x4.63m
 72
1
 11
-1474.0
 21
111707.0
 31
0.0
100
AcDbText
 73
2
  0
TEXT
  5
232
330
17
100
AcDbEntity
  8
COMP_6
100
AcDbText
 10
-1474.0
 20
111557.0
 30
0.0
 40
200.0
  1
Weight=55.6t
 72
1
 11
-1474.0
 21
111557.0
 31
0.0
100
AcDbText
 73
2
  0
TEXT
  5
233
330
17
100
AcDbEntity
  8
COMP_6
 62
1
100
AcDbText
 10
11001.0
 20
113727.0
 30
0.0
 40
220.0
  1
TIER=2
 72
1
 11
11001.0
 21
113727.0
 31
0.0
100
AcDbText
 73
2
  0
LWPOLYLINE
  5
234
330
17
100
AcDbEntity
  8
COMP_6
370
25
100
AcDbPolyline
 90
5
 70
0
 10
-14199.0
 20
114077.0
 10
-14199.0
 20
118617.0
 10
11251.0
 20
118617.0
 10
11251.0
 20
114077.0
 10
-14199.0
 20
114077.0
  0
TEXT
  5
235
330
17
100
AcDbEntity
  8
COMP_6
100
AcDbText
 10
-1474.0
 20
116497.0
 30
0.0
 40
200.0
  1
T110.5-70A    Tower Section 6
 72
1
 11
-1474.0
 21
116497.0
 31
0.0
100
AcDbText
 73
2
  0
TEXT
  5
236
330
17
100
AcDbEntity
  8
COMP_6
100
AcDbText
 10
-1474.0
 20
116347.0
 30
0.0
 40
200.0
  1
LxBxH=25.45x4.54x4.63m
 72
1
 11
-1474.0
 21
116347.0
 31
0.0
100
AcDbText
 73
2
  0
TEXT
  5
237
330
17
100
AcDbEntity
  8
COMP_6
100
AcDbText
 10
-1474.0
 20
116197.0
 30
0.0
 40
200.0
  1
Weight=55.6t
 72
1
 11
-1474.0
 21
116197.0
 31
0.0
100
AcDbText
 73
2
  0
TEXT
  5
238
330
17
100
AcDbEntity
  8
COMP_6
 62
1
100
AcDbText
 10
11001.0
 20
118367.0
 30
0.0
 40
220.0
  1
TIER=2
 72
1
 11
11001.0
 21
118367.0
 31
0.0
100
AcDbText
 73
2
  0
LWPOLYLINE
  5
239
330
17
100
AcDbEntity
  8
COMP_6
370
25
100
AcDbPolyline
 90
5
 70
0
 10
-14199.0
 20
118717.0
 10
-14199.0
 20
123257.0
 10
11251.0
 20
123257.0
 10
11251.0
 20
118717.0
 10
-14199.0
 20
118717.0
  0
TEXT
  5
23A
330
17
100
AcDbEntity
  8
COMP_6
100
AcDbText
 10
-1474.0
 20
121137.0
 30
0.0
 40
200.0
  1
T110.5-70A    Tower Section 6
 72
1
 11
-1474.0
 21
121137.0
 31
0.0
100
AcDbText
 73
2
  0
TEXT
  5
23B
330
17
100
AcDbEntity
  8
COMP_6
100
AcDbText
 10
-1474.0
 20
120987.0
 30
0.0
 40
200.0
  1
LxBxH=25.45x4.54x4.63m
 72
1
 11
-1474.0
 21
120987.0
 31
0.0
100
AcDbText
 73
2
  0
TEXT
  5
23C
330
17
100
AcDbEntity
  8
COMP_6
100
AcDbText
 10
-1474.0
 20
120837.0
 30
0.0
 40
200.0
  1
Weight=55.6t
 72
1
 11
-1474.0
 21
120837.0
 31
0.0
100
AcDbText
 73
2
  0
TEXT
  5
23D
330
17
100
AcDbEntity
  8
COMP_6
 62
1
100
AcDbText
 10
11001.0
 20
123007.0
 30
0.0
 40
220.0
  1
TIER=2
 72
1
 11
11001.0
 21
123007.0
 31
0.0
100
AcDbText
 73
2
  0
LWPOLYLINE
  5
23E
330
17
100
AcDbEntity
  8
COMP_6
370
25
100
AcDbPolyline
 90
5
 70
0
 10
-14199.0
 20
123357.0
 10
-14199.0
 20
127897.0
 10
11251.0
 20
127897.0
 10
11251.0
 20
123357.0
 10
-14199.0
 20
123357.0
  0
TEXT
  5
23F
330
17
100
AcDbEntity
  8
COMP_6
100
AcDbText
 10
-1474.0
 20
125777.0
 30
0.0
 40
200.0
  1
T110.5-70A    Tower Section 6
 72
1
 11
-1474.0
 21
125777.0
 31
0.0
100
AcDbText
 73
2
  0
TEXT
  5
240
330
17
100
AcDbEntity
  8
COMP_6
100
AcDbText
 10
-1474.0
 20
125627.0
 30
0.0
 40
200.0
  1
LxBxH=25.45x4.54x4.63m
 72
1
 11
-1474.0
 21
125627.0
 31
0.0
100
AcDbText
 73
2
  0
TEXT
  5
241
330
17
100
AcDbEntity
  8
COMP_6
100
AcDbText
 10
-1474.0
 20
125477.0
 30
0.0
 40
200.0
  1
Weight=55.6t
 72
1
 11
-1474.0
 21
125477.0
 31
0.0
100
AcDbText
 73
2
  0
TEXT
  5
242
330
17
100
AcDbEntity
  8
COMP_6
 62
1
100
AcDbText
 10
11001.0
 20
127647.0
 30
0.0
 40
220.0
  1
TIER=2
 72
1
 11
11001.0
 21
127647.0
 31
0.0
100
AcDbText
 73
2
  0
LWPOLYLINE
  5
243
330
17
100
AcDbEntity
  8
COMP_6
370
25
100
AcDbPolyline
 90
5
 70
0
 10
89601.0
 20
101703.0
 10
89601.0
 20
106243.0
 10
115051.0
 20
106243.0
 10
115051.0
 20
101703.0
 10
89601.0
 20
101703.0
  0
TEXT
  5
244
330
17
100
AcDbEntity
  8
COMP_6
100
AcDbText
 10
102326.0
 20
104123.0
 30
0.0
 40
200.0
  1
T110.5-70A    Tower Section 6
 72
1
 11
102326.0
 21
104123.0
 31
0.0
100
AcDbText
 73
2
  0
TEXT
  5
245
330
17
100
AcDbEntity
  8
COMP_6
100
AcDbText
 10
102326.0
 20
103973.0
 30
0.0
 40
200.0
  1
LxBxH=25.45x4.54x4.63m
 72
1
 11
102326.0
 21
103973.0
 31
0.0
100
AcDbText
 73
2
  0
TEXT
  5
246
330
17
100
AcDbEntity
  8
COMP_6
100
AcDbText
 10
102326.0
 20
103823.0
 30
0.0
 40
200.0
  1
Weight=55.6t
 72
1
 11
102326.0
 21
103823.0
 31
0.0
100
AcDbText
 73
2
  0
TEXT
  5
247
330
17
100
AcDbEntity
  8
COMP_6
 62
1
100
AcDbText
 10
114801.0
 20
105993.0
 30
0.0
 40
220.0
  1
TIER=2
 72
1
 11
114801.0
 21
105993.0
 31
0.0
100
AcDbText
 73
2
  0
ENDSEC
  0
SECTION
  2
OBJECTS
  0
DICTIONARY
  5
A
330
0
100
AcDbDictionary
281
1
  3
ACAD_COLOR
350
B
  3
ACAD_GROUP
350
C
  3
ACAD_LAYOUT
350
D
  3
ACAD_MATERIAL
350
E
  3
ACAD_MLEADERSTYLE
350
F
  3
ACAD_MLINESTYLE
350
10
  3
ACAD_PLOTSETTINGS
350
11
  3
ACAD_PLOTSTYLENAME
350
12
  3
ACAD_SCALELIST
350
14
  3
ACAD_TABLESTYLE
350
15
  3
ACAD_VISUALSTYLE
350
16
  3
EZDXF_META
350
2D
  0
DICTIONARY
  5
B
330
A
100
AcDbDictionary
281
1
  0
DICTIONARY
  5
C
330
A
100
AcDbDictionary
281
1
  0
DICTIONARY
  5
D
330
A
100
AcDbDictionary
281
1
  3
Model
350
1A
  3
Layout1
350
1E
  0
DICTIONARY
  5
E
330
A
100
AcDbDictionary
281
1
  3
ByBlock
350
1F
  3
ByLayer
350
20
  3
Global
350
21
  0
DICTIONARY
  5
F
330
A
100
AcDbDictionary
281
1
  3
Standard
350
2C
  0
DICTIONARY
  5
10
330
A
100
AcDbDictionary
281
1
  3
Standard
350
22
  0
DICTIONARY
  5
11
330
A
100
AcDbDictionary
281
1
  0
ACDBDICTIONARYWDFLT
  5
12
330
A
100
AcDbDictionary
281
1
  3
Normal
350
13
100
AcDbDictionaryWithDefault
340
13
  0
ACDBPLACEHOLDER
  5
13
330
12
  0
DICTIONARY
  5
14
330
A
100
AcDbDictionary
281
1
  0
DICTIONARY
  5
15
330
A
100
AcDbDictionary
281
1
  0
DICTIONARY
  5
16
330
A
100
AcDbDictionary
281
1
  0
LAYOUT
  5
1A
330
D
100
AcDbPlotSettings
  1

  4
A3
  6

 40
7.5
 41
20.0
 42
7.5
 43
20.0
 44
420.0
 45
297.0
 46
0.0
 47
0.0
 48
0.0
 49
0.0
140
0.0
141
0.0
142
1.0
143
1.0
 70
1024
 72
1
 73
0
 74
5
  7

 75
16
 76
0
 77
2
 78
300
147
1.0
148
0.0
149
0.0
100
AcDbLayout
  1
Model
 70
1
 71
0
 10
0.0
 20
0.0
 11
420.0
 21
297.0
 12
0.0
 22
0.0
 32
0.0
 14
1e+20
 24
1e+20
 34
1e+20
 15
-1e+20
 25
-1e+20
 35
-1e+20
146
0.0
 13
0.0
 23
0.0
 33
0.0
 16
1.0
 26
0.0
 36
0.0
 17
0.0
 27
1.0
 37
0.0
 76
1
330
17
  0
LAYOUT
  5
1E
330
D
100
AcDbPlotSettings
  1

  4
A3
  6

 40
7.5
 41
20.0
 42
7.5
 43
20.0
 44
420.0
 45
297.0
 46
0.0
 47
0.0
 48
0.0
 49
0.0
140
0.0
141
0.0
142
1.0
143
1.0
 70
0
 72
1
 73
0
 74
5
  7

 75
16
 76
0
 77
2
 78
300
147
1.0
148
0.0
149
0.0
100
AcDbLayout
  1
Layout1
 70
1
 71
1
 10
0.0
 20
0.0
 11
420.0
 21
297.0
 12
0.0
 22
0.0
 32
0.0
 14
1e+20
 24
1e+20
 34
1e+20
 15
-1e+20
 25
-1e+20
 35
-1e+20
146
0.0
 13
0.0
 23
0.0
 33
0.0
 16
1.0
 26
0.0
 36
0.0
 17
0.0
 27
1.0
 37
0.0
 76
1
330
1B
  0
MATERIAL
  5
1F
102
{ACAD_REACTORS
330
E
102
}
330
E
100
AcDbMaterial
  1
ByBlock
  2

 70
0
 40
1.0
 71
1
 41
1.0
 91
-1023410177
 42
1.0
 72
1
  3

 73
1
 74
1
 75
1
 44
0.5
 73
0
 45
1.0
 46
1.0
 77
1
  4

 78
1
 79
1
170
1
 48
1.0
171
1
  6

172
1
173
1
174
1
140
1.0
141
1.0
175
1
  7

176
1
177
1
178
1
143
1.0
179
1
  8

270
1
271
1
272
1
145
1.0
146
1.0
273
1
  9

274
1
275
1
276
1
 42
1.0
 72
1
  3

 73
1
 74
1
 75
1
 94
63
  0
MATERIAL
  5
20
102
{ACAD_REACTORS
330
E
102
}
330
E
100
AcDbMaterial
  1
ByLayer
  2

 70
0
 40
1.0
 71
1
 41
1.0
 91
-1023410177
 42
1.0
 72
1
  3

 73
1
 74
1
 75
1
 44
0.5
 73
0
 45
1.0
 46
1.0
 77
1
  4

 78
1
 79
1
170
1
 48
1.0
171
1
  6

172
1
173
1
174
1
140
1.0
141
1.0
175
1
  7

176
1
177
1
178
1
143
1.0
179
1
  8

270
1
271
1
272
1
145
1.0
146
1.0
273
1
  9

274
1
275
1
276
1
 42
1.0
 72
1
  3

 73
1
 74
1
 75
1
 94
63
  0
MATERIAL
  5
21
102
{ACAD_REACTORS
330
E
102
}
330
E
100
AcDbMaterial
  1
Global
  2

 70
0
 40
1.0
 71
1
 41
1.0
 91
-1023410177
 42
1.0
 72
1
  3

 73
1
 74
1
 75
1
 44
0.5
 73
0
 45
1.0
 46
1.0
 77
1
  4

 78
1
 79
1
170
1
 48
1.0
171
1
  6

172
1
173
1
174
1
140
1.0
141
1.0
175
1
  7

176
1
177
1
178
1
143
1.0
179
1
  8

270
1
271
1
272
1
145
1.0
146
1.0
273
1
  9

274
1
275
1
276
1
 42
1.0
 72
1
  3

 73
1
 74
1
 75
1
 94
63
  0
MLINESTYLE
  5
22
102
{ACAD_REACTORS
330
10
102
}
330
10
100
AcDbMlineStyle
  2
Standard
 70
0
  3

 62
256
 51
90.0
 52
90.0
 71
2
 49
0.5
 62
256
  6
BYLAYER
 49
-0.5
 62
256
  6
BYLAYER
  0
MLEADERSTYLE
  5
2C
102
{ACAD_REACTORS
330
F
102
}
330
F
100
AcDbMLeaderStyle
179
2
170
2
171
1
172
0
 90
2
 40
0.0
 41
0.0
173
1
 91
-1056964608
 92
-2
290
1
 42
2.0
291
1
 43
8.0
  3
Standard
 44
4.0
300

342
29
174
1
175
1
176
0
178
1
 93
-1056964608
 45
4.0
292
0
297
0
 46
4.0
 94
-1056964608
 47
1.0
 49
1.0
140
1.0
294
1
141
0.0
177
0
142
1.0
295
0
296
0
143
3.75
271
0
272
9
273
9
  0
DICTIONARY
  5
2D
330
A
100
AcDbDictionary
280
1
281
1
  3
CREATED_BY_EZDXF
350
2E
  3
WRITTEN_BY_EZDXF
350
24A
  0
DICTIONARYVAR
  5
2E
330
2D
100
DictionaryVariables
280
0
  1
1.4.3 @ 2026-05-08T04:31:38.511418+00:00
  0
DICTIONARYVAR
  5
24A
330
2D
100
DictionaryVariables
280
0
  1
1.4.3 @ 2026-05-08T04:31:38.533424+00:00
  0
ENDSEC
  0
EOF
